<svg width="106" height="106" viewBox="0 0 106 106" fill="none" xmlns="http://www.w3.org/2000/svg">
<path d="M53 68.4583C48.9002 68.4583 44.9683 66.8296 42.0693 63.9306C39.1703 61.0316 37.5417 57.0997 37.5417 52.9999C37.5417 48.9001 39.1703 44.9682 42.0693 42.0692C44.9683 39.1702 48.9002 37.5416 53 37.5416C57.0998 37.5416 61.0317 39.1702 63.9307 42.0692C66.8297 44.9682 68.4584 48.9001 68.4584 52.9999C68.4584 57.0997 66.8297 61.0316 63.9307 63.9306C61.0317 66.8296 57.0998 68.4583 53 68.4583ZM85.8159 57.2841C85.9925 55.8708 86.125 54.4574 86.125 52.9999C86.125 51.5424 85.9925 50.0849 85.8159 48.5833L95.135 41.3841C95.9742 40.7216 96.195 39.5291 95.665 38.5574L86.8317 23.2758C86.3017 22.3041 85.1092 21.9066 84.1375 22.3041L73.14 26.7208C70.8434 24.9983 68.4584 23.4966 65.6759 22.3924L64.0417 10.6883C63.952 10.1681 63.681 9.6964 63.2768 9.35686C62.8726 9.01733 62.3612 8.83184 61.8334 8.83326H44.1667C43.0625 8.83326 42.135 9.62826 41.9584 10.6883L40.3242 22.3924C37.5417 23.4966 35.1567 24.9983 32.86 26.7208L21.8625 22.3041C20.8909 21.9066 19.6984 22.3041 19.1684 23.2758L10.335 38.5574C9.76086 39.5291 10.0259 40.7216 10.865 41.3841L20.1842 48.5833C20.0075 50.0849 19.875 51.5424 19.875 52.9999C19.875 54.4574 20.0075 55.8708 20.1842 57.2841L10.865 64.6158C10.0259 65.2783 9.76086 66.4708 10.335 67.4424L19.1684 82.7241C19.6984 83.6958 20.8909 84.0491 21.8625 83.6958L32.86 79.2349C35.1567 81.0016 37.5417 82.5033 40.3242 83.6074L41.9584 95.3116C42.135 96.3716 43.0625 97.1666 44.1667 97.1666H61.8334C62.9375 97.1666 63.865 96.3716 64.0417 95.3116L65.6759 83.6074C68.4584 82.4591 70.8434 81.0016 73.14 79.2349L84.1375 83.6958C85.1092 84.0491 86.3017 83.6958 86.8317 82.7241L95.665 67.4424C96.195 66.4708 95.9742 65.2783 95.135 64.6158L85.8159 57.2841Z" fill="url(#paint0_linear_329_27503)"/>
<defs>
<linearGradient id="paint0_linear_329_27503" x1="52.9903" y1="8.83325" x2="52.9903" y2="97.1666" gradientUnits="userSpaceOnUse">
<stop stop-color="#D500FF"/>
<stop offset="1" stop-color="#EF0078"/>
</linearGradient>
</defs>
</svg>
