<svg width="350" height="81" viewBox="0 0 350 81" fill="none" xmlns="http://www.w3.org/2000/svg">
<rect x="0.5" y="0.5" width="349" height="80" rx="9.5" fill="url(#paint0_linear_337_27544)" stroke="#303030"/>
<path d="M72.7585 28V19.2727H74.6037V26.4787H78.3452V28H72.7585ZM79.533 28V21.4545H81.3484V28H79.533ZM80.445 20.6108C80.1751 20.6108 79.9435 20.5213 79.7504 20.3423C79.56 20.1605 79.4648 19.9432 79.4648 19.6903C79.4648 19.4403 79.56 19.2259 79.7504 19.0469C79.9435 18.8651 80.1751 18.7741 80.445 18.7741C80.7148 18.7741 80.945 18.8651 81.1353 19.0469C81.3285 19.2259 81.4251 19.4403 81.4251 19.6903C81.4251 19.9432 81.3285 20.1605 81.1353 20.3423C80.945 20.5213 80.7148 20.6108 80.445 20.6108ZM84.6179 24.2159V28H82.8026V21.4545H84.5327V22.6094H84.6094C84.7543 22.2287 84.9972 21.9276 85.3381 21.706C85.679 21.4815 86.0923 21.3693 86.5781 21.3693C87.0327 21.3693 87.429 21.4688 87.767 21.6676C88.1051 21.8665 88.3679 22.1506 88.5554 22.5199C88.7429 22.8864 88.8366 23.3239 88.8366 23.8324V28H87.0213V24.1562C87.0241 23.7557 86.9219 23.4432 86.7145 23.2188C86.5071 22.9915 86.2216 22.8778 85.858 22.8778C85.6136 22.8778 85.3977 22.9304 85.2102 23.0355C85.0256 23.1406 84.8807 23.294 84.7756 23.4957C84.6733 23.6946 84.6207 23.9347 84.6179 24.2159ZM92.1339 28.1236C91.7163 28.1236 91.3441 28.0511 91.0174 27.9062C90.6907 27.7585 90.4322 27.5412 90.2418 27.2543C90.0543 26.9645 89.9606 26.6037 89.9606 26.1719C89.9606 25.8082 90.0273 25.5028 90.1609 25.2557C90.2944 25.0085 90.4762 24.8097 90.7063 24.6591C90.9364 24.5085 91.1978 24.3949 91.4904 24.3182C91.7859 24.2415 92.0955 24.1875 92.4194 24.1562C92.8001 24.1165 93.1069 24.0795 93.3398 24.0455C93.5728 24.0085 93.7418 23.9545 93.8469 23.8835C93.9521 23.8125 94.0046 23.7074 94.0046 23.5682V23.5426C94.0046 23.2727 93.9194 23.0639 93.7489 22.9162C93.5813 22.7685 93.3427 22.6946 93.033 22.6946C92.7063 22.6946 92.4464 22.767 92.2532 22.9119C92.06 23.054 91.9322 23.233 91.8697 23.4489L90.1907 23.3125C90.2759 22.9148 90.4435 22.571 90.6935 22.2812C90.9435 21.9886 91.266 21.7642 91.6609 21.608C92.0586 21.4489 92.5188 21.3693 93.0415 21.3693C93.4052 21.3693 93.7532 21.4119 94.0856 21.4972C94.4208 21.5824 94.7177 21.7145 94.9762 21.8935C95.2376 22.0724 95.4435 22.3026 95.5941 22.5838C95.7447 22.8622 95.82 23.196 95.82 23.5852V28H94.0984V27.0923H94.0472C93.9421 27.2969 93.8015 27.4773 93.6254 27.6335C93.4492 27.7869 93.2376 27.9077 92.9904 27.9957C92.7433 28.081 92.4577 28.1236 92.1339 28.1236ZM92.6538 26.8707C92.9208 26.8707 93.1566 26.8182 93.3612 26.7131C93.5657 26.6051 93.7262 26.4602 93.8427 26.2784C93.9592 26.0966 94.0174 25.8906 94.0174 25.6605V24.9659C93.9606 25.0028 93.8825 25.0369 93.783 25.0682C93.6864 25.0966 93.5771 25.1236 93.4549 25.1491C93.3327 25.1719 93.2106 25.1932 93.0884 25.2131C92.9663 25.2301 92.8555 25.2457 92.756 25.2599C92.543 25.2912 92.3569 25.3409 92.1978 25.4091C92.0387 25.4773 91.9151 25.5696 91.8271 25.6861C91.739 25.7997 91.695 25.9418 91.695 26.1122C91.695 26.3594 91.7844 26.5483 91.9634 26.679C92.1452 26.8068 92.3754 26.8707 92.6538 26.8707ZM107.74 22.3281H105.874C105.839 22.0866 105.77 21.8722 105.665 21.6847C105.56 21.4943 105.425 21.3324 105.26 21.1989C105.095 21.0653 104.905 20.9631 104.689 20.892C104.476 20.821 104.244 20.7855 103.994 20.7855C103.543 20.7855 103.149 20.8977 102.814 21.1222C102.479 21.3437 102.219 21.6676 102.034 22.0938C101.849 22.517 101.757 23.0312 101.757 23.6364C101.757 24.2585 101.849 24.7812 102.034 25.2045C102.222 25.6278 102.483 25.9474 102.818 26.1634C103.153 26.3793 103.541 26.4872 103.982 26.4872C104.229 26.4872 104.457 26.4545 104.668 26.3892C104.881 26.3239 105.07 26.2287 105.234 26.1037C105.399 25.9759 105.536 25.821 105.643 25.6392C105.754 25.4574 105.831 25.25 105.874 25.017L107.74 25.0256C107.692 25.4261 107.571 25.8125 107.378 26.1847C107.188 26.554 106.93 26.8849 106.607 27.1776C106.286 27.4673 105.902 27.6974 105.456 27.8679C105.013 28.0355 104.511 28.1193 103.952 28.1193C103.173 28.1193 102.477 27.9432 101.864 27.5909C101.253 27.2386 100.77 26.7287 100.415 26.0611C100.062 25.3935 99.8864 24.5852 99.8864 23.6364C99.8864 22.6847 100.065 21.875 100.423 21.2074C100.781 20.5398 101.267 20.0312 101.881 19.6818C102.494 19.3295 103.185 19.1534 103.952 19.1534C104.457 19.1534 104.926 19.2244 105.358 19.3665C105.793 19.5085 106.178 19.7159 106.513 19.9886C106.848 20.2585 107.121 20.5895 107.331 20.9815C107.544 21.3736 107.68 21.8224 107.74 22.3281ZM110.844 24.2159V28H109.029V19.2727H110.793V22.6094H110.87C111.018 22.223 111.256 21.9205 111.586 21.7017C111.915 21.4801 112.329 21.3693 112.826 21.3693C113.281 21.3693 113.677 21.4688 114.015 21.6676C114.356 21.8636 114.62 22.1463 114.808 22.5156C114.998 22.8821 115.092 23.321 115.089 23.8324V28H113.273V24.1562C113.276 23.7528 113.174 23.4389 112.967 23.2145C112.762 22.9901 112.475 22.8778 112.106 22.8778C111.859 22.8778 111.64 22.9304 111.45 23.0355C111.262 23.1406 111.114 23.294 111.006 23.4957C110.901 23.6946 110.847 23.9347 110.844 24.2159ZM119.5 28.1278C118.827 28.1278 118.248 27.9915 117.762 27.7188C117.279 27.4432 116.907 27.054 116.645 26.5511C116.384 26.0455 116.253 25.4474 116.253 24.7571C116.253 24.0838 116.384 23.4929 116.645 22.9844C116.907 22.4759 117.275 22.0795 117.749 21.7955C118.226 21.5114 118.786 21.3693 119.428 21.3693C119.86 21.3693 120.262 21.4389 120.634 21.5781C121.009 21.7145 121.336 21.9205 121.614 22.196C121.895 22.4716 122.114 22.8182 122.27 23.2358C122.426 23.6506 122.505 24.1364 122.505 24.6932V25.1918H116.978V24.0668H120.796C120.796 23.8054 120.739 23.5739 120.625 23.3722C120.512 23.1705 120.354 23.0128 120.152 22.8991C119.953 22.7827 119.722 22.7244 119.458 22.7244C119.182 22.7244 118.938 22.7884 118.725 22.9162C118.515 23.0412 118.35 23.2102 118.23 23.4233C118.111 23.6335 118.05 23.8679 118.047 24.1264V25.196C118.047 25.5199 118.107 25.7997 118.226 26.0355C118.348 26.2713 118.52 26.4531 118.742 26.581C118.963 26.7088 119.226 26.7727 119.53 26.7727C119.732 26.7727 119.917 26.7443 120.084 26.6875C120.252 26.6307 120.395 26.5455 120.515 26.4318C120.634 26.3182 120.725 26.179 120.787 26.0142L122.466 26.125C122.381 26.5284 122.206 26.8807 121.942 27.1818C121.681 27.4801 121.343 27.7131 120.928 27.8807C120.516 28.0455 120.04 28.1278 119.5 28.1278ZM125.505 24.2159V28H123.689V21.4545H125.419V22.6094H125.496C125.641 22.2287 125.884 21.9276 126.225 21.706C126.566 21.4815 126.979 21.3693 127.465 21.3693C127.919 21.3693 128.316 21.4688 128.654 21.6676C128.992 21.8665 129.255 22.1506 129.442 22.5199C129.63 22.8864 129.723 23.3239 129.723 23.8324V28H127.908V24.1562C127.911 23.7557 127.809 23.4432 127.601 23.2188C127.394 22.9915 127.108 22.8778 126.745 22.8778C126.5 22.8778 126.284 22.9304 126.097 23.0355C125.912 23.1406 125.767 23.294 125.662 23.4957C125.56 23.6946 125.507 23.9347 125.505 24.2159ZM132.215 28.1108C131.934 28.1108 131.692 28.0114 131.491 27.8125C131.292 27.6108 131.192 27.3693 131.192 27.0881C131.192 26.8097 131.292 26.571 131.491 26.3722C131.692 26.1733 131.934 26.0739 132.215 26.0739C132.488 26.0739 132.727 26.1733 132.931 26.3722C133.136 26.571 133.238 26.8097 133.238 27.0881C133.238 27.2756 133.19 27.4474 133.093 27.6037C132.999 27.7571 132.876 27.8807 132.722 27.9744C132.569 28.0653 132.4 28.1108 132.215 28.1108ZM132.215 23.5256C131.934 23.5256 131.692 23.4261 131.491 23.2273C131.292 23.0284 131.192 22.7869 131.192 22.5028C131.192 22.2244 131.292 21.9872 131.491 21.7912C131.692 21.5923 131.934 21.4929 132.215 21.4929C132.488 21.4929 132.727 21.5923 132.931 21.7912C133.136 21.9872 133.238 22.2244 133.238 22.5028C133.238 22.6932 133.19 22.8665 133.093 23.0227C132.999 23.1761 132.876 23.2983 132.722 23.3892C132.569 23.4801 132.4 23.5256 132.215 23.5256ZM140.531 28H137.838V19.2727H140.651C141.497 19.2727 142.222 19.4474 142.824 19.7969C143.426 20.1435 143.888 20.642 144.209 21.2926C144.53 21.9403 144.69 22.7159 144.69 23.6193C144.69 24.5284 144.528 25.3111 144.205 25.9673C143.881 26.6207 143.409 27.1236 142.79 27.4759C142.17 27.8253 141.418 28 140.531 28ZM138.895 27.0625H140.463C141.185 27.0625 141.783 26.9233 142.257 26.6449C142.732 26.3665 143.085 25.9702 143.318 25.456C143.551 24.9418 143.668 24.3295 143.668 23.6193C143.668 22.9148 143.553 22.3082 143.322 21.7997C143.092 21.2884 142.749 20.8963 142.291 20.6236C141.834 20.348 141.264 20.2102 140.582 20.2102H138.895V27.0625ZM148.986 28.1364C148.395 28.1364 147.876 27.9957 147.43 27.7145C146.987 27.4332 146.641 27.0398 146.391 26.5341C146.143 26.0284 146.02 25.4375 146.02 24.7614C146.02 24.0795 146.143 23.4844 146.391 22.9759C146.641 22.4673 146.987 22.0724 147.43 21.7912C147.876 21.5099 148.395 21.3693 148.986 21.3693C149.577 21.3693 150.094 21.5099 150.537 21.7912C150.983 22.0724 151.33 22.4673 151.577 22.9759C151.827 23.4844 151.952 24.0795 151.952 24.7614C151.952 25.4375 151.827 26.0284 151.577 26.5341C151.33 27.0398 150.983 27.4332 150.537 27.7145C150.094 27.9957 149.577 28.1364 148.986 28.1364ZM148.986 27.233C149.435 27.233 149.804 27.1179 150.094 26.8878C150.384 26.6577 150.598 26.3551 150.737 25.9801C150.876 25.6051 150.946 25.1989 150.946 24.7614C150.946 24.3239 150.876 23.9162 150.737 23.5384C150.598 23.1605 150.384 22.8551 150.094 22.6222C149.804 22.3892 149.435 22.2727 148.986 22.2727C148.537 22.2727 148.168 22.3892 147.878 22.6222C147.588 22.8551 147.374 23.1605 147.234 23.5384C147.095 23.9162 147.026 24.3239 147.026 24.7614C147.026 25.1989 147.095 25.6051 147.234 25.9801C147.374 26.3551 147.588 26.6577 147.878 26.8878C148.168 27.1179 148.537 27.233 148.986 27.233ZM157.51 30.4545C157.339 30.4545 157.187 30.4403 157.054 30.4119C156.92 30.3864 156.828 30.3608 156.777 30.3352L157.032 29.4489C157.277 29.5114 157.493 29.5341 157.68 29.517C157.868 29.5 158.034 29.4162 158.179 29.2656C158.326 29.1179 158.461 28.8778 158.583 28.5455L158.771 28.0341L156.35 21.4545H157.441L159.248 26.6705H159.316L161.123 21.4545H162.214L159.436 28.9545C159.311 29.2926 159.156 29.5724 158.971 29.794C158.787 30.0185 158.572 30.1847 158.328 30.2926C158.086 30.4006 157.814 30.4545 157.51 30.4545ZM165.966 28.1364C165.375 28.1364 164.857 27.9957 164.411 27.7145C163.968 27.4332 163.621 27.0398 163.371 26.5341C163.124 26.0284 163 25.4375 163 24.7614C163 24.0795 163.124 23.4844 163.371 22.9759C163.621 22.4673 163.968 22.0724 164.411 21.7912C164.857 21.5099 165.375 21.3693 165.966 21.3693C166.557 21.3693 167.074 21.5099 167.517 21.7912C167.963 22.0724 168.31 22.4673 168.557 22.9759C168.807 23.4844 168.932 24.0795 168.932 24.7614C168.932 25.4375 168.807 26.0284 168.557 26.5341C168.31 27.0398 167.963 27.4332 167.517 27.7145C167.074 27.9957 166.557 28.1364 165.966 28.1364ZM165.966 27.233C166.415 27.233 166.784 27.1179 167.074 26.8878C167.364 26.6577 167.578 26.3551 167.718 25.9801C167.857 25.6051 167.926 25.1989 167.926 24.7614C167.926 24.3239 167.857 23.9162 167.718 23.5384C167.578 23.1605 167.364 22.8551 167.074 22.6222C166.784 22.3892 166.415 22.2727 165.966 22.2727C165.517 22.2727 165.148 22.3892 164.858 22.6222C164.569 22.8551 164.354 23.1605 164.215 23.5384C164.076 23.9162 164.006 24.3239 164.006 24.7614C164.006 25.1989 164.076 25.6051 164.215 25.9801C164.354 26.3551 164.569 26.6577 164.858 26.8878C165.148 27.1179 165.517 27.233 165.966 27.233ZM174.592 25.3239V21.4545H175.598V28H174.592V26.892H174.524C174.371 27.2244 174.132 27.5071 173.808 27.7401C173.484 27.9702 173.075 28.0852 172.581 28.0852C172.172 28.0852 171.808 27.9957 171.49 27.8168C171.172 27.6349 170.922 27.3622 170.74 26.9986C170.558 26.6321 170.467 26.1705 170.467 25.6136V21.4545H171.473V25.5455C171.473 26.0227 171.607 26.4034 171.874 26.6875C172.143 26.9716 172.487 27.1136 172.905 27.1136C173.155 27.1136 173.409 27.0497 173.668 26.9219C173.929 26.794 174.148 26.598 174.324 26.3338C174.503 26.0696 174.592 25.733 174.592 25.3239ZM183.457 30.5909C182.971 30.5909 182.554 30.5284 182.204 30.4034C181.855 30.2812 181.564 30.1193 181.331 29.9176C181.1 29.7188 180.917 29.5057 180.781 29.2784L181.582 28.7159C181.673 28.8352 181.788 28.9716 181.927 29.125C182.066 29.2812 182.257 29.4162 182.498 29.5298C182.743 29.6463 183.062 29.7045 183.457 29.7045C183.985 29.7045 184.422 29.5767 184.765 29.321C185.109 29.0653 185.281 28.6648 185.281 28.1193V26.7898H185.196C185.122 26.9091 185.017 27.0568 184.88 27.233C184.747 27.4062 184.554 27.5611 184.301 27.6974C184.051 27.831 183.713 27.8977 183.287 27.8977C182.758 27.8977 182.284 27.7727 181.863 27.5227C181.446 27.2727 181.115 26.9091 180.87 26.4318C180.629 25.9545 180.508 25.375 180.508 24.6932C180.508 24.0227 180.626 23.4389 180.862 22.9418C181.098 22.4418 181.426 22.0554 181.846 21.7827C182.267 21.5071 182.752 21.3693 183.304 21.3693C183.73 21.3693 184.068 21.4403 184.318 21.5824C184.571 21.7216 184.764 21.8807 184.897 22.0597C185.034 22.2358 185.139 22.3807 185.213 22.4943H185.315V21.4545H186.287V28.1875C186.287 28.75 186.159 29.2074 185.903 29.5597C185.65 29.9148 185.309 30.1747 184.88 30.3395C184.454 30.5071 183.98 30.5909 183.457 30.5909ZM183.423 26.9943C183.826 26.9943 184.167 26.902 184.446 26.7173C184.724 26.5327 184.936 26.267 185.081 25.9205C185.225 25.5739 185.298 25.1591 185.298 24.6761C185.298 24.2045 185.227 23.7884 185.085 23.4276C184.943 23.0668 184.733 22.7841 184.454 22.5795C184.176 22.375 183.832 22.2727 183.423 22.2727C182.997 22.2727 182.642 22.3807 182.358 22.5966C182.076 22.8125 181.865 23.1023 181.723 23.4659C181.583 23.8295 181.514 24.233 181.514 24.6761C181.514 25.1307 181.585 25.5327 181.727 25.8821C181.872 26.2287 182.085 26.5014 182.366 26.7003C182.65 26.8963 183.002 26.9943 183.423 26.9943ZM192.252 25.3239V21.4545H193.258V28H192.252V26.892H192.184C192.031 27.2244 191.792 27.5071 191.468 27.7401C191.145 27.9702 190.735 28.0852 190.241 28.0852C189.832 28.0852 189.468 27.9957 189.15 27.8168C188.832 27.6349 188.582 27.3622 188.4 26.9986C188.218 26.6321 188.127 26.1705 188.127 25.6136V21.4545H189.133V25.5455C189.133 26.0227 189.267 26.4034 189.534 26.6875C189.804 26.9716 190.147 27.1136 190.565 27.1136C190.815 27.1136 191.069 27.0497 191.328 26.9219C191.589 26.794 191.808 26.598 191.984 26.3338C192.163 26.0696 192.252 25.733 192.252 25.3239ZM195.748 30.4545C195.577 30.4545 195.425 30.4403 195.292 30.4119C195.158 30.3864 195.066 30.3608 195.015 30.3352L195.271 29.4489C195.515 29.5114 195.731 29.5341 195.918 29.517C196.106 29.5 196.272 29.4162 196.417 29.2656C196.565 29.1179 196.7 28.8778 196.822 28.5455L197.009 28.0341L194.589 21.4545H195.68L197.487 26.6705H197.555L199.362 21.4545H200.452L197.674 28.9545C197.549 29.2926 197.394 29.5724 197.21 29.794C197.025 30.0185 196.81 30.1847 196.566 30.2926C196.325 30.4006 196.052 30.4545 195.748 30.4545ZM206.416 22.9205L205.513 23.1761C205.456 23.0256 205.372 22.8793 205.261 22.7372C205.153 22.5923 205.006 22.473 204.818 22.3793C204.631 22.2855 204.391 22.2386 204.098 22.2386C203.697 22.2386 203.364 22.331 203.097 22.5156C202.832 22.6974 202.7 22.929 202.7 23.2102C202.7 23.4602 202.791 23.6577 202.973 23.8026C203.155 23.9474 203.439 24.0682 203.825 24.1648L204.797 24.4034C205.382 24.5455 205.818 24.7628 206.105 25.0554C206.392 25.3452 206.536 25.7187 206.536 26.1761C206.536 26.5511 206.428 26.8864 206.212 27.1818C205.999 27.4773 205.7 27.7102 205.317 27.8807C204.933 28.0511 204.487 28.1364 203.979 28.1364C203.311 28.1364 202.759 27.9915 202.321 27.7017C201.884 27.4119 201.607 26.9886 201.49 26.4318L202.445 26.1932C202.536 26.5455 202.707 26.8097 202.96 26.9858C203.216 27.1619 203.55 27.25 203.962 27.25C204.43 27.25 204.803 27.1506 205.078 26.9517C205.357 26.75 205.496 26.5085 205.496 26.2273C205.496 26 205.416 25.8097 205.257 25.6562C205.098 25.5 204.854 25.3835 204.524 25.3068L203.433 25.0511C202.834 24.9091 202.393 24.6889 202.112 24.3906C201.834 24.0895 201.695 23.7131 201.695 23.2614C201.695 22.892 201.798 22.5653 202.006 22.2812C202.216 21.9972 202.501 21.7741 202.862 21.6122C203.226 21.4503 203.638 21.3693 204.098 21.3693C204.746 21.3693 205.254 21.5114 205.624 21.7955C205.996 22.0795 206.26 22.4545 206.416 22.9205ZM213.896 28.1364C213.35 28.1364 212.869 27.9986 212.451 27.723C212.034 27.4446 211.707 27.0526 211.471 26.5469C211.235 26.0384 211.118 25.4375 211.118 24.7443C211.118 24.0568 211.235 23.4602 211.471 22.9545C211.707 22.4489 212.035 22.0582 212.456 21.7827C212.876 21.5071 213.362 21.3693 213.913 21.3693C214.339 21.3693 214.676 21.4403 214.923 21.5824C215.173 21.7216 215.363 21.8807 215.494 22.0597C215.627 22.2358 215.731 22.3807 215.805 22.4943H215.89V19.2727H216.896V28H215.924V26.9943H215.805C215.731 27.1136 215.626 27.2642 215.49 27.446C215.353 27.625 215.159 27.7855 214.906 27.9276C214.653 28.0668 214.316 28.1364 213.896 28.1364ZM214.032 27.233C214.436 27.233 214.777 27.1278 215.055 26.9176C215.333 26.7045 215.545 26.4105 215.69 26.0355C215.835 25.6577 215.907 25.2216 215.907 24.7273C215.907 24.2386 215.836 23.8111 215.694 23.4446C215.552 23.0753 215.342 22.7884 215.064 22.5838C214.785 22.3764 214.441 22.2727 214.032 22.2727C213.606 22.2727 213.251 22.3821 212.967 22.6009C212.686 22.8168 212.474 23.1108 212.332 23.483C212.193 23.8523 212.123 24.267 212.123 24.7273C212.123 25.1932 212.194 25.6165 212.336 25.9972C212.481 26.375 212.694 26.6761 212.975 26.9006C213.26 27.1222 213.612 27.233 214.032 27.233ZM221.537 28.1364C220.946 28.1364 220.427 27.9957 219.981 27.7145C219.538 27.4332 219.191 27.0398 218.941 26.5341C218.694 26.0284 218.571 25.4375 218.571 24.7614C218.571 24.0795 218.694 23.4844 218.941 22.9759C219.191 22.4673 219.538 22.0724 219.981 21.7912C220.427 21.5099 220.946 21.3693 221.537 21.3693C222.127 21.3693 222.645 21.5099 223.088 21.7912C223.534 22.0724 223.88 22.4673 224.127 22.9759C224.377 23.4844 224.502 24.0795 224.502 24.7614C224.502 25.4375 224.377 26.0284 224.127 26.5341C223.88 27.0398 223.534 27.4332 223.088 27.7145C222.645 27.9957 222.127 28.1364 221.537 28.1364ZM221.537 27.233C221.985 27.233 222.355 27.1179 222.645 26.8878C222.934 26.6577 223.149 26.3551 223.288 25.9801C223.427 25.6051 223.497 25.1989 223.497 24.7614C223.497 24.3239 223.427 23.9162 223.288 23.5384C223.149 23.1605 222.934 22.8551 222.645 22.6222C222.355 22.3892 221.985 22.2727 221.537 22.2727C221.088 22.2727 220.718 22.3892 220.429 22.6222C220.139 22.8551 219.924 23.1605 219.785 23.5384C219.646 23.9162 219.576 24.3239 219.576 24.7614C219.576 25.1989 219.646 25.6051 219.785 25.9801C219.924 26.3551 220.139 26.6577 220.429 26.8878C220.718 27.1179 221.088 27.233 221.537 27.233ZM236.572 22H235.515C235.452 21.696 235.343 21.429 235.187 21.1989C235.033 20.9688 234.846 20.7756 234.624 20.6193C234.406 20.4602 234.163 20.3409 233.896 20.2614C233.629 20.1818 233.35 20.142 233.06 20.142C232.532 20.142 232.053 20.2756 231.624 20.5426C231.198 20.8097 230.859 21.2031 230.606 21.723C230.356 22.2429 230.231 22.8807 230.231 23.6364C230.231 24.392 230.356 25.0298 230.606 25.5497C230.859 26.0696 231.198 26.4631 231.624 26.7301C232.053 26.9972 232.532 27.1307 233.06 27.1307C233.35 27.1307 233.629 27.0909 233.896 27.0114C234.163 26.9318 234.406 26.8139 234.624 26.6577C234.846 26.4986 235.033 26.304 235.187 26.0739C235.343 25.8409 235.452 25.5739 235.515 25.2727H236.572C236.492 25.7187 236.347 26.1179 236.137 26.4702C235.927 26.8224 235.665 27.1222 235.353 27.3693C235.04 27.6136 234.69 27.7997 234.3 27.9276C233.914 28.0554 233.501 28.1193 233.06 28.1193C232.316 28.1193 231.654 27.9375 231.075 27.5739C230.495 27.2102 230.039 26.6932 229.707 26.0227C229.374 25.3523 229.208 24.5568 229.208 23.6364C229.208 22.7159 229.374 21.9205 229.707 21.25C230.039 20.5795 230.495 20.0625 231.075 19.6989C231.654 19.3352 232.316 19.1534 233.06 19.1534C233.501 19.1534 233.914 19.2173 234.3 19.3452C234.69 19.473 235.04 19.6605 235.353 19.9077C235.665 20.152 235.927 20.4503 236.137 20.8026C236.347 21.152 236.492 21.5511 236.572 22ZM245.643 23.6364C245.643 24.5568 245.477 25.3523 245.145 26.0227C244.812 26.6932 244.356 27.2102 243.777 27.5739C243.197 27.9375 242.535 28.1193 241.791 28.1193C241.047 28.1193 240.385 27.9375 239.805 27.5739C239.225 27.2102 238.77 26.6932 238.437 26.0227C238.105 25.3523 237.939 24.5568 237.939 23.6364C237.939 22.7159 238.105 21.9205 238.437 21.25C238.77 20.5795 239.225 20.0625 239.805 19.6989C240.385 19.3352 241.047 19.1534 241.791 19.1534C242.535 19.1534 243.197 19.3352 243.777 19.6989C244.356 20.0625 244.812 20.5795 245.145 21.25C245.477 21.9205 245.643 22.7159 245.643 23.6364ZM244.62 23.6364C244.62 22.8807 244.494 22.2429 244.241 21.723C243.991 21.2031 243.652 20.8097 243.223 20.5426C242.797 20.2756 242.319 20.142 241.791 20.142C241.262 20.142 240.784 20.2756 240.355 20.5426C239.929 20.8097 239.589 21.2031 239.336 21.723C239.086 22.2429 238.961 22.8807 238.961 23.6364C238.961 24.392 239.086 25.0298 239.336 25.5497C239.589 26.0696 239.929 26.4631 240.355 26.7301C240.784 26.9972 241.262 27.1307 241.791 27.1307C242.319 27.1307 242.797 26.9972 243.223 26.7301C243.652 26.4631 243.991 26.0696 244.241 25.5497C244.494 25.0298 244.62 24.392 244.62 23.6364ZM250.113 28H247.42V19.2727H250.233C251.079 19.2727 251.804 19.4474 252.406 19.7969C253.008 20.1435 253.47 20.642 253.791 21.2926C254.112 21.9403 254.272 22.7159 254.272 23.6193C254.272 24.5284 254.11 25.3111 253.787 25.9673C253.463 26.6207 252.991 27.1236 252.372 27.4759C251.752 27.8253 251 28 250.113 28ZM248.477 27.0625H250.045C250.767 27.0625 251.365 26.9233 251.839 26.6449C252.314 26.3665 252.667 25.9702 252.9 25.456C253.133 24.9418 253.25 24.3295 253.25 23.6193C253.25 22.9148 253.135 22.3082 252.904 21.7997C252.674 21.2884 252.331 20.8963 251.873 20.6236C251.416 20.348 250.846 20.2102 250.164 20.2102H248.477V27.0625ZM262.199 21.4545V22.3068H258.67V21.4545H262.199ZM259.727 28V20.5511C259.727 20.1761 259.815 19.8636 259.991 19.6136C260.167 19.3636 260.396 19.1761 260.677 19.0511C260.958 18.9261 261.255 18.8636 261.568 18.8636C261.815 18.8636 262.017 18.8835 262.173 18.9233C262.329 18.9631 262.446 19 262.522 19.0341L262.233 19.9034C262.181 19.8864 262.11 19.8651 262.02 19.8395C261.931 19.8139 261.815 19.8011 261.67 19.8011C261.338 19.8011 261.098 19.8849 260.95 20.0526C260.805 20.2202 260.733 20.4659 260.733 20.7898V28H259.727ZM265.998 28.1364C265.407 28.1364 264.888 27.9957 264.442 27.7145C263.999 27.4332 263.652 27.0398 263.402 26.5341C263.155 26.0284 263.032 25.4375 263.032 24.7614C263.032 24.0795 263.155 23.4844 263.402 22.9759C263.652 22.4673 263.999 22.0724 264.442 21.7912C264.888 21.5099 265.407 21.3693 265.998 21.3693C266.588 21.3693 267.105 21.5099 267.549 21.7912C267.995 22.0724 268.341 22.4673 268.588 22.9759C268.838 23.4844 268.963 24.0795 268.963 24.7614C268.963 25.4375 268.838 26.0284 268.588 26.5341C268.341 27.0398 267.995 27.4332 267.549 27.7145C267.105 27.9957 266.588 28.1364 265.998 28.1364ZM265.998 27.233C266.446 27.233 266.816 27.1179 267.105 26.8878C267.395 26.6577 267.61 26.3551 267.749 25.9801C267.888 25.6051 267.958 25.1989 267.958 24.7614C267.958 24.3239 267.888 23.9162 267.749 23.5384C267.61 23.1605 267.395 22.8551 267.105 22.6222C266.816 22.3892 266.446 22.2727 265.998 22.2727C265.549 22.2727 265.179 22.3892 264.89 22.6222C264.6 22.8551 264.385 23.1605 264.246 23.5384C264.107 23.9162 264.037 24.3239 264.037 24.7614C264.037 25.1989 264.107 25.6051 264.246 25.9801C264.385 26.3551 264.6 26.6577 264.89 26.8878C265.179 27.1179 265.549 27.233 265.998 27.233ZM270.499 28V21.4545H271.47V22.4432H271.538C271.658 22.1193 271.874 21.8565 272.186 21.6548C272.499 21.4531 272.851 21.3523 273.243 21.3523C273.317 21.3523 273.409 21.3537 273.52 21.3565C273.631 21.3594 273.714 21.3636 273.771 21.3693V22.392C273.737 22.3835 273.659 22.3707 273.537 22.3537C273.418 22.3338 273.291 22.3239 273.158 22.3239C272.839 22.3239 272.555 22.3906 272.305 22.5241C272.058 22.6548 271.862 22.8366 271.717 23.0696C271.575 23.2997 271.504 23.5625 271.504 23.858V28H270.499ZM278.475 28V19.2727H281.424C282.108 19.2727 282.668 19.3963 283.103 19.6435C283.54 19.8878 283.864 20.2188 284.074 20.6364C284.284 21.054 284.39 21.5199 284.39 22.0341C284.39 22.5483 284.284 23.0156 284.074 23.4361C283.867 23.8565 283.546 24.1918 283.111 24.4418C282.676 24.6889 282.12 24.8125 281.441 24.8125H279.327V23.875H281.407C281.875 23.875 282.252 23.794 282.536 23.6321C282.82 23.4702 283.026 23.2514 283.154 22.9759C283.284 22.6974 283.35 22.3835 283.35 22.0341C283.35 21.6847 283.284 21.3722 283.154 21.0966C283.026 20.821 282.819 20.6051 282.532 20.4489C282.245 20.2898 281.864 20.2102 281.39 20.2102H279.532V28H278.475ZM290.081 25.3239V21.4545H291.086V28H290.081V26.892H290.012C289.859 27.2244 289.62 27.5071 289.297 27.7401C288.973 27.9702 288.564 28.0852 288.069 28.0852C287.66 28.0852 287.297 27.9957 286.978 27.8168C286.66 27.6349 286.41 27.3622 286.228 26.9986C286.047 26.6321 285.956 26.1705 285.956 25.6136V21.4545H286.961V25.5455C286.961 26.0227 287.095 26.4034 287.362 26.6875C287.632 26.9716 287.975 27.1136 288.393 27.1136C288.643 27.1136 288.897 27.0497 289.156 26.9219C289.417 26.794 289.636 26.598 289.812 26.3338C289.991 26.0696 290.081 25.733 290.081 25.3239ZM293.934 24.0625V28H292.928V21.4545H293.9V22.4773H293.985C294.138 22.1449 294.371 21.8778 294.684 21.6761C294.996 21.4716 295.4 21.3693 295.894 21.3693C296.337 21.3693 296.725 21.4602 297.058 21.642C297.39 21.821 297.648 22.0938 297.833 22.4602C298.018 22.8239 298.11 23.2841 298.11 23.8409V28H297.104V23.9091C297.104 23.3949 296.971 22.9943 296.704 22.7074C296.437 22.4176 296.07 22.2727 295.604 22.2727C295.283 22.2727 294.996 22.3423 294.744 22.4815C294.494 22.6207 294.296 22.8239 294.151 23.0909C294.006 23.358 293.934 23.6818 293.934 24.0625ZM302.692 28.1364C302.061 28.1364 301.517 27.9972 301.06 27.7188C300.605 27.4375 300.255 27.0455 300.007 26.5426C299.763 26.0369 299.641 25.4489 299.641 24.7784C299.641 24.108 299.763 23.517 300.007 23.0057C300.255 22.4915 300.598 22.0909 301.039 21.804C301.482 21.5142 301.999 21.3693 302.59 21.3693C302.931 21.3693 303.267 21.4261 303.6 21.5398C303.932 21.6534 304.235 21.8381 304.507 22.0938C304.78 22.3466 304.998 22.6818 305.159 23.0994C305.321 23.517 305.402 24.0312 305.402 24.642V25.0682H300.357V24.1989H304.38C304.38 23.8295 304.306 23.5 304.158 23.2102C304.013 22.9205 303.806 22.6918 303.536 22.5241C303.269 22.3565 302.953 22.2727 302.59 22.2727C302.189 22.2727 301.843 22.3722 301.55 22.571C301.26 22.767 301.037 23.0227 300.881 23.3381C300.725 23.6534 300.647 23.9915 300.647 24.3523V24.9318C300.647 25.4261 300.732 25.8452 300.902 26.1889C301.076 26.5298 301.316 26.7898 301.623 26.9688C301.929 27.1449 302.286 27.233 302.692 27.233C302.956 27.233 303.195 27.196 303.408 27.1222C303.624 27.0455 303.81 26.9318 303.966 26.7812C304.123 26.6278 304.243 26.4375 304.328 26.2102L305.3 26.483C305.198 26.8125 305.026 27.1023 304.784 27.3523C304.543 27.5994 304.245 27.7926 303.89 27.9318C303.534 28.0682 303.135 28.1364 302.692 28.1364ZM308.245 25.5455V25.4943C308.25 24.9517 308.307 24.5199 308.415 24.1989C308.523 23.8778 308.676 23.6179 308.875 23.419C309.074 23.2202 309.313 23.0369 309.591 22.8693C309.759 22.767 309.909 22.6463 310.043 22.5071C310.176 22.3651 310.282 22.2017 310.358 22.017C310.438 21.8324 310.478 21.6278 310.478 21.4034C310.478 21.125 310.412 20.8835 310.282 20.679C310.151 20.4744 309.976 20.3168 309.757 20.206C309.539 20.0952 309.296 20.0398 309.029 20.0398C308.796 20.0398 308.571 20.0881 308.355 20.1847C308.14 20.2812 307.959 20.4332 307.814 20.6406C307.669 20.848 307.586 21.1193 307.563 21.4545H306.489C306.512 20.9716 306.637 20.5582 306.864 20.2145C307.094 19.8707 307.397 19.608 307.772 19.4261C308.15 19.2443 308.569 19.1534 309.029 19.1534C309.529 19.1534 309.963 19.2528 310.333 19.4517C310.705 19.6506 310.992 19.9233 311.194 20.2699C311.398 20.6165 311.5 21.0114 311.5 21.4545C311.5 21.767 311.452 22.0497 311.355 22.3026C311.262 22.5554 311.125 22.7812 310.946 22.9801C310.77 23.179 310.557 23.3551 310.307 23.5085C310.057 23.6648 309.857 23.8295 309.706 24.0028C309.556 24.1733 309.446 24.3764 309.378 24.6122C309.31 24.848 309.273 25.142 309.267 25.4943V25.5455H308.245ZM308.79 28.0682C308.58 28.0682 308.4 27.9929 308.249 27.8423C308.098 27.6918 308.023 27.5114 308.023 27.3011C308.023 27.0909 308.098 26.9105 308.249 26.7599C308.4 26.6094 308.58 26.5341 308.79 26.5341C309 26.5341 309.181 26.6094 309.331 26.7599C309.482 26.9105 309.557 27.0909 309.557 27.3011C309.557 27.4403 309.522 27.5682 309.451 27.6847C309.382 27.8011 309.29 27.8949 309.174 27.9659C309.06 28.0341 308.932 28.0682 308.79 28.0682Z" fill="white"/>
<path d="M72.7585 48V39.2727H76.2017C76.8608 39.2727 77.4233 39.3906 77.8892 39.6264C78.358 39.8594 78.7145 40.1903 78.9588 40.6193C79.206 41.0455 79.3295 41.5469 79.3295 42.1236C79.3295 42.7031 79.2045 43.2017 78.9545 43.6193C78.7045 44.0341 78.3423 44.3523 77.8679 44.5739C77.3963 44.7955 76.8253 44.9062 76.1548 44.9062H73.8494V43.4233H75.8565C76.2088 43.4233 76.5014 43.375 76.7344 43.2784C76.9673 43.1818 77.1406 43.0369 77.2543 42.8438C77.3707 42.6506 77.429 42.4105 77.429 42.1236C77.429 41.8338 77.3707 41.5895 77.2543 41.3906C77.1406 41.1918 76.9659 41.0412 76.7301 40.9389C76.4972 40.8338 76.2031 40.7812 75.848 40.7812H74.6037V48H72.7585ZM77.4716 44.0284L79.6406 48H77.6037L75.4815 44.0284H77.4716ZM83.4769 48.1278C82.8036 48.1278 82.2241 47.9915 81.7383 47.7188C81.2553 47.4432 80.8832 47.054 80.6218 46.5511C80.3604 46.0455 80.2298 45.4474 80.2298 44.7571C80.2298 44.0838 80.3604 43.4929 80.6218 42.9844C80.8832 42.4759 81.2511 42.0795 81.7255 41.7955C82.2028 41.5114 82.7624 41.3693 83.4045 41.3693C83.8363 41.3693 84.2383 41.4389 84.6104 41.5781C84.9854 41.7145 85.3121 41.9205 85.5906 42.196C85.8718 42.4716 86.0906 42.8182 86.2468 43.2358C86.4031 43.6506 86.4812 44.1364 86.4812 44.6932V45.1918H80.9542V44.0668H84.7724C84.7724 43.8054 84.7156 43.5739 84.6019 43.3722C84.4883 43.1705 84.3306 43.0128 84.1289 42.8991C83.93 42.7827 83.6985 42.7244 83.4343 42.7244C83.1587 42.7244 82.9144 42.7884 82.7013 42.9162C82.4911 43.0412 82.3263 43.2102 82.207 43.4233C82.0877 43.6335 82.0266 43.8679 82.0238 44.1264V45.196C82.0238 45.5199 82.0835 45.7997 82.2028 46.0355C82.3249 46.2713 82.4968 46.4531 82.7184 46.581C82.94 46.7088 83.2028 46.7727 83.5067 46.7727C83.7085 46.7727 83.8931 46.7443 84.0607 46.6875C84.2283 46.6307 84.3718 46.5455 84.4911 46.4318C84.6104 46.3182 84.7013 46.179 84.7638 46.0142L86.4428 46.125C86.3576 46.5284 86.1829 46.8807 85.9187 47.1818C85.6573 47.4801 85.3192 47.7131 84.9045 47.8807C84.4925 48.0455 84.0167 48.1278 83.4769 48.1278ZM87.6658 50.4545V41.4545H89.4556V42.554H89.5366C89.6161 42.3778 89.7312 42.1989 89.8817 42.017C90.0352 41.8324 90.234 41.679 90.4783 41.5568C90.7255 41.4318 91.0323 41.3693 91.3988 41.3693C91.8761 41.3693 92.3164 41.4943 92.7198 41.7443C93.1232 41.9915 93.4457 42.3651 93.6871 42.8651C93.9286 43.3622 94.0494 43.9858 94.0494 44.7358C94.0494 45.4659 93.9315 46.0824 93.6957 46.5852C93.4627 47.0852 93.1445 47.4645 92.7411 47.723C92.3406 47.9787 91.8917 48.1065 91.3945 48.1065C91.0423 48.1065 90.7425 48.0483 90.4954 47.9318C90.2511 47.8153 90.0508 47.669 89.8945 47.4929C89.7383 47.3139 89.619 47.1335 89.5366 46.9517H89.4812V50.4545H87.6658ZM89.4428 44.7273C89.4428 45.1165 89.4968 45.456 89.6048 45.7457C89.7127 46.0355 89.869 46.2614 90.0735 46.4233C90.2781 46.5824 90.5266 46.6619 90.8192 46.6619C91.1147 46.6619 91.3647 46.581 91.5692 46.419C91.7738 46.2543 91.9286 46.027 92.0337 45.7372C92.1417 45.4446 92.1957 45.108 92.1957 44.7273C92.1957 44.3494 92.1431 44.017 92.038 43.7301C91.9329 43.4432 91.7781 43.2187 91.5735 43.0568C91.369 42.8949 91.1175 42.8139 90.8192 42.8139C90.5238 42.8139 90.2738 42.892 90.0692 43.0483C89.8675 43.2045 89.7127 43.4261 89.6048 43.7131C89.4968 44 89.4428 44.3381 89.4428 44.7273ZM97.0749 39.2727V48H95.2596V39.2727H97.0749ZM99.6499 50.4545C99.4197 50.4545 99.2038 50.4361 99.0021 50.3991C98.8033 50.3651 98.6385 50.321 98.5078 50.267L98.9169 48.9119C99.13 48.9773 99.3217 49.0128 99.4922 49.0185C99.6655 49.0241 99.8146 48.9844 99.9396 48.8991C100.067 48.8139 100.171 48.669 100.251 48.4645L100.357 48.1875L98.0092 41.4545H99.9183L101.273 46.2614H101.342L102.71 41.4545H104.631L102.087 48.7074C101.965 49.0597 101.799 49.3665 101.589 49.6278C101.381 49.892 101.119 50.0952 100.8 50.2372C100.482 50.3821 100.099 50.4545 99.6499 50.4545ZM106.621 48.1108C106.34 48.1108 106.099 48.0114 105.897 47.8125C105.698 47.6108 105.599 47.3693 105.599 47.0881C105.599 46.8097 105.698 46.571 105.897 46.3722C106.099 46.1733 106.34 46.0739 106.621 46.0739C106.894 46.0739 107.133 46.1733 107.337 46.3722C107.542 46.571 107.644 46.8097 107.644 47.0881C107.644 47.2756 107.596 47.4474 107.499 47.6037C107.406 47.7571 107.282 47.8807 107.129 47.9744C106.975 48.0653 106.806 48.1108 106.621 48.1108ZM106.621 43.5256C106.34 43.5256 106.099 43.4261 105.897 43.2273C105.698 43.0284 105.599 42.7869 105.599 42.5028C105.599 42.2244 105.698 41.9872 105.897 41.7912C106.099 41.5923 106.34 41.4929 106.621 41.4929C106.894 41.4929 107.133 41.5923 107.337 41.7912C107.542 41.9872 107.644 42.2244 107.644 42.5028C107.644 42.6932 107.596 42.8665 107.499 43.0227C107.406 43.1761 107.282 43.2983 107.129 43.3892C106.975 43.4801 106.806 43.5256 106.621 43.5256ZM114.427 48L112.041 39.2727H113.115L114.939 46.3807H115.024L116.882 39.2727H118.075L119.933 46.3807H120.018L121.842 39.2727H122.916L120.529 48H119.439L117.512 41.0455H117.444L115.518 48H114.427ZM126.231 48.1364C125.6 48.1364 125.056 47.9972 124.599 47.7188C124.145 47.4375 123.794 47.0455 123.547 46.5426C123.302 46.0369 123.18 45.4489 123.18 44.7784C123.18 44.108 123.302 43.517 123.547 43.0057C123.794 42.4915 124.137 42.0909 124.578 41.804C125.021 41.5142 125.538 41.3693 126.129 41.3693C126.47 41.3693 126.806 41.4261 127.139 41.5398C127.471 41.6534 127.774 41.8381 128.047 42.0938C128.319 42.3466 128.537 42.6818 128.699 43.0994C128.86 43.517 128.941 44.0312 128.941 44.642V45.0682H123.896V44.1989H127.919C127.919 43.8295 127.845 43.5 127.697 43.2102C127.552 42.9205 127.345 42.6918 127.075 42.5241C126.808 42.3565 126.493 42.2727 126.129 42.2727C125.728 42.2727 125.382 42.3722 125.089 42.571C124.799 42.767 124.576 43.0227 124.42 43.3381C124.264 43.6534 124.186 43.9915 124.186 44.3523V44.9318C124.186 45.4261 124.271 45.8452 124.441 46.1889C124.615 46.5298 124.855 46.7898 125.162 46.9688C125.468 47.1449 125.825 47.233 126.231 47.233C126.495 47.233 126.734 47.196 126.947 47.1222C127.163 47.0455 127.349 46.9318 127.505 46.7812C127.662 46.6278 127.782 46.4375 127.868 46.2102L128.839 46.483C128.737 46.8125 128.565 47.1023 128.324 47.3523C128.082 47.5994 127.784 47.7926 127.429 47.9318C127.074 48.0682 126.674 48.1364 126.231 48.1364ZM138.483 42.9205L137.579 43.1761C137.522 43.0256 137.439 42.8793 137.328 42.7372C137.22 42.5923 137.072 42.473 136.885 42.3793C136.697 42.2855 136.457 42.2386 136.164 42.2386C135.764 42.2386 135.43 42.331 135.163 42.5156C134.899 42.6974 134.767 42.929 134.767 43.2102C134.767 43.4602 134.858 43.6577 135.039 43.8026C135.221 43.9474 135.505 44.0682 135.892 44.1648L136.863 44.4034C137.449 44.5455 137.885 44.7628 138.172 45.0554C138.458 45.3452 138.602 45.7187 138.602 46.1761C138.602 46.5511 138.494 46.8864 138.278 47.1818C138.065 47.4773 137.767 47.7102 137.383 47.8807C137 48.0511 136.554 48.1364 136.045 48.1364C135.377 48.1364 134.825 47.9915 134.387 47.7017C133.95 47.4119 133.673 46.9886 133.556 46.4318L134.511 46.1932C134.602 46.5455 134.774 46.8097 135.027 46.9858C135.282 47.1619 135.616 47.25 136.028 47.25C136.497 47.25 136.869 47.1506 137.145 46.9517C137.423 46.75 137.562 46.5085 137.562 46.2273C137.562 46 137.483 45.8097 137.324 45.6562C137.164 45.5 136.92 45.3835 136.591 45.3068L135.5 45.0511C134.9 44.9091 134.46 44.6889 134.179 44.3906C133.9 44.0895 133.761 43.7131 133.761 43.2614C133.761 42.892 133.865 42.5653 134.072 42.2812C134.282 41.9972 134.568 41.7741 134.929 41.6122C135.292 41.4503 135.704 41.3693 136.164 41.3693C136.812 41.3693 137.321 41.5114 137.69 41.7955C138.062 42.0795 138.326 42.4545 138.483 42.9205ZM144.241 45.3239V41.4545H145.246V48H144.241V46.892H144.173C144.019 47.2244 143.781 47.5071 143.457 47.7401C143.133 47.9702 142.724 48.0852 142.229 48.0852C141.82 48.0852 141.457 47.9957 141.138 47.8168C140.82 47.6349 140.57 47.3622 140.388 46.9986C140.207 46.6321 140.116 46.1705 140.116 45.6136V41.4545H141.121V45.5455C141.121 46.0227 141.255 46.4034 141.522 46.6875C141.792 46.9716 142.136 47.1136 142.553 47.1136C142.803 47.1136 143.058 47.0497 143.316 46.9219C143.577 46.794 143.796 46.598 143.972 46.3338C144.151 46.0696 144.241 45.733 144.241 45.3239ZM147.088 48V41.4545H148.06V42.4432H148.128C148.248 42.1193 148.463 41.8565 148.776 41.6548C149.088 41.4531 149.441 41.3523 149.833 41.3523C149.907 41.3523 149.999 41.3537 150.11 41.3565C150.221 41.3594 150.304 41.3636 150.361 41.3693V42.392C150.327 42.3835 150.249 42.3707 150.127 42.3537C150.007 42.3338 149.881 42.3239 149.748 42.3239C149.429 42.3239 149.145 42.3906 148.895 42.5241C148.648 42.6548 148.452 42.8366 148.307 43.0696C148.165 43.2997 148.094 43.5625 148.094 43.858V48H147.088ZM154.098 48.1364C153.468 48.1364 152.924 47.9972 152.466 47.7188C152.012 47.4375 151.661 47.0455 151.414 46.5426C151.169 46.0369 151.047 45.4489 151.047 44.7784C151.047 44.108 151.169 43.517 151.414 43.0057C151.661 42.4915 152.005 42.0909 152.445 41.804C152.888 41.5142 153.405 41.3693 153.996 41.3693C154.337 41.3693 154.674 41.4261 155.006 41.5398C155.338 41.6534 155.641 41.8381 155.914 42.0938C156.186 42.3466 156.404 42.6818 156.566 43.0994C156.728 43.517 156.809 44.0312 156.809 44.642V45.0682H151.763V44.1989H155.786C155.786 43.8295 155.712 43.5 155.564 43.2102C155.419 42.9205 155.212 42.6918 154.942 42.5241C154.675 42.3565 154.36 42.2727 153.996 42.2727C153.596 42.2727 153.249 42.3722 152.956 42.571C152.667 42.767 152.444 43.0227 152.287 43.3381C152.131 43.6534 152.053 43.9915 152.053 44.3523V44.9318C152.053 45.4261 152.138 45.8452 152.309 46.1889C152.482 46.5298 152.722 46.7898 153.029 46.9688C153.336 47.1449 153.692 47.233 154.098 47.233C154.363 47.233 154.601 47.196 154.814 47.1222C155.03 47.0455 155.216 46.9318 155.373 46.7812C155.529 46.6278 155.65 46.4375 155.735 46.2102L156.706 46.483C156.604 46.8125 156.432 47.1023 156.191 47.3523C155.949 47.5994 155.651 47.7926 155.296 47.9318C154.941 48.0682 154.542 48.1364 154.098 48.1364ZM164.185 48.1364C163.64 48.1364 163.158 47.9986 162.74 47.723C162.323 47.4446 161.996 47.0526 161.76 46.5469C161.525 46.0384 161.407 45.4375 161.407 44.7443C161.407 44.0568 161.525 43.4602 161.76 42.9545C161.996 42.4489 162.324 42.0582 162.745 41.7827C163.165 41.5071 163.651 41.3693 164.202 41.3693C164.628 41.3693 164.965 41.4403 165.212 41.5824C165.462 41.7216 165.652 41.8807 165.783 42.0597C165.917 42.2358 166.02 42.3807 166.094 42.4943H166.179V39.2727H167.185V48H166.213V46.9943H166.094C166.02 47.1136 165.915 47.2642 165.779 47.446C165.642 47.625 165.448 47.7855 165.195 47.9276C164.942 48.0668 164.605 48.1364 164.185 48.1364ZM164.321 47.233C164.725 47.233 165.066 47.1278 165.344 46.9176C165.623 46.7045 165.834 46.4105 165.979 46.0355C166.124 45.6577 166.196 45.2216 166.196 44.7273C166.196 44.2386 166.125 43.8111 165.983 43.4446C165.841 43.0753 165.631 42.7884 165.353 42.5838C165.074 42.3764 164.73 42.2727 164.321 42.2727C163.895 42.2727 163.54 42.3821 163.256 42.6009C162.975 42.8168 162.763 43.1108 162.621 43.483C162.482 43.8523 162.412 44.267 162.412 44.7273C162.412 45.1932 162.483 45.6165 162.625 45.9972C162.77 46.375 162.983 46.6761 163.265 46.9006C163.549 47.1222 163.901 47.233 164.321 47.233ZM171.826 48.1364C171.235 48.1364 170.716 47.9957 170.27 47.7145C169.827 47.4332 169.48 47.0398 169.23 46.5341C168.983 46.0284 168.86 45.4375 168.86 44.7614C168.86 44.0795 168.983 43.4844 169.23 42.9759C169.48 42.4673 169.827 42.0724 170.27 41.7912C170.716 41.5099 171.235 41.3693 171.826 41.3693C172.417 41.3693 172.934 41.5099 173.377 41.7912C173.823 42.0724 174.169 42.4673 174.417 42.9759C174.667 43.4844 174.792 44.0795 174.792 44.7614C174.792 45.4375 174.667 46.0284 174.417 46.5341C174.169 47.0398 173.823 47.4332 173.377 47.7145C172.934 47.9957 172.417 48.1364 171.826 48.1364ZM171.826 47.233C172.275 47.233 172.644 47.1179 172.934 46.8878C173.223 46.6577 173.438 46.3551 173.577 45.9801C173.716 45.6051 173.786 45.1989 173.786 44.7614C173.786 44.3239 173.716 43.9162 173.577 43.5384C173.438 43.1605 173.223 42.8551 172.934 42.6222C172.644 42.3892 172.275 42.2727 171.826 42.2727C171.377 42.2727 171.007 42.3892 170.718 42.6222C170.428 42.8551 170.213 43.1605 170.074 43.5384C169.935 43.9162 169.865 44.3239 169.865 44.7614C169.865 45.1989 169.935 45.6051 170.074 45.9801C170.213 46.3551 170.428 46.6577 170.718 46.8878C171.007 47.1179 171.377 47.233 171.826 47.233ZM177.656 39.2727L177.571 45.5455H176.582L176.497 39.2727H177.656ZM177.077 48.0682C176.866 48.0682 176.686 47.9929 176.536 47.8423C176.385 47.6918 176.31 47.5114 176.31 47.3011C176.31 47.0909 176.385 46.9105 176.536 46.7599C176.686 46.6094 176.866 46.5341 177.077 46.5341C177.287 46.5341 177.467 46.6094 177.618 46.7599C177.768 46.9105 177.844 47.0909 177.844 47.3011C177.844 47.4403 177.808 47.5682 177.737 47.6847C177.669 47.8011 177.577 47.8949 177.46 47.9659C177.347 48.0341 177.219 48.0682 177.077 48.0682ZM190.201 42H189.144C189.081 41.696 188.972 41.429 188.816 41.1989C188.662 40.9688 188.475 40.7756 188.253 40.6193C188.034 40.4602 187.792 40.3409 187.525 40.2614C187.257 40.1818 186.979 40.142 186.689 40.142C186.161 40.142 185.682 40.2756 185.253 40.5426C184.827 40.8097 184.488 41.2031 184.235 41.723C183.985 42.2429 183.86 42.8807 183.86 43.6364C183.86 44.392 183.985 45.0298 184.235 45.5497C184.488 46.0696 184.827 46.4631 185.253 46.7301C185.682 46.9972 186.161 47.1307 186.689 47.1307C186.979 47.1307 187.257 47.0909 187.525 47.0114C187.792 46.9318 188.034 46.8139 188.253 46.6577C188.475 46.4986 188.662 46.304 188.816 46.0739C188.972 45.8409 189.081 45.5739 189.144 45.2727H190.201C190.121 45.7187 189.976 46.1179 189.766 46.4702C189.556 46.8224 189.294 47.1222 188.982 47.3693C188.669 47.6136 188.319 47.7997 187.929 47.9276C187.543 48.0554 187.13 48.1193 186.689 48.1193C185.945 48.1193 185.283 47.9375 184.703 47.5739C184.124 47.2102 183.668 46.6932 183.336 46.0227C183.003 45.3523 182.837 44.5568 182.837 43.6364C182.837 42.7159 183.003 41.9205 183.336 41.25C183.668 40.5795 184.124 40.0625 184.703 39.6989C185.283 39.3352 185.945 39.1534 186.689 39.1534C187.13 39.1534 187.543 39.2173 187.929 39.3452C188.319 39.473 188.669 39.6605 188.982 39.9077C189.294 40.152 189.556 40.4503 189.766 40.8026C189.976 41.152 190.121 41.5511 190.201 42ZM199.272 43.6364C199.272 44.5568 199.106 45.3523 198.773 46.0227C198.441 46.6932 197.985 47.2102 197.406 47.5739C196.826 47.9375 196.164 48.1193 195.42 48.1193C194.675 48.1193 194.013 47.9375 193.434 47.5739C192.854 47.2102 192.398 46.6932 192.066 46.0227C191.734 45.3523 191.567 44.5568 191.567 43.6364C191.567 42.7159 191.734 41.9205 192.066 41.25C192.398 40.5795 192.854 40.0625 193.434 39.6989C194.013 39.3352 194.675 39.1534 195.42 39.1534C196.164 39.1534 196.826 39.3352 197.406 39.6989C197.985 40.0625 198.441 40.5795 198.773 41.25C199.106 41.9205 199.272 42.7159 199.272 43.6364ZM198.249 43.6364C198.249 42.8807 198.123 42.2429 197.87 41.723C197.62 41.2031 197.281 40.8097 196.852 40.5426C196.425 40.2756 195.948 40.142 195.42 40.142C194.891 40.142 194.413 40.2756 193.984 40.5426C193.558 40.8097 193.218 41.2031 192.965 41.723C192.715 42.2429 192.59 42.8807 192.59 43.6364C192.59 44.392 192.715 45.0298 192.965 45.5497C193.218 46.0696 193.558 46.4631 193.984 46.7301C194.413 46.9972 194.891 47.1307 195.42 47.1307C195.948 47.1307 196.425 46.9972 196.852 46.7301C197.281 46.4631 197.62 46.0696 197.87 45.5497C198.123 45.0298 198.249 44.392 198.249 43.6364ZM203.742 48H201.049V39.2727H203.862C204.708 39.2727 205.433 39.4474 206.035 39.7969C206.637 40.1435 207.099 40.642 207.42 41.2926C207.741 41.9403 207.901 42.7159 207.901 43.6193C207.901 44.5284 207.739 45.3111 207.415 45.9673C207.092 46.6207 206.62 47.1236 206.001 47.4759C205.381 47.8253 204.629 48 203.742 48ZM202.106 47.0625H203.674C204.396 47.0625 204.994 46.9233 205.468 46.6449C205.942 46.3665 206.296 45.9702 206.529 45.456C206.762 44.9418 206.879 44.3295 206.879 43.6193C206.879 42.9148 206.763 42.3082 206.533 41.7997C206.303 41.2884 205.96 40.8963 205.502 40.6236C205.045 40.348 204.475 40.2102 203.793 40.2102H202.106V47.0625ZM215.469 46.4659V40.8409H216.424V46.4659H215.469ZM213.134 44.1307V43.1761H218.759V44.1307H213.134ZM227.113 41.4545V42.3068H223.584V41.4545H227.113ZM224.641 48V40.5511C224.641 40.1761 224.729 39.8636 224.905 39.6136C225.081 39.3636 225.31 39.1761 225.591 39.0511C225.873 38.9261 226.169 38.8636 226.482 38.8636C226.729 38.8636 226.931 38.8835 227.087 38.9233C227.243 38.9631 227.36 39 227.436 39.0341L227.147 39.9034C227.096 39.8864 227.025 39.8651 226.934 39.8395C226.846 39.8139 226.729 39.8011 226.584 39.8011C226.252 39.8011 226.012 39.8849 225.864 40.0526C225.719 40.2202 225.647 40.4659 225.647 40.7898V48H224.641ZM228.522 48V41.4545H229.494V42.4432H229.562C229.681 42.1193 229.897 41.8565 230.21 41.6548C230.522 41.4531 230.874 41.3523 231.266 41.3523C231.34 41.3523 231.433 41.3537 231.543 41.3565C231.654 41.3594 231.738 41.3636 231.795 41.3693V42.392C231.761 42.3835 231.683 42.3707 231.56 42.3537C231.441 42.3338 231.315 42.3239 231.181 42.3239C230.863 42.3239 230.579 42.3906 230.329 42.5241C230.082 42.6548 229.886 42.8366 229.741 43.0696C229.599 43.2997 229.528 43.5625 229.528 43.858V48H228.522ZM235.532 48.1364C234.901 48.1364 234.357 47.9972 233.9 47.7188C233.445 47.4375 233.094 47.0455 232.847 46.5426C232.603 46.0369 232.481 45.4489 232.481 44.7784C232.481 44.108 232.603 43.517 232.847 43.0057C233.094 42.4915 233.438 42.0909 233.879 41.804C234.322 41.5142 234.839 41.3693 235.43 41.3693C235.771 41.3693 236.107 41.4261 236.44 41.5398C236.772 41.6534 237.075 41.8381 237.347 42.0938C237.62 42.3466 237.837 42.6818 237.999 43.0994C238.161 43.517 238.242 44.0312 238.242 44.642V45.0682H233.197V44.1989H237.219C237.219 43.8295 237.146 43.5 236.998 43.2102C236.853 42.9205 236.646 42.6918 236.376 42.5241C236.109 42.3565 235.793 42.2727 235.43 42.2727C235.029 42.2727 234.683 42.3722 234.39 42.571C234.1 42.767 233.877 43.0227 233.721 43.3381C233.565 43.6534 233.487 43.9915 233.487 44.3523V44.9318C233.487 45.4261 233.572 45.8452 233.742 46.1889C233.915 46.5298 234.156 46.7898 234.462 46.9688C234.769 47.1449 235.126 47.233 235.532 47.233C235.796 47.233 236.035 47.196 236.248 47.1222C236.464 47.0455 236.65 46.9318 236.806 46.7812C236.962 46.6278 237.083 46.4375 237.168 46.2102L238.14 46.483C238.038 46.8125 237.866 47.1023 237.624 47.3523C237.383 47.5994 237.085 47.7926 236.729 47.9318C236.374 48.0682 235.975 48.1364 235.532 48.1364ZM242.516 48.1364C241.886 48.1364 241.342 47.9972 240.884 47.7188C240.43 47.4375 240.079 47.0455 239.832 46.5426C239.587 46.0369 239.465 45.4489 239.465 44.7784C239.465 44.108 239.587 43.517 239.832 43.0057C240.079 42.4915 240.423 42.0909 240.863 41.804C241.306 41.5142 241.823 41.3693 242.414 41.3693C242.755 41.3693 243.092 41.4261 243.424 41.5398C243.756 41.6534 244.059 41.8381 244.332 42.0938C244.604 42.3466 244.822 42.6818 244.984 43.0994C245.146 43.517 245.227 44.0312 245.227 44.642V45.0682H240.181V44.1989H244.204C244.204 43.8295 244.13 43.5 243.982 43.2102C243.837 42.9205 243.63 42.6918 243.36 42.5241C243.093 42.3565 242.778 42.2727 242.414 42.2727C242.013 42.2727 241.667 42.3722 241.374 42.571C241.085 42.767 240.862 43.0227 240.705 43.3381C240.549 43.6534 240.471 43.9915 240.471 44.3523V44.9318C240.471 45.4261 240.556 45.8452 240.727 46.1889C240.9 46.5298 241.14 46.7898 241.447 46.9688C241.754 47.1449 242.11 47.233 242.516 47.233C242.781 47.233 243.019 47.196 243.232 47.1222C243.448 47.0455 243.634 46.9318 243.79 46.7812C243.947 46.6278 244.067 46.4375 244.153 46.2102L245.124 46.483C245.022 46.8125 244.85 47.1023 244.609 47.3523C244.367 47.5994 244.069 47.7926 243.714 47.9318C243.359 48.0682 242.96 48.1364 242.516 48.1364ZM254.768 42.9205L253.864 43.1761C253.808 43.0256 253.724 42.8793 253.613 42.7372C253.505 42.5923 253.357 42.473 253.17 42.3793C252.982 42.2855 252.742 42.2386 252.45 42.2386C252.049 42.2386 251.715 42.331 251.448 42.5156C251.184 42.6974 251.052 42.929 251.052 43.2102C251.052 43.4602 251.143 43.6577 251.325 43.8026C251.506 43.9474 251.79 44.0682 252.177 44.1648L253.148 44.4034C253.734 44.5455 254.17 44.7628 254.457 45.0554C254.744 45.3452 254.887 45.7187 254.887 46.1761C254.887 46.5511 254.779 46.8864 254.563 47.1818C254.35 47.4773 254.052 47.7102 253.668 47.8807C253.285 48.0511 252.839 48.1364 252.33 48.1364C251.663 48.1364 251.11 47.9915 250.673 47.7017C250.235 47.4119 249.958 46.9886 249.842 46.4318L250.796 46.1932C250.887 46.5455 251.059 46.8097 251.312 46.9858C251.567 47.1619 251.901 47.25 252.313 47.25C252.782 47.25 253.154 47.1506 253.43 46.9517C253.708 46.75 253.847 46.5085 253.847 46.2273C253.847 46 253.768 45.8097 253.609 45.6562C253.45 45.5 253.205 45.3835 252.876 45.3068L251.785 45.0511C251.185 44.9091 250.745 44.6889 250.464 44.3906C250.185 44.0895 250.046 43.7131 250.046 43.2614C250.046 42.892 250.15 42.5653 250.357 42.2812C250.567 41.9972 250.853 41.7741 251.214 41.6122C251.577 41.4503 251.989 41.3693 252.45 41.3693C253.097 41.3693 253.606 41.5114 253.975 41.7955C254.347 42.0795 254.612 42.4545 254.768 42.9205ZM257.407 44.0625V48H256.401V39.2727H257.407V42.4773H257.492C257.645 42.1392 257.875 41.8707 258.182 41.6719C258.492 41.4702 258.904 41.3693 259.418 41.3693C259.864 41.3693 260.255 41.4588 260.59 41.6378C260.925 41.8139 261.185 42.0852 261.37 42.4517C261.557 42.8153 261.651 43.2784 261.651 43.8409V48H260.645V43.9091C260.645 43.3892 260.51 42.9872 260.24 42.7031C259.973 42.4162 259.603 42.2727 259.128 42.2727C258.799 42.2727 258.503 42.3423 258.242 42.4815C257.983 42.6207 257.779 42.8239 257.628 43.0909C257.48 43.358 257.407 43.6818 257.407 44.0625ZM263.491 48V41.4545H264.496V48H263.491ZM264.002 40.3636C263.806 40.3636 263.637 40.2969 263.495 40.1634C263.356 40.0298 263.286 39.8693 263.286 39.6818C263.286 39.4943 263.356 39.3338 263.495 39.2003C263.637 39.0668 263.806 39 264.002 39C264.198 39 264.366 39.0668 264.505 39.2003C264.647 39.3338 264.718 39.4943 264.718 39.6818C264.718 39.8693 264.647 40.0298 264.505 40.1634C264.366 40.2969 264.198 40.3636 264.002 40.3636ZM266.338 50.4545V41.4545H267.31V42.4943H267.429C267.503 42.3807 267.605 42.2358 267.736 42.0597C267.87 41.8807 268.06 41.7216 268.307 41.5824C268.557 41.4403 268.895 41.3693 269.321 41.3693C269.873 41.3693 270.358 41.5071 270.779 41.7827C271.199 42.0582 271.527 42.4489 271.763 42.9545C271.999 43.4602 272.117 44.0568 272.117 44.7443C272.117 45.4375 271.999 46.0384 271.763 46.5469C271.527 47.0526 271.201 47.4446 270.783 47.723C270.365 47.9986 269.884 48.1364 269.338 48.1364C268.918 48.1364 268.581 48.0668 268.328 47.9276C268.076 47.7855 267.881 47.625 267.745 47.446C267.608 47.2642 267.503 47.1136 267.429 46.9943H267.344V50.4545H266.338ZM267.327 44.7273C267.327 45.2216 267.4 45.6577 267.544 46.0355C267.689 46.4105 267.901 46.7045 268.179 46.9176C268.458 47.1278 268.799 47.233 269.202 47.233C269.623 47.233 269.973 47.1222 270.255 46.9006C270.539 46.6761 270.752 46.375 270.894 45.9972C271.039 45.6165 271.111 45.1932 271.111 44.7273C271.111 44.267 271.04 43.8523 270.898 43.483C270.759 43.1108 270.547 42.8168 270.263 42.6009C269.982 42.3821 269.628 42.2727 269.202 42.2727C268.793 42.2727 268.449 42.3764 268.171 42.5838C267.892 42.7884 267.682 43.0753 267.54 43.4446C267.398 43.8111 267.327 44.2386 267.327 44.7273ZM273.651 50.4545V41.4545H274.623V42.4943H274.742C274.816 42.3807 274.918 42.2358 275.049 42.0597C275.182 41.8807 275.373 41.7216 275.62 41.5824C275.87 41.4403 276.208 41.3693 276.634 41.3693C277.185 41.3693 277.671 41.5071 278.091 41.7827C278.512 42.0582 278.84 42.4489 279.076 42.9545C279.311 43.4602 279.429 44.0568 279.429 44.7443C279.429 45.4375 279.311 46.0384 279.076 46.5469C278.84 47.0526 278.513 47.4446 278.096 47.723C277.678 47.9986 277.196 48.1364 276.651 48.1364C276.23 48.1364 275.894 48.0668 275.641 47.9276C275.388 47.7855 275.194 47.625 275.057 47.446C274.921 47.2642 274.816 47.1136 274.742 46.9943H274.657V50.4545H273.651ZM274.64 44.7273C274.64 45.2216 274.712 45.6577 274.857 46.0355C275.002 46.4105 275.213 46.7045 275.492 46.9176C275.77 47.1278 276.111 47.233 276.515 47.233C276.935 47.233 277.286 47.1222 277.567 46.9006C277.851 46.6761 278.064 46.375 278.206 45.9972C278.351 45.6165 278.424 45.1932 278.424 44.7273C278.424 44.267 278.353 43.8523 278.211 43.483C278.071 43.1108 277.86 42.8168 277.576 42.6009C277.294 42.3821 276.941 42.2727 276.515 42.2727C276.105 42.2727 275.762 42.3764 275.483 42.5838C275.205 42.7884 274.995 43.0753 274.853 43.4446C274.711 43.8111 274.64 44.2386 274.64 44.7273ZM280.963 48V41.4545H281.969V48H280.963ZM281.475 40.3636C281.279 40.3636 281.11 40.2969 280.968 40.1634C280.828 40.0298 280.759 39.8693 280.759 39.6818C280.759 39.4943 280.828 39.3338 280.968 39.2003C281.11 39.0668 281.279 39 281.475 39C281.671 39 281.838 39.0668 281.978 39.2003C282.12 39.3338 282.191 39.4943 282.191 39.6818C282.191 39.8693 282.12 40.0298 281.978 40.1634C281.838 40.2969 281.671 40.3636 281.475 40.3636ZM284.817 44.0625V48H283.811V41.4545H284.783V42.4773H284.868C285.021 42.1449 285.254 41.8778 285.567 41.6761C285.879 41.4716 286.283 41.3693 286.777 41.3693C287.22 41.3693 287.608 41.4602 287.94 41.642C288.273 41.821 288.531 42.0938 288.716 42.4602C288.901 42.8239 288.993 43.2841 288.993 43.8409V48H287.987V43.9091C287.987 43.3949 287.854 42.9943 287.587 42.7074C287.32 42.4176 286.953 42.2727 286.487 42.2727C286.166 42.2727 285.879 42.3423 285.626 42.4815C285.376 42.6207 285.179 42.8239 285.034 43.0909C284.889 43.358 284.817 43.6818 284.817 44.0625ZM293.473 50.5909C292.987 50.5909 292.569 50.5284 292.22 50.4034C291.87 50.2812 291.579 50.1193 291.346 49.9176C291.116 49.7188 290.933 49.5057 290.797 49.2784L291.598 48.7159C291.689 48.8352 291.804 48.9716 291.943 49.125C292.082 49.2812 292.272 49.4162 292.514 49.5298C292.758 49.6463 293.078 49.7045 293.473 49.7045C294.001 49.7045 294.437 49.5767 294.781 49.321C295.125 49.0653 295.297 48.6648 295.297 48.1193V46.7898H295.211C295.137 46.9091 295.032 47.0568 294.896 47.233C294.762 47.4062 294.569 47.5611 294.316 47.6974C294.066 47.831 293.728 47.8977 293.302 47.8977C292.774 47.8977 292.299 47.7727 291.879 47.5227C291.461 47.2727 291.13 46.9091 290.886 46.4318C290.645 45.9545 290.524 45.375 290.524 44.6932C290.524 44.0227 290.642 43.4389 290.877 42.9418C291.113 42.4418 291.441 42.0554 291.862 41.7827C292.282 41.5071 292.768 41.3693 293.319 41.3693C293.745 41.3693 294.083 41.4403 294.333 41.5824C294.586 41.7216 294.779 41.8807 294.913 42.0597C295.049 42.2358 295.154 42.3807 295.228 42.4943H295.331V41.4545H296.302V48.1875C296.302 48.75 296.174 49.2074 295.919 49.5597C295.666 49.9148 295.325 50.1747 294.896 50.3395C294.47 50.5071 293.995 50.5909 293.473 50.5909ZM293.439 46.9943C293.842 46.9943 294.183 46.902 294.461 46.7173C294.74 46.5327 294.951 46.267 295.096 45.9205C295.241 45.5739 295.314 45.1591 295.314 44.6761C295.314 44.2045 295.243 43.7884 295.1 43.4276C294.958 43.0668 294.748 42.7841 294.47 42.5795C294.191 42.375 293.848 42.2727 293.439 42.2727C293.012 42.2727 292.657 42.3807 292.373 42.5966C292.092 42.8125 291.88 43.1023 291.738 43.4659C291.599 43.8295 291.529 44.233 291.529 44.6761C291.529 45.1307 291.6 45.5327 291.743 45.8821C291.887 46.2287 292.1 46.5014 292.382 46.7003C292.666 46.8963 293.018 46.9943 293.439 46.9943ZM301.518 48V41.4545H302.524V48H301.518ZM302.029 40.3636C301.833 40.3636 301.664 40.2969 301.522 40.1634C301.383 40.0298 301.314 39.8693 301.314 39.6818C301.314 39.4943 301.383 39.3338 301.522 39.2003C301.664 39.0668 301.833 39 302.029 39C302.225 39 302.393 39.0668 302.532 39.2003C302.674 39.3338 302.745 39.4943 302.745 39.6818C302.745 39.8693 302.674 40.0298 302.532 40.1634C302.393 40.2969 302.225 40.3636 302.029 40.3636ZM307.281 41.4545V42.3068H303.752V41.4545H307.281ZM304.809 48V40.5511C304.809 40.1761 304.897 39.8636 305.073 39.6136C305.249 39.3636 305.478 39.1761 305.759 39.0511C306.04 38.9261 306.337 38.8636 306.65 38.8636C306.897 38.8636 307.099 38.8835 307.255 38.9233C307.411 38.9631 307.528 39 307.604 39.0341L307.315 39.9034C307.263 39.8864 307.192 39.8651 307.102 39.8395C307.013 39.8139 306.897 39.8011 306.752 39.8011C306.42 39.8011 306.18 39.8849 306.032 40.0526C305.887 40.2202 305.815 40.4659 305.815 40.7898V48H304.809ZM312.713 50.4545C312.542 50.4545 312.39 50.4403 312.257 50.4119C312.123 50.3864 312.031 50.3608 311.98 50.3352L312.235 49.4489C312.48 49.5114 312.696 49.5341 312.883 49.517C313.071 49.5 313.237 49.4162 313.382 49.2656C313.529 49.1179 313.664 48.8778 313.787 48.5455L313.974 48.0341L311.554 41.4545H312.645L314.451 46.6705H314.52L316.326 41.4545H317.417L314.639 48.9545C314.514 49.2926 314.359 49.5724 314.174 49.794C313.99 50.0185 313.775 50.1847 313.531 50.2926C313.289 50.4006 313.017 50.4545 312.713 50.4545ZM321.169 48.1364C320.578 48.1364 320.06 47.9957 319.614 47.7145C319.171 47.4332 318.824 47.0398 318.574 46.5341C318.327 46.0284 318.203 45.4375 318.203 44.7614C318.203 44.0795 318.327 43.4844 318.574 42.9759C318.824 42.4673 319.171 42.0724 319.614 41.7912C320.06 41.5099 320.578 41.3693 321.169 41.3693C321.76 41.3693 322.277 41.5099 322.721 41.7912C323.167 42.0724 323.513 42.4673 323.76 42.9759C324.01 43.4844 324.135 44.0795 324.135 44.7614C324.135 45.4375 324.01 46.0284 323.76 46.5341C323.513 47.0398 323.167 47.4332 322.721 47.7145C322.277 47.9957 321.76 48.1364 321.169 48.1364ZM321.169 47.233C321.618 47.233 321.988 47.1179 322.277 46.8878C322.567 46.6577 322.782 46.3551 322.921 45.9801C323.06 45.6051 323.13 45.1989 323.13 44.7614C323.13 44.3239 323.06 43.9162 322.921 43.5384C322.782 43.1605 322.567 42.8551 322.277 42.6222C321.988 42.3892 321.618 42.2727 321.169 42.2727C320.721 42.2727 320.351 42.3892 320.061 42.6222C319.772 42.8551 319.557 43.1605 319.418 43.5384C319.279 43.9162 319.209 44.3239 319.209 44.7614C319.209 45.1989 319.279 45.6051 319.418 45.9801C319.557 46.3551 319.772 46.6577 320.061 46.8878C320.351 47.1179 320.721 47.233 321.169 47.233ZM329.795 45.3239V41.4545H330.801V48H329.795V46.892H329.727C329.574 47.2244 329.335 47.5071 329.011 47.7401C328.688 47.9702 328.278 48.0852 327.784 48.0852C327.375 48.0852 327.011 47.9957 326.693 47.8168C326.375 47.6349 326.125 47.3622 325.943 46.9986C325.761 46.6321 325.67 46.1705 325.67 45.6136V41.4545H326.676V45.5455C326.676 46.0227 326.81 46.4034 327.077 46.6875C327.347 46.9716 327.69 47.1136 328.108 47.1136C328.358 47.1136 328.612 47.0497 328.871 46.9219C329.132 46.794 329.351 46.598 329.527 46.3338C329.706 46.0696 329.795 45.733 329.795 45.3239ZM75.5625 67.5909C75.0767 67.5909 74.6591 67.5284 74.3097 67.4034C73.9602 67.2812 73.669 67.1193 73.4361 66.9176C73.206 66.7188 73.0227 66.5057 72.8864 66.2784L73.6875 65.7159C73.7784 65.8352 73.8935 65.9716 74.0327 66.125C74.1719 66.2812 74.3622 66.4162 74.6037 66.5298C74.848 66.6463 75.1676 66.7045 75.5625 66.7045C76.0909 66.7045 76.527 66.5767 76.8707 66.321C77.2145 66.0653 77.3864 65.6648 77.3864 65.1193V63.7898H77.3011C77.2273 63.9091 77.1222 64.0568 76.9858 64.233C76.8523 64.4062 76.6591 64.5611 76.4062 64.6974C76.1562 64.831 75.8182 64.8977 75.392 64.8977C74.8636 64.8977 74.3892 64.7727 73.9688 64.5227C73.5511 64.2727 73.2202 63.9091 72.9759 63.4318C72.7344 62.9545 72.6136 62.375 72.6136 61.6932C72.6136 61.0227 72.7315 60.4389 72.9673 59.9418C73.2031 59.4418 73.5313 59.0554 73.9517 58.7827C74.3722 58.5071 74.858 58.3693 75.4091 58.3693C75.8352 58.3693 76.1733 58.4403 76.4233 58.5824C76.6761 58.7216 76.8693 58.8807 77.0028 59.0597C77.1392 59.2358 77.2443 59.3807 77.3182 59.4943H77.4205V58.4545H78.392V65.1875C78.392 65.75 78.2642 66.2074 78.0085 66.5597C77.7557 66.9148 77.4148 67.1747 76.9858 67.3395C76.5597 67.5071 76.0852 67.5909 75.5625 67.5909ZM75.5284 63.9943C75.9318 63.9943 76.2727 63.902 76.5511 63.7173C76.8295 63.5327 77.0412 63.267 77.1861 62.9205C77.331 62.5739 77.4034 62.1591 77.4034 61.6761C77.4034 61.2045 77.3324 60.7884 77.1903 60.4276C77.0483 60.0668 76.8381 59.7841 76.5597 59.5795C76.2813 59.375 75.9375 59.2727 75.5284 59.2727C75.1023 59.2727 74.7472 59.3807 74.4631 59.5966C74.1818 59.8125 73.9702 60.1023 73.8281 60.4659C73.6889 60.8295 73.6193 61.233 73.6193 61.6761C73.6193 62.1307 73.6903 62.5327 73.8324 62.8821C73.9773 63.2287 74.1903 63.5014 74.4716 63.7003C74.7557 63.8963 75.108 63.9943 75.5284 63.9943ZM80.233 65V58.4545H81.2045V59.4432H81.2727C81.392 59.1193 81.608 58.8565 81.9205 58.6548C82.233 58.4531 82.5852 58.3523 82.9773 58.3523C83.0511 58.3523 83.1435 58.3537 83.2543 58.3565C83.3651 58.3594 83.4489 58.3636 83.5057 58.3693V59.392C83.4716 59.3835 83.3935 59.3707 83.2713 59.3537C83.152 59.3338 83.0256 59.3239 82.892 59.3239C82.5739 59.3239 82.2898 59.3906 82.0398 59.5241C81.7926 59.6548 81.5966 59.8366 81.4517 60.0696C81.3097 60.2997 81.2386 60.5625 81.2386 60.858V65H80.233ZM86.6239 65.1534C86.2092 65.1534 85.8327 65.0753 85.4947 64.919C85.1566 64.7599 84.8881 64.5312 84.6893 64.233C84.4904 63.9318 84.391 63.5682 84.391 63.142C84.391 62.767 84.4648 62.4631 84.6126 62.2301C84.7603 61.9943 84.9577 61.8097 85.2049 61.6761C85.4521 61.5426 85.7248 61.4432 86.0231 61.3778C86.3242 61.3097 86.6268 61.2557 86.9308 61.2159C87.3285 61.1648 87.6509 61.1264 87.8981 61.1009C88.1481 61.0724 88.3299 61.0256 88.4435 60.9602C88.56 60.8949 88.6183 60.7812 88.6183 60.6193V60.5852C88.6183 60.1648 88.5032 59.8381 88.2731 59.6051C88.0458 59.3722 87.7006 59.2557 87.2376 59.2557C86.7575 59.2557 86.381 59.3608 86.1083 59.571C85.8356 59.7812 85.6438 60.0057 85.533 60.2443L84.5785 59.9034C84.7489 59.5057 84.9762 59.196 85.2603 58.9744C85.5472 58.75 85.8597 58.5937 86.1978 58.5057C86.5387 58.4148 86.8739 58.3693 87.2035 58.3693C87.4137 58.3693 87.6552 58.3949 87.9279 58.446C88.2035 58.4943 88.4691 58.5952 88.7248 58.7486C88.9833 58.902 89.1978 59.1335 89.3683 59.4432C89.5387 59.7528 89.6239 60.1676 89.6239 60.6875V65H88.6183V64.1136H88.5671C88.4989 64.2557 88.3853 64.4077 88.2262 64.5696C88.0671 64.7315 87.8555 64.8693 87.5913 64.983C87.3271 65.0966 87.0046 65.1534 86.6239 65.1534ZM86.7773 64.25C87.1751 64.25 87.5103 64.1719 87.783 64.0156C88.0586 63.8594 88.266 63.6577 88.4052 63.4105C88.5472 63.1634 88.6183 62.9034 88.6183 62.6307V61.7102C88.5756 61.7614 88.4819 61.8082 88.337 61.8509C88.195 61.8906 88.0302 61.9261 87.8427 61.9574C87.658 61.9858 87.4776 62.0114 87.3015 62.0341C87.1282 62.054 86.9876 62.071 86.8796 62.0852C86.6183 62.1193 86.3739 62.1747 86.1467 62.2514C85.9222 62.3253 85.7404 62.4375 85.6012 62.5881C85.4648 62.7358 85.3967 62.9375 85.3967 63.1932C85.3967 63.5426 85.5259 63.8068 85.7844 63.9858C86.0458 64.1619 86.3768 64.25 86.7773 64.25ZM91.5959 65V56.2727H92.6016V59.4943H92.6868C92.7607 59.3807 92.8629 59.2358 92.9936 59.0597C93.1271 58.8807 93.3175 58.7216 93.5646 58.5824C93.8146 58.4403 94.1527 58.3693 94.5788 58.3693C95.13 58.3693 95.6158 58.5071 96.0362 58.7827C96.4567 59.0582 96.7848 59.4489 97.0206 59.9545C97.2564 60.4602 97.3743 61.0568 97.3743 61.7443C97.3743 62.4375 97.2564 63.0384 97.0206 63.5469C96.7848 64.0526 96.4581 64.4446 96.0405 64.723C95.6229 64.9986 95.1413 65.1364 94.5959 65.1364C94.1754 65.1364 93.8388 65.0668 93.5859 64.9276C93.3331 64.7855 93.1385 64.625 93.0021 64.446C92.8658 64.2642 92.7607 64.1136 92.6868 63.9943H92.5675V65H91.5959ZM92.5845 61.7273C92.5845 62.2216 92.657 62.6577 92.8018 63.0355C92.9467 63.4105 93.1584 63.7045 93.4368 63.9176C93.7152 64.1278 94.0561 64.233 94.4595 64.233C94.88 64.233 95.2308 64.1222 95.5121 63.9006C95.7962 63.6761 96.0092 63.375 96.1513 62.9972C96.2962 62.6165 96.3686 62.1932 96.3686 61.7273C96.3686 61.267 96.2976 60.8523 96.1555 60.483C96.0163 60.1108 95.8047 59.8168 95.5206 59.6009C95.2393 59.3821 94.8857 59.2727 94.4595 59.2727C94.0504 59.2727 93.7067 59.3764 93.4283 59.5838C93.1499 59.7884 92.9396 60.0753 92.7976 60.4446C92.6555 60.8111 92.5845 61.2386 92.5845 61.7273ZM102.288 65V58.4545H103.293V65H102.288ZM102.799 57.3636C102.603 57.3636 102.434 57.2969 102.292 57.1634C102.153 57.0298 102.083 56.8693 102.083 56.6818C102.083 56.4943 102.153 56.3338 102.292 56.2003C102.434 56.0668 102.603 56 102.799 56C102.995 56 103.163 56.0668 103.302 56.2003C103.444 56.3338 103.515 56.4943 103.515 56.6818C103.515 56.8693 103.444 57.0298 103.302 57.1634C103.163 57.2969 102.995 57.3636 102.799 57.3636ZM107.982 58.4545V59.3068H104.59V58.4545H107.982ZM105.578 56.8864H106.584V63.125C106.584 63.4091 106.625 63.6222 106.708 63.7642C106.793 63.9034 106.901 63.9972 107.032 64.0455C107.165 64.0909 107.306 64.1136 107.453 64.1136C107.564 64.1136 107.655 64.108 107.726 64.0966C107.797 64.0824 107.854 64.071 107.897 64.0625L108.101 64.9659C108.033 64.9915 107.938 65.017 107.816 65.0426C107.694 65.071 107.539 65.0852 107.351 65.0852C107.067 65.0852 106.789 65.0241 106.516 64.902C106.246 64.7798 106.022 64.5938 105.843 64.3438C105.667 64.0938 105.578 63.7784 105.578 63.3977V56.8864ZM115.716 58.4545V59.3068H112.324V58.4545H115.716ZM113.313 56.8864H114.319V63.125C114.319 63.4091 114.36 63.6222 114.442 63.7642C114.527 63.9034 114.635 63.9972 114.766 64.0455C114.9 64.0909 115.04 64.1136 115.188 64.1136C115.299 64.1136 115.39 64.108 115.461 64.0966C115.532 64.0824 115.588 64.071 115.631 64.0625L115.836 64.9659C115.767 64.9915 115.672 65.017 115.55 65.0426C115.428 65.071 115.273 65.0852 115.086 65.0852C114.801 65.0852 114.523 65.0241 114.25 64.902C113.98 64.7798 113.756 64.5938 113.577 64.3438C113.401 64.0938 113.313 63.7784 113.313 63.3977V56.8864ZM119.818 65.1364C119.227 65.1364 118.708 64.9957 118.262 64.7145C117.819 64.4332 117.473 64.0398 117.223 63.5341C116.975 63.0284 116.852 62.4375 116.852 61.7614C116.852 61.0795 116.975 60.4844 117.223 59.9759C117.473 59.4673 117.819 59.0724 118.262 58.7912C118.708 58.5099 119.227 58.3693 119.818 58.3693C120.409 58.3693 120.926 58.5099 121.369 58.7912C121.815 59.0724 122.162 59.4673 122.409 59.9759C122.659 60.4844 122.784 61.0795 122.784 61.7614C122.784 62.4375 122.659 63.0284 122.409 63.5341C122.162 64.0398 121.815 64.4332 121.369 64.7145C120.926 64.9957 120.409 65.1364 119.818 65.1364ZM119.818 64.233C120.267 64.233 120.636 64.1179 120.926 63.8878C121.216 63.6577 121.43 63.3551 121.569 62.9801C121.708 62.6051 121.778 62.1989 121.778 61.7614C121.778 61.3239 121.708 60.9162 121.569 60.5384C121.43 60.1605 121.216 59.8551 120.926 59.6222C120.636 59.3892 120.267 59.2727 119.818 59.2727C119.369 59.2727 119 59.3892 118.71 59.6222C118.42 59.8551 118.206 60.1605 118.066 60.5384C117.927 60.9162 117.858 61.3239 117.858 61.7614C117.858 62.1989 117.927 62.6051 118.066 62.9801C118.206 63.3551 118.42 63.6577 118.71 63.8878C119 64.1179 119.369 64.233 119.818 64.233ZM126.79 65.1364C126.245 65.1364 125.763 64.9986 125.346 64.723C124.928 64.4446 124.602 64.0526 124.366 63.5469C124.13 63.0384 124.012 62.4375 124.012 61.7443C124.012 61.0568 124.13 60.4602 124.366 59.9545C124.602 59.4489 124.93 59.0582 125.35 58.7827C125.771 58.5071 126.256 58.3693 126.808 58.3693C127.234 58.3693 127.57 58.4403 127.817 58.5824C128.067 58.7216 128.258 58.8807 128.388 59.0597C128.522 59.2358 128.626 59.3807 128.7 59.4943H128.785V56.2727H129.79V65H128.819V63.9943H128.7C128.626 64.1136 128.521 64.2642 128.384 64.446C128.248 64.625 128.053 64.7855 127.8 64.9276C127.548 65.0668 127.211 65.1364 126.79 65.1364ZM126.927 64.233C127.33 64.233 127.671 64.1278 127.95 63.9176C128.228 63.7045 128.44 63.4105 128.585 63.0355C128.729 62.6577 128.802 62.2216 128.802 61.7273C128.802 61.2386 128.731 60.8111 128.589 60.4446C128.447 60.0753 128.237 59.7884 127.958 59.5838C127.68 59.3764 127.336 59.2727 126.927 59.2727C126.501 59.2727 126.146 59.3821 125.862 59.6009C125.58 59.8168 125.369 60.1108 125.227 60.483C125.087 60.8523 125.018 61.267 125.018 61.7273C125.018 62.1932 125.089 62.6165 125.231 62.9972C125.376 63.375 125.589 63.6761 125.87 63.9006C126.154 64.1222 126.506 64.233 126.927 64.233ZM133.698 65.1534C133.283 65.1534 132.907 65.0753 132.569 64.919C132.231 64.7599 131.962 64.5312 131.763 64.233C131.565 63.9318 131.465 63.5682 131.465 63.142C131.465 62.767 131.539 62.4631 131.687 62.2301C131.835 61.9943 132.032 61.8097 132.279 61.6761C132.526 61.5426 132.799 61.4432 133.097 61.3778C133.398 61.3097 133.701 61.2557 134.005 61.2159C134.403 61.1648 134.725 61.1264 134.972 61.1009C135.222 61.0724 135.404 61.0256 135.518 60.9602C135.634 60.8949 135.692 60.7812 135.692 60.6193V60.5852C135.692 60.1648 135.577 59.8381 135.347 59.6051C135.12 59.3722 134.775 59.2557 134.312 59.2557C133.832 59.2557 133.455 59.3608 133.183 59.571C132.91 59.7812 132.718 60.0057 132.607 60.2443L131.653 59.9034C131.823 59.5057 132.05 59.196 132.335 58.9744C132.621 58.75 132.934 58.5937 133.272 58.5057C133.613 58.4148 133.948 58.3693 134.278 58.3693C134.488 58.3693 134.729 58.3949 135.002 58.446C135.278 58.4943 135.543 58.5952 135.799 58.7486C136.058 58.902 136.272 59.1335 136.442 59.4432C136.613 59.7528 136.698 60.1676 136.698 60.6875V65H135.692V64.1136H135.641C135.573 64.2557 135.46 64.4077 135.3 64.5696C135.141 64.7315 134.93 64.8693 134.665 64.983C134.401 65.0966 134.079 65.1534 133.698 65.1534ZM133.852 64.25C134.249 64.25 134.585 64.1719 134.857 64.0156C135.133 63.8594 135.34 63.6577 135.479 63.4105C135.621 63.1634 135.692 62.9034 135.692 62.6307V61.7102C135.65 61.7614 135.556 61.8082 135.411 61.8509C135.269 61.8906 135.104 61.9261 134.917 61.9574C134.732 61.9858 134.552 62.0114 134.376 62.0341C134.202 62.054 134.062 62.071 133.954 62.0852C133.692 62.1193 133.448 62.1747 133.221 62.2514C132.996 62.3253 132.815 62.4375 132.675 62.5881C132.539 62.7358 132.471 62.9375 132.471 63.1932C132.471 63.5426 132.6 63.8068 132.859 63.9858C133.12 64.1619 133.451 64.25 133.852 64.25ZM138.947 67.4545C138.777 67.4545 138.625 67.4403 138.491 67.4119C138.358 67.3864 138.265 67.3608 138.214 67.3352L138.47 66.4489C138.714 66.5114 138.93 66.5341 139.118 66.517C139.305 66.5 139.471 66.4162 139.616 66.2656C139.764 66.1179 139.899 65.8778 140.021 65.5455L140.208 65.0341L137.788 58.4545H138.879L140.686 63.6705H140.754L142.561 58.4545H143.652L140.873 65.9545C140.748 66.2926 140.593 66.5724 140.409 66.794C140.224 67.0185 140.01 67.1847 139.765 67.2926C139.524 67.4006 139.251 67.4545 138.947 67.4545Z" fill="white"/>
<g clip-path="url(#clip0_337_27544)">
<path d="M148.406 58.3593H148.078V55.7802C148.081 55.101 148.188 53.8815 149.346 53.6146C149.753 53.5205 150.085 53.5774 150.359 53.783C150.878 54.1724 150.915 54.9041 150.918 54.9369V57.1551H150.594V54.9982C150.594 54.9982 150.537 54.3507 150.147 54.0608C149.959 53.9197 149.705 53.8836 149.403 53.9536C148.925 54.0641 148.636 54.3769 148.488 54.914C148.371 55.3383 148.422 55.789 148.406 55.7726V58.3593Z" fill="#ED6C30"/>
<path d="M146.959 57.2307L151.736 55.95L152.477 56.195L153.345 56.1282L149.082 57.3467L146.959 57.2307Z" fill="#ED6C30"/>
<path d="M149.429 66.2202L148.319 65.8231C148.253 65.8002 148.182 65.7969 148.115 65.8144L147.281 66.0331C147.122 66.0747 146.966 65.9544 146.966 65.7903V57.212L148.603 57.1388C148.644 57.1366 148.684 57.1453 148.721 57.1639L149.082 57.3466L149.429 66.2202Z" fill="#FBC21A"/>
<path d="M149.082 57.3465V65.8722C149.082 66.1129 149.319 66.2802 149.546 66.2004L153.113 64.936C153.18 64.912 153.239 64.8676 153.281 64.8088C153.322 64.75 153.345 64.6798 153.344 64.6079V56.1226L149.082 57.3465Z" fill="#F79329"/>
<path d="M149.828 58.6876H149.5V56.3087C149.5 56.2409 149.487 55.694 149.626 55.1078C149.828 54.2579 150.293 53.7406 150.952 53.6126C151.419 53.5218 151.801 53.5973 152.078 53.839C152.576 54.2721 152.541 55.0684 152.538 55.1023L152.542 58.0314H152.234V55.0957C152.234 55.0804 152.243 54.4187 151.873 54.0982C151.681 53.932 151.393 53.8828 151.038 53.9517C149.768 54.1989 149.827 56.2814 149.828 56.3032V58.6876Z" fill="#F79329"/>
<path d="M152.226 59.2802L150.631 59.7899C150.595 59.8004 150.556 59.8023 150.519 59.7955C150.482 59.7887 150.447 59.7734 150.417 59.7507C150.386 59.728 150.362 59.6985 150.345 59.6647C150.328 59.6309 150.319 59.5937 150.319 59.5558V59.1435C150.319 59.0352 150.391 58.939 150.495 58.9094L152.09 58.3998C152.126 58.3892 152.165 58.3873 152.202 58.3941C152.239 58.4009 152.274 58.4163 152.304 58.439C152.334 58.4617 152.359 58.4911 152.376 58.5249C152.393 58.5587 152.402 58.596 152.402 58.6338V59.0462C152.402 59.1544 152.33 59.2496 152.226 59.2802Z" fill="#FBC21A"/>
<path d="M158.697 66.1916H152.658C152.377 66.1916 152.117 66.0145 152.117 65.7334V58.041H159.234V65.7334C159.234 66.0145 158.978 66.1916 158.697 66.1916Z" fill="#BDCF46"/>
<path d="M159.229 64.282V65.7312C159.229 66.0134 158.973 66.1906 158.691 66.1906H152.652C152.371 66.1906 152.112 66.0134 152.112 65.7312V64.282H159.229Z" fill="#95AD32"/>
<path d="M152.117 56.8752H159.232V58.0412H152.117V56.8752Z" fill="#454C29"/>
<path d="M152.622 57.1672L152.903 57.3301C153.002 57.3881 153.002 57.5314 152.903 57.5893L152.623 57.7512L152.117 58.0422L152.116 57.4592L152.115 56.8762L152.622 57.1672ZM158.727 57.1672L158.447 57.329C158.424 57.3423 158.405 57.3613 158.392 57.3843C158.378 57.4072 158.371 57.4332 158.371 57.4597C158.371 57.4862 158.378 57.5123 158.392 57.5352C158.405 57.5581 158.424 57.5772 158.447 57.5904L158.726 57.7512L159.231 58.0422L159.232 57.4592L159.233 56.8762L158.727 57.1672Z" fill="#757F3F"/>
<path d="M157.78 56.9199H157.415V55.9038C157.415 54.9413 156.629 54.1571 155.662 54.1571C154.695 54.1571 153.909 54.9402 153.909 55.9038V56.9199H153.545V55.9038C153.545 54.74 154.494 53.7939 155.662 53.7939C156.83 53.7939 157.78 54.74 157.78 55.9038V56.9199Z" fill="#454C29"/>
<path d="M149.081 64.6735V64.3126L152.113 63.2888V63.6465L149.081 64.6735Z" fill="#FBC21A"/>
<path d="M152.645 58.04H153.186V64.2821H152.645V58.04ZM154.845 58.04H155.387V64.2821H154.845V58.04ZM155.945 58.04H156.487V64.2821H155.945V58.04ZM157.046 58.04H157.587V64.2821H157.046V58.04ZM153.745 58.04H154.286V64.2821H153.745V58.04ZM158.146 58.04H158.688V64.2821H158.146V58.04Z" fill="#95AD32"/>
<path d="M157.68 58.9455H157.333V56.933C157.333 56.0154 156.583 55.2683 155.662 55.2683C154.741 55.2683 153.991 56.0154 153.991 56.933V58.9466H153.644V56.933C153.644 55.824 154.55 54.9216 155.662 54.9216C156.774 54.9216 157.68 55.824 157.68 56.933V58.9455Z" fill="#757F3F"/>
<path d="M153.797 59.3995C153.973 59.3995 154.116 59.257 154.116 59.0812C154.116 58.9054 153.973 58.7629 153.797 58.7629C153.622 58.7629 153.479 58.9054 153.479 59.0812C153.479 59.257 153.622 59.3995 153.797 59.3995Z" fill="#757F3F"/>
<path d="M157.498 59.4094C157.679 59.4094 157.826 59.2625 157.826 59.0813C157.826 58.9001 157.679 58.7532 157.498 58.7532C157.316 58.7532 157.169 58.9001 157.169 59.0813C157.169 59.2625 157.316 59.4094 157.498 59.4094Z" fill="#757F3F"/>
</g>
<path d="M53.3438 30.5469H47.9844V25.1875C47.9844 24.1722 47.5811 23.1985 46.8631 22.4806C46.1452 21.7627 45.1715 21.3594 44.1562 21.3594H19.6562C18.641 21.3594 17.6673 21.7627 16.9494 22.4806C16.2314 23.1985 15.8281 24.1722 15.8281 25.1875V49.6875C15.8283 50.121 15.9512 50.5456 16.1825 50.9122C16.4138 51.2788 16.7441 51.5724 17.1353 51.7592C17.5265 51.946 17.9625 52.0182 18.3931 51.9677C18.8236 51.9171 19.231 51.7457 19.5682 51.4733L25.0156 47.071V51.2187C25.0156 52.234 25.4189 53.2077 26.1369 53.9256C26.8548 54.6436 27.8285 55.0469 28.8438 55.0469H46.4857L53.4318 60.6608C53.769 60.9332 54.1764 61.1046 54.607 61.1552C55.0375 61.2057 55.4735 61.1335 55.8647 60.9467C56.2559 60.7599 56.5862 60.4663 56.8175 60.0997C57.0488 59.7331 57.1717 59.3085 57.1719 58.875V34.375C57.1719 33.3597 56.7686 32.386 56.0506 31.6681C55.3327 30.9502 54.359 30.5469 53.3438 30.5469ZM20.4219 44.8775V25.9531H43.3906V41.2656H25.7009C25.1729 41.2642 24.6605 41.4446 24.25 41.7767L20.4219 44.8775ZM52.5781 54.065L48.75 50.9642C48.3415 50.6338 47.8322 50.4534 47.3068 50.4531H29.6094V45.8594H44.1562C45.1715 45.8594 46.1452 45.4561 46.8631 44.7381C47.5811 44.0202 47.9844 43.0465 47.9844 42.0312V35.1406H52.5781V54.065Z" fill="url(#paint1_linear_337_27544)"/>
<defs>
<linearGradient id="paint0_linear_337_27544" x1="8.50694" y1="6.34337" x2="155.728" y2="108.715" gradientUnits="userSpaceOnUse">
<stop stop-color="#1F1E21"/>
<stop offset="1" stop-color="#131216"/>
</linearGradient>
<linearGradient id="paint1_linear_337_27544" x1="36.5" y1="21.3594" x2="36.5" y2="61.1709" gradientUnits="userSpaceOnUse">
<stop stop-color="#3CC38C"/>
<stop offset="1" stop-color="#0098A5"/>
</linearGradient>
<clipPath id="clip0_337_27544">
<rect width="14" height="14" fill="white" transform="translate(146 53)"/>
</clipPath>
</defs>
</svg>
