<svg width="380" height="81" viewBox="0 0 380 81" fill="none" xmlns="http://www.w3.org/2000/svg">
<rect x="0.5" y="0.5" width="379" height="80" rx="9.5" fill="url(#paint0_linear_336_27536)" stroke="#303030"/>
<path d="M74.2628 27H72.2855L75.2983 18.2727H77.6761L80.6847 27H78.7074L76.5213 20.267H76.4531L74.2628 27ZM74.1392 23.5696H78.8097V25.0099H74.1392V23.5696ZM81.701 27V20.4545H83.4609V21.5966H83.5291C83.6484 21.1903 83.8487 20.8835 84.13 20.6761C84.4112 20.4659 84.7351 20.3608 85.1016 20.3608C85.1925 20.3608 85.2905 20.3665 85.3956 20.3778C85.5007 20.3892 85.593 20.4048 85.6726 20.4247V22.0355C85.5874 22.0099 85.4695 21.9872 85.3189 21.9673C85.1683 21.9474 85.0305 21.9375 84.9055 21.9375C84.6385 21.9375 84.3999 21.9957 84.1896 22.1122C83.9822 22.2259 83.8175 22.3849 83.6953 22.5895C83.576 22.794 83.5163 23.0298 83.5163 23.2969V27H81.701ZM89.2638 27.1278C88.6019 27.1278 88.0295 26.9872 87.5465 26.706C87.0664 26.4219 86.6957 26.027 86.4343 25.5213C86.1729 25.0128 86.0423 24.4233 86.0423 23.7528C86.0423 23.0767 86.1729 22.4858 86.4343 21.9801C86.6957 21.4716 87.0664 21.0767 87.5465 20.7955C88.0295 20.5114 88.6019 20.3693 89.2638 20.3693C89.9258 20.3693 90.4968 20.5114 90.9769 20.7955C91.4599 21.0767 91.832 21.4716 92.0934 21.9801C92.3548 22.4858 92.4854 23.0767 92.4854 23.7528C92.4854 24.4233 92.3548 25.0128 92.0934 25.5213C91.832 26.027 91.4599 26.4219 90.9769 26.706C90.4968 26.9872 89.9258 27.1278 89.2638 27.1278ZM89.2724 25.7216C89.5735 25.7216 89.8249 25.6364 90.0266 25.4659C90.2283 25.2926 90.3803 25.0568 90.4826 24.7585C90.5877 24.4602 90.6403 24.1207 90.6403 23.7401C90.6403 23.3594 90.5877 23.0199 90.4826 22.7216C90.3803 22.4233 90.2283 22.1875 90.0266 22.0142C89.8249 21.8409 89.5735 21.7543 89.2724 21.7543C88.9684 21.7543 88.7127 21.8409 88.5053 22.0142C88.3008 22.1875 88.146 22.4233 88.0408 22.7216C87.9386 23.0199 87.8874 23.3594 87.8874 23.7401C87.8874 24.1207 87.9386 24.4602 88.0408 24.7585C88.146 25.0568 88.3008 25.2926 88.5053 25.4659C88.7127 25.6364 88.9684 25.7216 89.2724 25.7216ZM95.4812 23.2159V27H93.6658V20.4545H95.396V21.6094H95.4727C95.6175 21.2287 95.8604 20.9276 96.2013 20.706C96.5423 20.4815 96.9556 20.3693 97.4414 20.3693C97.896 20.3693 98.2923 20.4688 98.6303 20.6676C98.9684 20.8665 99.2312 21.1506 99.4187 21.5199C99.6062 21.8864 99.6999 22.3239 99.6999 22.8324V27H97.8846V23.1562C97.8874 22.7557 97.7852 22.4432 97.5778 22.2188C97.3704 21.9915 97.0849 21.8778 96.7212 21.8778C96.4769 21.8778 96.261 21.9304 96.0735 22.0355C95.8888 22.1406 95.744 22.294 95.6388 22.4957C95.5366 22.6946 95.484 22.9347 95.4812 23.2159ZM105.907 27L103.409 18.2727H105.425L106.87 24.3366H106.942L108.536 18.2727H110.262L111.851 24.3494H111.928L113.373 18.2727H115.388L112.891 27H111.093L109.431 21.294H109.363L107.705 27H105.907ZM116.342 27V20.4545H118.157V27H116.342ZM117.254 19.6108C116.984 19.6108 116.752 19.5213 116.559 19.3423C116.369 19.1605 116.273 18.9432 116.273 18.6903C116.273 18.4403 116.369 18.2259 116.559 18.0469C116.752 17.8651 116.984 17.7741 117.254 17.7741C117.523 17.7741 117.754 17.8651 117.944 18.0469C118.137 18.2259 118.234 18.4403 118.234 18.6903C118.234 18.9432 118.137 19.1605 117.944 19.3423C117.754 19.5213 117.523 19.6108 117.254 19.6108ZM121.426 18.2727V27H119.611V18.2727H121.426ZM125.864 27.1278C125.19 27.1278 124.611 26.9915 124.125 26.7188C123.642 26.4432 123.27 26.054 123.009 25.5511C122.747 25.0455 122.616 24.4474 122.616 23.7571C122.616 23.0838 122.747 22.4929 123.009 21.9844C123.27 21.4759 123.638 21.0795 124.112 20.7955C124.589 20.5114 125.149 20.3693 125.791 20.3693C126.223 20.3693 126.625 20.4389 126.997 20.5781C127.372 20.7145 127.699 20.9205 127.977 21.196C128.259 21.4716 128.477 21.8182 128.634 22.2358C128.79 22.6506 128.868 23.1364 128.868 23.6932V24.1918H123.341V23.0668H127.159C127.159 22.8054 127.102 22.5739 126.989 22.3722C126.875 22.1705 126.717 22.0128 126.516 21.8991C126.317 21.7827 126.085 21.7244 125.821 21.7244C125.545 21.7244 125.301 21.7884 125.088 21.9162C124.878 22.0412 124.713 22.2102 124.594 22.4233C124.474 22.6335 124.413 22.8679 124.411 23.1264V24.196C124.411 24.5199 124.47 24.7997 124.589 25.0355C124.712 25.2713 124.884 25.4531 125.105 25.581C125.327 25.7088 125.589 25.7727 125.893 25.7727C126.095 25.7727 126.28 25.7443 126.447 25.6875C126.615 25.6307 126.759 25.5455 126.878 25.4318C126.997 25.3182 127.088 25.179 127.151 25.0142L128.83 25.125C128.744 25.5284 128.57 25.8807 128.305 26.1818C128.044 26.4801 127.706 26.7131 127.291 26.8807C126.879 27.0455 126.403 27.1278 125.864 27.1278ZM130.998 29.4545C130.767 29.4545 130.551 29.4361 130.35 29.3991C130.151 29.3651 129.986 29.321 129.855 29.267L130.265 27.9119C130.478 27.9773 130.669 28.0128 130.84 28.0185C131.013 28.0241 131.162 27.9844 131.287 27.8991C131.415 27.8139 131.519 27.669 131.598 27.4645L131.705 27.1875L129.357 20.4545H131.266L132.621 25.2614H132.689L134.057 20.4545H135.979L133.435 27.7074C133.313 28.0597 133.147 28.3665 132.936 28.6278C132.729 28.892 132.466 29.0952 132.148 29.2372C131.83 29.3821 131.446 29.4545 130.998 29.4545ZM137.969 27.1108C137.688 27.1108 137.446 27.0114 137.245 26.8125C137.046 26.6108 136.946 26.3693 136.946 26.0881C136.946 25.8097 137.046 25.571 137.245 25.3722C137.446 25.1733 137.688 25.0739 137.969 25.0739C138.242 25.0739 138.48 25.1733 138.685 25.3722C138.89 25.571 138.992 25.8097 138.992 26.0881C138.992 26.2756 138.944 26.4474 138.847 26.6037C138.753 26.7571 138.63 26.8807 138.476 26.9744C138.323 27.0653 138.154 27.1108 137.969 27.1108ZM137.969 22.5256C137.688 22.5256 137.446 22.4261 137.245 22.2273C137.046 22.0284 136.946 21.7869 136.946 21.5028C136.946 21.2244 137.046 20.9872 137.245 20.7912C137.446 20.5923 137.688 20.4929 137.969 20.4929C138.242 20.4929 138.48 20.5923 138.685 20.7912C138.89 20.9872 138.992 21.2244 138.992 21.5028C138.992 21.6932 138.944 21.8665 138.847 22.0227C138.753 22.1761 138.63 22.2983 138.476 22.3892C138.323 22.4801 138.154 22.5256 137.969 22.5256ZM148.365 20.4545C148.314 20.0227 148.106 19.6875 147.743 19.4489C147.379 19.2102 146.933 19.0909 146.404 19.0909C146.018 19.0909 145.68 19.1534 145.39 19.2784C145.103 19.4034 144.879 19.5753 144.717 19.794C144.558 20.0128 144.478 20.2614 144.478 20.5398C144.478 20.7727 144.534 20.973 144.645 21.1406C144.758 21.3054 144.903 21.4432 145.079 21.554C145.255 21.6619 145.44 21.7514 145.633 21.8224C145.826 21.8906 146.004 21.946 146.166 21.9886L147.052 22.2273C147.279 22.2869 147.532 22.3693 147.811 22.4744C148.092 22.5795 148.36 22.723 148.616 22.9048C148.875 23.0838 149.088 23.3139 149.255 23.5952C149.423 23.8764 149.507 24.2216 149.507 24.6307C149.507 25.1023 149.383 25.5284 149.136 25.9091C148.892 26.2898 148.534 26.5923 148.062 26.8168C147.593 27.0412 147.024 27.1534 146.353 27.1534C145.728 27.1534 145.187 27.0526 144.73 26.8509C144.275 26.6491 143.917 26.3679 143.656 26.0071C143.397 25.6463 143.251 25.2273 143.217 24.75H144.308C144.336 25.0795 144.447 25.3523 144.64 25.5682C144.836 25.7812 145.083 25.9403 145.382 26.0455C145.683 26.1477 146.007 26.1989 146.353 26.1989C146.757 26.1989 147.119 26.1335 147.44 26.0028C147.761 25.8693 148.015 25.6847 148.203 25.4489C148.39 25.2102 148.484 24.9318 148.484 24.6136C148.484 24.3239 148.403 24.0881 148.241 23.9062C148.079 23.7244 147.866 23.5767 147.602 23.4631C147.338 23.3494 147.052 23.25 146.745 23.1648L145.672 22.858C144.99 22.6619 144.45 22.3821 144.052 22.0185C143.654 21.6548 143.456 21.179 143.456 20.5909C143.456 20.1023 143.588 19.6761 143.852 19.3125C144.119 18.946 144.477 18.6619 144.926 18.4602C145.377 18.2557 145.882 18.1534 146.439 18.1534C147.001 18.1534 147.501 18.2543 147.939 18.456C148.376 18.6548 148.723 18.9276 148.978 19.2741C149.237 19.6207 149.373 20.0142 149.387 20.4545H148.365ZM152.114 23.0625V27H151.108V18.2727H152.114V21.4773H152.199C152.352 21.1392 152.582 20.8707 152.889 20.6719C153.199 20.4702 153.611 20.3693 154.125 20.3693C154.571 20.3693 154.962 20.4588 155.297 20.6378C155.632 20.8139 155.892 21.0852 156.077 21.4517C156.264 21.8153 156.358 22.2784 156.358 22.8409V27H155.352V22.9091C155.352 22.3892 155.217 21.9872 154.947 21.7031C154.68 21.4162 154.31 21.2727 153.835 21.2727C153.506 21.2727 153.21 21.3423 152.949 21.4815C152.69 21.6207 152.486 21.8239 152.335 22.0909C152.188 22.358 152.114 22.6818 152.114 23.0625ZM160.857 27.1364C160.266 27.1364 159.748 26.9957 159.301 26.7145C158.858 26.4332 158.512 26.0398 158.262 25.5341C158.015 25.0284 157.891 24.4375 157.891 23.7614C157.891 23.0795 158.015 22.4844 158.262 21.9759C158.512 21.4673 158.858 21.0724 159.301 20.7912C159.748 20.5099 160.266 20.3693 160.857 20.3693C161.448 20.3693 161.965 20.5099 162.408 20.7912C162.854 21.0724 163.201 21.4673 163.448 21.9759C163.698 22.4844 163.823 23.0795 163.823 23.7614C163.823 24.4375 163.698 25.0284 163.448 25.5341C163.201 26.0398 162.854 26.4332 162.408 26.7145C161.965 26.9957 161.448 27.1364 160.857 27.1364ZM160.857 26.233C161.306 26.233 161.675 26.1179 161.965 25.8878C162.255 25.6577 162.469 25.3551 162.608 24.9801C162.748 24.6051 162.817 24.1989 162.817 23.7614C162.817 23.3239 162.748 22.9162 162.608 22.5384C162.469 22.1605 162.255 21.8551 161.965 21.6222C161.675 21.3892 161.306 21.2727 160.857 21.2727C160.408 21.2727 160.039 21.3892 159.749 21.6222C159.459 21.8551 159.245 22.1605 159.105 22.5384C158.966 22.9162 158.897 23.3239 158.897 23.7614C158.897 24.1989 158.966 24.6051 159.105 24.9801C159.245 25.3551 159.459 25.6577 159.749 25.8878C160.039 26.1179 160.408 26.233 160.857 26.233ZM168.205 20.4545V21.3068H164.812V20.4545H168.205ZM165.801 18.8864H166.807V25.125C166.807 25.4091 166.848 25.6222 166.93 25.7642C167.016 25.9034 167.124 25.9972 167.254 26.0455C167.388 26.0909 167.528 26.1136 167.676 26.1136C167.787 26.1136 167.878 26.108 167.949 26.0966C168.02 26.0824 168.077 26.071 168.119 26.0625L168.324 26.9659C168.256 26.9915 168.161 27.017 168.038 27.0426C167.916 27.071 167.761 27.0852 167.574 27.0852C167.29 27.0852 167.011 27.0241 166.739 26.902C166.469 26.7798 166.244 26.5938 166.065 26.3438C165.889 26.0938 165.801 25.7784 165.801 25.3977V18.8864ZM173.092 27V20.4545H174.098V27H173.092ZM173.604 19.3636C173.408 19.3636 173.239 19.2969 173.097 19.1634C172.957 19.0298 172.888 18.8693 172.888 18.6818C172.888 18.4943 172.957 18.3338 173.097 18.2003C173.239 18.0668 173.408 18 173.604 18C173.8 18 173.967 18.0668 174.107 18.2003C174.249 18.3338 174.32 18.4943 174.32 18.6818C174.32 18.8693 174.249 19.0298 174.107 19.1634C173.967 19.2969 173.8 19.3636 173.604 19.3636ZM180.576 21.9205L179.673 22.1761C179.616 22.0256 179.532 21.8793 179.422 21.7372C179.314 21.5923 179.166 21.473 178.978 21.3793C178.791 21.2855 178.551 21.2386 178.258 21.2386C177.858 21.2386 177.524 21.331 177.257 21.5156C176.993 21.6974 176.86 21.929 176.86 22.2102C176.86 22.4602 176.951 22.6577 177.133 22.8026C177.315 22.9474 177.599 23.0682 177.985 23.1648L178.957 23.4034C179.542 23.5455 179.978 23.7628 180.265 24.0554C180.552 24.3452 180.696 24.7187 180.696 25.1761C180.696 25.5511 180.588 25.8864 180.372 26.1818C180.159 26.4773 179.86 26.7102 179.477 26.8807C179.093 27.0511 178.647 27.1364 178.139 27.1364C177.471 27.1364 176.919 26.9915 176.481 26.7017C176.044 26.4119 175.767 25.9886 175.65 25.4318L176.605 25.1932C176.696 25.5455 176.868 25.8097 177.12 25.9858C177.376 26.1619 177.71 26.25 178.122 26.25C178.591 26.25 178.963 26.1506 179.238 25.9517C179.517 25.75 179.656 25.5085 179.656 25.2273C179.656 25 179.576 24.8097 179.417 24.6562C179.258 24.5 179.014 24.3835 178.684 24.3068L177.593 24.0511C176.994 23.9091 176.554 23.6889 176.272 23.3906C175.994 23.0895 175.855 22.7131 175.855 22.2614C175.855 21.892 175.958 21.5653 176.166 21.2812C176.376 20.9972 176.662 20.7741 177.022 20.6122C177.386 20.4503 177.798 20.3693 178.258 20.3693C178.906 20.3693 179.414 20.5114 179.784 20.7955C180.156 21.0795 180.42 21.4545 180.576 21.9205ZM185.585 27V20.4545H186.59V27H185.585ZM186.096 19.3636C185.9 19.3636 185.731 19.2969 185.589 19.1634C185.45 19.0298 185.38 18.8693 185.38 18.6818C185.38 18.4943 185.45 18.3338 185.589 18.2003C185.731 18.0668 185.9 18 186.096 18C186.292 18 186.46 18.0668 186.599 18.2003C186.741 18.3338 186.812 18.4943 186.812 18.6818C186.812 18.8693 186.741 19.0298 186.599 19.1634C186.46 19.2969 186.292 19.3636 186.096 19.3636ZM189.438 23.0625V27H188.432V20.4545H189.404V21.4773H189.489C189.642 21.1449 189.875 20.8778 190.188 20.6761C190.5 20.4716 190.904 20.3693 191.398 20.3693C191.841 20.3693 192.229 20.4602 192.561 20.642C192.894 20.821 193.152 21.0938 193.337 21.4602C193.522 21.8239 193.614 22.2841 193.614 22.8409V27H192.608V22.9091C192.608 22.3949 192.475 21.9943 192.208 21.7074C191.941 21.4176 191.574 21.2727 191.108 21.2727C190.787 21.2727 190.5 21.3423 190.248 21.4815C189.998 21.6207 189.8 21.8239 189.655 22.0909C189.51 22.358 189.438 22.6818 189.438 23.0625ZM200.088 21.9205L199.185 22.1761C199.128 22.0256 199.044 21.8793 198.933 21.7372C198.825 21.5923 198.678 21.473 198.49 21.3793C198.303 21.2855 198.062 21.2386 197.77 21.2386C197.369 21.2386 197.036 21.331 196.768 21.5156C196.504 21.6974 196.372 21.929 196.372 22.2102C196.372 22.4602 196.463 22.6577 196.645 22.8026C196.827 22.9474 197.111 23.0682 197.497 23.1648L198.469 23.4034C199.054 23.5455 199.49 23.7628 199.777 24.0554C200.064 24.3452 200.207 24.7187 200.207 25.1761C200.207 25.5511 200.099 25.8864 199.884 26.1818C199.67 26.4773 199.372 26.7102 198.989 26.8807C198.605 27.0511 198.159 27.1364 197.651 27.1364C196.983 27.1364 196.43 26.9915 195.993 26.7017C195.555 26.4119 195.278 25.9886 195.162 25.4318L196.116 25.1932C196.207 25.5455 196.379 25.8097 196.632 25.9858C196.888 26.1619 197.222 26.25 197.634 26.25C198.102 26.25 198.474 26.1506 198.75 25.9517C199.028 25.75 199.168 25.5085 199.168 25.2273C199.168 25 199.088 24.8097 198.929 24.6562C198.77 24.5 198.526 24.3835 198.196 24.3068L197.105 24.0511C196.506 23.9091 196.065 23.6889 195.784 23.3906C195.506 23.0895 195.366 22.7131 195.366 22.2614C195.366 21.892 195.47 21.5653 195.678 21.2812C195.888 20.9972 196.173 20.7741 196.534 20.6122C196.898 20.4503 197.31 20.3693 197.77 20.3693C198.418 20.3693 198.926 20.5114 199.295 20.7955C199.668 21.0795 199.932 21.4545 200.088 21.9205ZM203.647 27.1534C203.233 27.1534 202.856 27.0753 202.518 26.919C202.18 26.7599 201.912 26.5312 201.713 26.233C201.514 25.9318 201.414 25.5682 201.414 25.142C201.414 24.767 201.488 24.4631 201.636 24.2301C201.784 23.9943 201.981 23.8097 202.228 23.6761C202.475 23.5426 202.748 23.4432 203.047 23.3778C203.348 23.3097 203.65 23.2557 203.954 23.2159C204.352 23.1648 204.674 23.1264 204.922 23.1009C205.172 23.0724 205.353 23.0256 205.467 22.9602C205.583 22.8949 205.642 22.7812 205.642 22.6193V22.5852C205.642 22.1648 205.527 21.8381 205.297 21.6051C205.069 21.3722 204.724 21.2557 204.261 21.2557C203.781 21.2557 203.404 21.3608 203.132 21.571C202.859 21.7812 202.667 22.0057 202.556 22.2443L201.602 21.9034C201.772 21.5057 202 21.196 202.284 20.9744C202.571 20.75 202.883 20.5937 203.221 20.5057C203.562 20.4148 203.897 20.3693 204.227 20.3693C204.437 20.3693 204.679 20.3949 204.951 20.446C205.227 20.4943 205.493 20.5952 205.748 20.7486C206.007 20.902 206.221 21.1335 206.392 21.4432C206.562 21.7528 206.647 22.1676 206.647 22.6875V27H205.642V26.1136H205.591C205.522 26.2557 205.409 26.4077 205.25 26.5696C205.091 26.7315 204.879 26.8693 204.615 26.983C204.35 27.0966 204.028 27.1534 203.647 27.1534ZM203.801 26.25C204.199 26.25 204.534 26.1719 204.806 26.0156C205.082 25.8594 205.289 25.6577 205.429 25.4105C205.571 25.1634 205.642 24.9034 205.642 24.6307V23.7102C205.599 23.7614 205.505 23.8082 205.36 23.8509C205.218 23.8906 205.054 23.9261 204.866 23.9574C204.681 23.9858 204.501 24.0114 204.325 24.0341C204.152 24.054 204.011 24.071 203.903 24.0852C203.642 24.1193 203.397 24.1747 203.17 24.2514C202.946 24.3253 202.764 24.4375 202.625 24.5881C202.488 24.7358 202.42 24.9375 202.42 25.1932C202.42 25.5426 202.549 25.8068 202.808 25.9858C203.069 26.1619 203.4 26.25 203.801 26.25ZM209.489 23.0625V27H208.483V20.4545H209.455V21.4773H209.54C209.693 21.1449 209.926 20.8778 210.239 20.6761C210.551 20.4716 210.955 20.3693 211.449 20.3693C211.892 20.3693 212.28 20.4602 212.612 20.642C212.945 20.821 213.203 21.0938 213.388 21.4602C213.572 21.8239 213.665 22.2841 213.665 22.8409V27H212.659V22.9091C212.659 22.3949 212.526 21.9943 212.259 21.7074C211.991 21.4176 211.625 21.2727 211.159 21.2727C210.838 21.2727 210.551 21.3423 210.298 21.4815C210.048 21.6207 209.851 21.8239 209.706 22.0909C209.561 22.358 209.489 22.6818 209.489 23.0625ZM218.247 27.1364C217.616 27.1364 217.072 26.9972 216.615 26.7188C216.16 26.4375 215.809 26.0455 215.562 25.5426C215.318 25.0369 215.196 24.4489 215.196 23.7784C215.196 23.108 215.318 22.517 215.562 22.0057C215.809 21.4915 216.153 21.0909 216.593 20.804C217.037 20.5142 217.554 20.3693 218.145 20.3693C218.485 20.3693 218.822 20.4261 219.154 20.5398C219.487 20.6534 219.789 20.8381 220.062 21.0938C220.335 21.3466 220.552 21.6818 220.714 22.0994C220.876 22.517 220.957 23.0312 220.957 23.642V24.0682H215.912V23.1989H219.934C219.934 22.8295 219.86 22.5 219.713 22.2102C219.568 21.9205 219.36 21.6918 219.091 21.5241C218.824 21.3565 218.508 21.2727 218.145 21.2727C217.744 21.2727 217.397 21.3722 217.105 21.571C216.815 21.767 216.592 22.0227 216.436 22.3381C216.279 22.6534 216.201 22.9915 216.201 23.3523V23.9318C216.201 24.4261 216.287 24.8452 216.457 25.1889C216.63 25.5298 216.87 25.7898 217.177 25.9688C217.484 26.1449 217.841 26.233 218.247 26.233C218.511 26.233 218.75 26.196 218.963 26.1222C219.179 26.0455 219.365 25.9318 219.521 25.7812C219.677 25.6278 219.798 25.4375 219.883 25.2102L220.855 25.483C220.752 25.8125 220.581 26.1023 220.339 26.3523C220.098 26.5994 219.799 26.7926 219.444 26.9318C219.089 27.0682 218.69 27.1364 218.247 27.1364ZM225.231 27.1364C224.6 27.1364 224.056 26.9972 223.599 26.7188C223.145 26.4375 222.794 26.0455 222.547 25.5426C222.302 25.0369 222.18 24.4489 222.18 23.7784C222.18 23.108 222.302 22.517 222.547 22.0057C222.794 21.4915 223.137 21.0909 223.578 20.804C224.021 20.5142 224.538 20.3693 225.129 20.3693C225.47 20.3693 225.806 20.4261 226.139 20.5398C226.471 20.6534 226.774 20.8381 227.047 21.0938C227.319 21.3466 227.537 21.6818 227.699 22.0994C227.86 22.517 227.941 23.0312 227.941 23.642V24.0682H222.896V23.1989H226.919C226.919 22.8295 226.845 22.5 226.697 22.2102C226.552 21.9205 226.345 21.6918 226.075 21.5241C225.808 21.3565 225.493 21.2727 225.129 21.2727C224.728 21.2727 224.382 21.3722 224.089 21.571C223.799 21.767 223.576 22.0227 223.42 22.3381C223.264 22.6534 223.186 22.9915 223.186 23.3523V23.9318C223.186 24.4261 223.271 24.8452 223.441 25.1889C223.615 25.5298 223.855 25.7898 224.162 25.9688C224.468 26.1449 224.825 26.233 225.231 26.233C225.495 26.233 225.734 26.196 225.947 26.1222C226.163 26.0455 226.349 25.9318 226.505 25.7812C226.662 25.6278 226.782 25.4375 226.868 25.2102L227.839 25.483C227.737 25.8125 227.565 26.1023 227.324 26.3523C227.082 26.5994 226.784 26.7926 226.429 26.9318C226.074 27.0682 225.674 27.1364 225.231 27.1364ZM232.216 27.1364C231.585 27.1364 231.041 26.9972 230.583 26.7188C230.129 26.4375 229.778 26.0455 229.531 25.5426C229.287 25.0369 229.164 24.4489 229.164 23.7784C229.164 23.108 229.287 22.517 229.531 22.0057C229.778 21.4915 230.122 21.0909 230.562 20.804C231.005 20.5142 231.522 20.3693 232.113 20.3693C232.454 20.3693 232.791 20.4261 233.123 20.5398C233.456 20.6534 233.758 20.8381 234.031 21.0938C234.304 21.3466 234.521 21.6818 234.683 22.0994C234.845 22.517 234.926 23.0312 234.926 23.642V24.0682H229.88V23.1989H233.903C233.903 22.8295 233.829 22.5 233.681 22.2102C233.537 21.9205 233.329 21.6918 233.059 21.5241C232.792 21.3565 232.477 21.2727 232.113 21.2727C231.713 21.2727 231.366 21.3722 231.074 21.571C230.784 21.767 230.561 22.0227 230.404 22.3381C230.248 22.6534 230.17 22.9915 230.17 23.3523V23.9318C230.17 24.4261 230.255 24.8452 230.426 25.1889C230.599 25.5298 230.839 25.7898 231.146 25.9688C231.453 26.1449 231.809 26.233 232.216 26.233C232.48 26.233 232.718 26.196 232.931 26.1222C233.147 26.0455 233.333 25.9318 233.49 25.7812C233.646 25.6278 233.767 25.4375 233.852 25.2102L234.824 25.483C234.721 25.8125 234.549 26.1023 234.308 26.3523C234.066 26.5994 233.768 26.7926 233.413 26.9318C233.058 27.0682 232.659 27.1364 232.216 27.1364ZM255.052 27L252.666 18.2727H253.74L255.564 25.3807H255.649L257.507 18.2727H258.7L260.558 25.3807H260.643L262.467 18.2727H263.541L261.154 27H260.064L258.137 20.0455H258.069L256.143 27H255.052ZM265.727 23.0625V27H264.721V18.2727H265.727V21.4773H265.812C265.966 21.1392 266.196 20.8707 266.502 20.6719C266.812 20.4702 267.224 20.3693 267.738 20.3693C268.184 20.3693 268.575 20.4588 268.91 20.6378C269.245 20.8139 269.505 21.0852 269.69 21.4517C269.877 21.8153 269.971 22.2784 269.971 22.8409V27H268.966V22.9091C268.966 22.3892 268.831 21.9872 268.561 21.7031C268.294 21.4162 267.923 21.2727 267.449 21.2727C267.119 21.2727 266.824 21.3423 266.562 21.4815C266.304 21.6207 266.099 21.8239 265.949 22.0909C265.801 22.358 265.727 22.6818 265.727 23.0625ZM271.811 27V20.4545H272.817V27H271.811ZM272.322 19.3636C272.126 19.3636 271.957 19.2969 271.815 19.1634C271.676 19.0298 271.607 18.8693 271.607 18.6818C271.607 18.4943 271.676 18.3338 271.815 18.2003C271.957 18.0668 272.126 18 272.322 18C272.518 18 272.686 18.0668 272.825 18.2003C272.967 18.3338 273.038 18.4943 273.038 18.6818C273.038 18.8693 272.967 19.0298 272.825 19.1634C272.686 19.2969 272.518 19.3636 272.322 19.3636ZM277.318 27.1364C276.704 27.1364 276.176 26.9915 275.733 26.7017C275.289 26.4119 274.949 26.0128 274.71 25.5043C274.471 24.9957 274.352 24.4148 274.352 23.7614C274.352 23.0966 274.474 22.5099 274.718 22.0014C274.966 21.4901 275.309 21.0909 275.75 20.804C276.193 20.5142 276.71 20.3693 277.301 20.3693C277.761 20.3693 278.176 20.4545 278.545 20.625C278.914 20.7955 279.217 21.0341 279.453 21.3409C279.689 21.6477 279.835 22.0057 279.892 22.4148H278.886C278.809 22.1165 278.639 21.8523 278.375 21.6222C278.113 21.3892 277.761 21.2727 277.318 21.2727C276.926 21.2727 276.582 21.375 276.287 21.5795C275.994 21.7812 275.765 22.0668 275.6 22.4361C275.439 22.8026 275.358 23.233 275.358 23.7273C275.358 24.233 275.437 24.6733 275.596 25.0483C275.758 25.4233 275.985 25.7145 276.278 25.9219C276.574 26.1293 276.92 26.233 277.318 26.233C277.579 26.233 277.816 26.1875 278.029 26.0966C278.243 26.0057 278.423 25.875 278.571 25.7045C278.718 25.5341 278.824 25.3295 278.886 25.0909H279.892C279.835 25.4773 279.694 25.8253 279.47 26.1349C279.248 26.4418 278.954 26.6861 278.588 26.8679C278.224 27.0469 277.801 27.1364 277.318 27.1364ZM282.368 23.0625V27H281.362V18.2727H282.368V21.4773H282.453C282.606 21.1392 282.836 20.8707 283.143 20.6719C283.453 20.4702 283.865 20.3693 284.379 20.3693C284.825 20.3693 285.216 20.4588 285.551 20.6378C285.886 20.8139 286.146 21.0852 286.331 21.4517C286.518 21.8153 286.612 22.2784 286.612 22.8409V27H285.606V22.9091C285.606 22.3892 285.471 21.9872 285.201 21.7031C284.934 21.4162 284.564 21.2727 284.089 21.2727C283.76 21.2727 283.464 21.3423 283.203 21.4815C282.944 21.6207 282.74 21.8239 282.589 22.0909C282.441 22.358 282.368 22.6818 282.368 23.0625ZM292.832 18.2727V27H291.827V18.2727H292.832ZM297.419 27.1364C296.788 27.1364 296.244 26.9972 295.787 26.7188C295.332 26.4375 294.981 26.0455 294.734 25.5426C294.49 25.0369 294.368 24.4489 294.368 23.7784C294.368 23.108 294.49 22.517 294.734 22.0057C294.981 21.4915 295.325 21.0909 295.765 20.804C296.208 20.5142 296.725 20.3693 297.316 20.3693C297.657 20.3693 297.994 20.4261 298.326 20.5398C298.659 20.6534 298.961 20.8381 299.234 21.0938C299.507 21.3466 299.724 21.6818 299.886 22.0994C300.048 22.517 300.129 23.0312 300.129 23.642V24.0682H295.083V23.1989H299.106C299.106 22.8295 299.032 22.5 298.885 22.2102C298.74 21.9205 298.532 21.6918 298.262 21.5241C297.995 21.3565 297.68 21.2727 297.316 21.2727C296.916 21.2727 296.569 21.3722 296.277 21.571C295.987 21.767 295.764 22.0227 295.608 22.3381C295.451 22.6534 295.373 22.9915 295.373 23.3523V23.9318C295.373 24.4261 295.458 24.8452 295.629 25.1889C295.802 25.5298 296.042 25.7898 296.349 25.9688C296.656 26.1449 297.012 26.233 297.419 26.233C297.683 26.233 297.922 26.196 298.135 26.1222C298.35 26.0455 298.537 25.9318 298.693 25.7812C298.849 25.6278 298.97 25.4375 299.055 25.2102L300.027 25.483C299.924 25.8125 299.752 26.1023 299.511 26.3523C299.27 26.5994 298.971 26.7926 298.616 26.9318C298.261 27.0682 297.862 27.1364 297.419 27.1364ZM302.664 23.0625V27H301.659V20.4545H302.63V21.4773H302.716C302.869 21.1449 303.102 20.8778 303.414 20.6761C303.727 20.4716 304.13 20.3693 304.625 20.3693C305.068 20.3693 305.456 20.4602 305.788 20.642C306.12 20.821 306.379 21.0938 306.564 21.4602C306.748 21.8239 306.841 22.2841 306.841 22.8409V27H305.835V22.9091C305.835 22.3949 305.701 21.9943 305.434 21.7074C305.167 21.4176 304.801 21.2727 304.335 21.2727C304.014 21.2727 303.727 21.3423 303.474 21.4815C303.224 21.6207 303.027 21.8239 302.882 22.0909C302.737 22.358 302.664 22.6818 302.664 23.0625ZM313.315 21.9205L312.411 22.1761C312.354 22.0256 312.271 21.8793 312.16 21.7372C312.052 21.5923 311.904 21.473 311.717 21.3793C311.529 21.2855 311.289 21.2386 310.996 21.2386C310.596 21.2386 310.262 21.331 309.995 21.5156C309.731 21.6974 309.599 21.929 309.599 22.2102C309.599 22.4602 309.69 22.6577 309.871 22.8026C310.053 22.9474 310.337 23.0682 310.724 23.1648L311.695 23.4034C312.281 23.5455 312.717 23.7628 313.004 24.0554C313.29 24.3452 313.434 24.7187 313.434 25.1761C313.434 25.5511 313.326 25.8864 313.11 26.1818C312.897 26.4773 312.599 26.7102 312.215 26.8807C311.832 27.0511 311.386 27.1364 310.877 27.1364C310.21 27.1364 309.657 26.9915 309.219 26.7017C308.782 26.4119 308.505 25.9886 308.388 25.4318L309.343 25.1932C309.434 25.5455 309.606 25.8097 309.859 25.9858C310.114 26.1619 310.448 26.25 310.86 26.25C311.329 26.25 311.701 26.1506 311.977 25.9517C312.255 25.75 312.394 25.5085 312.394 25.2273C312.394 25 312.315 24.8097 312.156 24.6562C311.996 24.5 311.752 24.3835 311.423 24.3068L310.332 24.0511C309.732 23.9091 309.292 23.6889 309.011 23.3906C308.732 23.0895 308.593 22.7131 308.593 22.2614C308.593 21.892 308.697 21.5653 308.904 21.2812C309.114 20.9972 309.4 20.7741 309.761 20.6122C310.124 20.4503 310.536 20.3693 310.996 20.3693C311.644 20.3693 312.153 20.5114 312.522 20.7955C312.894 21.0795 313.158 21.4545 313.315 21.9205ZM318.323 27V20.4545H319.328V27H318.323ZM318.834 19.3636C318.638 19.3636 318.469 19.2969 318.327 19.1634C318.188 19.0298 318.118 18.8693 318.118 18.6818C318.118 18.4943 318.188 18.3338 318.327 18.2003C318.469 18.0668 318.638 18 318.834 18C319.03 18 319.198 18.0668 319.337 18.2003C319.479 18.3338 319.55 18.4943 319.55 18.6818C319.55 18.8693 319.479 19.0298 319.337 19.1634C319.198 19.2969 319.03 19.3636 318.834 19.3636ZM325.807 21.9205L324.903 22.1761C324.847 22.0256 324.763 21.8793 324.652 21.7372C324.544 21.5923 324.396 21.473 324.209 21.3793C324.021 21.2855 323.781 21.2386 323.489 21.2386C323.088 21.2386 322.754 21.331 322.487 21.5156C322.223 21.6974 322.091 21.929 322.091 22.2102C322.091 22.4602 322.182 22.6577 322.364 22.8026C322.545 22.9474 322.83 23.0682 323.216 23.1648L324.188 23.4034C324.773 23.5455 325.209 23.7628 325.496 24.0554C325.783 24.3452 325.926 24.7187 325.926 25.1761C325.926 25.5511 325.818 25.8864 325.602 26.1818C325.389 26.4773 325.091 26.7102 324.707 26.8807C324.324 27.0511 323.878 27.1364 323.369 27.1364C322.702 27.1364 322.149 26.9915 321.712 26.7017C321.274 26.4119 320.997 25.9886 320.881 25.4318L321.835 25.1932C321.926 25.5455 322.098 25.8097 322.351 25.9858C322.607 26.1619 322.94 26.25 323.352 26.25C323.821 26.25 324.193 26.1506 324.469 25.9517C324.747 25.75 324.886 25.5085 324.886 25.2273C324.886 25 324.807 24.8097 324.648 24.6562C324.489 24.5 324.244 24.3835 323.915 24.3068L322.824 24.0511C322.224 23.9091 321.784 23.6889 321.503 23.3906C321.224 23.0895 321.085 22.7131 321.085 22.2614C321.085 21.892 321.189 21.5653 321.396 21.2812C321.607 20.9972 321.892 20.7741 322.253 20.6122C322.616 20.4503 323.028 20.3693 323.489 20.3693C324.136 20.3693 324.645 20.5114 325.014 20.7955C325.386 21.0795 325.651 21.4545 325.807 21.9205ZM333.662 20.4545V21.3068H330.27V20.4545H333.662ZM331.258 18.8864H332.264V25.125C332.264 25.4091 332.305 25.6222 332.387 25.7642C332.473 25.9034 332.581 25.9972 332.711 26.0455C332.845 26.0909 332.985 26.1136 333.133 26.1136C333.244 26.1136 333.335 26.108 333.406 26.0966C333.477 26.0824 333.534 26.071 333.576 26.0625L333.781 26.9659C333.713 26.9915 333.618 27.017 333.495 27.0426C333.373 27.071 333.218 27.0852 333.031 27.0852C332.747 27.0852 332.468 27.0241 332.196 26.902C331.926 26.7798 331.701 26.5938 331.522 26.3438C331.346 26.0938 331.258 25.7784 331.258 25.3977V18.8864ZM336.321 23.0625V27H335.315V18.2727H336.321V21.4773H336.406C336.559 21.1392 336.789 20.8707 337.096 20.6719C337.406 20.4702 337.818 20.3693 338.332 20.3693C338.778 20.3693 339.169 20.4588 339.504 20.6378C339.839 20.8139 340.099 21.0852 340.284 21.4517C340.471 21.8153 340.565 22.2784 340.565 22.8409V27H339.559V22.9091C339.559 22.3892 339.424 21.9872 339.154 21.7031C338.887 21.4162 338.517 21.2727 338.042 21.2727C337.713 21.2727 337.417 21.3423 337.156 21.4815C336.897 21.6207 336.693 21.8239 336.542 22.0909C336.395 22.358 336.321 22.6818 336.321 23.0625ZM344.331 27.1534C343.916 27.1534 343.54 27.0753 343.202 26.919C342.864 26.7599 342.595 26.5312 342.396 26.233C342.197 25.9318 342.098 25.5682 342.098 25.142C342.098 24.767 342.172 24.4631 342.32 24.2301C342.467 23.9943 342.665 23.8097 342.912 23.6761C343.159 23.5426 343.432 23.4432 343.73 23.3778C344.031 23.3097 344.334 23.2557 344.638 23.2159C345.036 23.1648 345.358 23.1264 345.605 23.1009C345.855 23.0724 346.037 23.0256 346.151 22.9602C346.267 22.8949 346.325 22.7812 346.325 22.6193V22.5852C346.325 22.1648 346.21 21.8381 345.98 21.6051C345.753 21.3722 345.408 21.2557 344.945 21.2557C344.464 21.2557 344.088 21.3608 343.815 21.571C343.543 21.7812 343.351 22.0057 343.24 22.2443L342.286 21.9034C342.456 21.5057 342.683 21.196 342.967 20.9744C343.254 20.75 343.567 20.5937 343.905 20.5057C344.246 20.4148 344.581 20.3693 344.911 20.3693C345.121 20.3693 345.362 20.3949 345.635 20.446C345.911 20.4943 346.176 20.5952 346.432 20.7486C346.69 20.902 346.905 21.1335 347.075 21.4432C347.246 21.7528 347.331 22.1676 347.331 22.6875V27H346.325V26.1136H346.274C346.206 26.2557 346.092 26.4077 345.933 26.5696C345.774 26.7315 345.563 26.8693 345.298 26.983C345.034 27.0966 344.712 27.1534 344.331 27.1534ZM344.484 26.25C344.882 26.25 345.217 26.1719 345.49 26.0156C345.766 25.8594 345.973 25.6577 346.112 25.4105C346.254 25.1634 346.325 24.9034 346.325 24.6307V23.7102C346.283 23.7614 346.189 23.8082 346.044 23.8509C345.902 23.8906 345.737 23.9261 345.55 23.9574C345.365 23.9858 345.185 24.0114 345.009 24.0341C344.835 24.054 344.695 24.071 344.587 24.0852C344.325 24.1193 344.081 24.1747 343.854 24.2514C343.629 24.3253 343.447 24.4375 343.308 24.5881C343.172 24.7358 343.104 24.9375 343.104 25.1932C343.104 25.5426 343.233 25.8068 343.491 25.9858C343.753 26.1619 344.084 26.25 344.484 26.25ZM352.013 20.4545V21.3068H348.621V20.4545H352.013ZM349.61 18.8864H350.615V25.125C350.615 25.4091 350.657 25.6222 350.739 25.7642C350.824 25.9034 350.932 25.9972 351.063 26.0455C351.196 26.0909 351.337 26.1136 351.485 26.1136C351.596 26.1136 351.686 26.108 351.757 26.0966C351.828 26.0824 351.885 26.071 351.928 26.0625L352.132 26.9659C352.064 26.9915 351.969 27.017 351.847 27.0426C351.725 27.071 351.57 27.0852 351.382 27.0852C351.098 27.0852 350.82 27.0241 350.547 26.902C350.277 26.7798 350.053 26.5938 349.874 26.3438C349.698 26.0938 349.61 25.7784 349.61 25.3977V18.8864ZM354.838 24.5455V24.4943C354.844 23.9517 354.901 23.5199 355.009 23.1989C355.117 22.8778 355.27 22.6179 355.469 22.419C355.668 22.2202 355.907 22.0369 356.185 21.8693C356.353 21.767 356.503 21.6463 356.637 21.5071C356.77 21.3651 356.875 21.2017 356.952 21.017C357.032 20.8324 357.071 20.6278 357.071 20.4034C357.071 20.125 357.006 19.8835 356.875 19.679C356.745 19.4744 356.57 19.3168 356.351 19.206C356.132 19.0952 355.89 19.0398 355.623 19.0398C355.39 19.0398 355.165 19.0881 354.949 19.1847C354.733 19.2812 354.553 19.4332 354.408 19.6406C354.263 19.848 354.179 20.1193 354.157 20.4545H353.083C353.105 19.9716 353.23 19.5582 353.458 19.2145C353.688 18.8707 353.99 18.608 354.365 18.4261C354.743 18.2443 355.162 18.1534 355.623 18.1534C356.123 18.1534 356.557 18.2528 356.926 18.4517C357.299 18.6506 357.586 18.9233 357.787 19.2699C357.992 19.6165 358.094 20.0114 358.094 20.4545C358.094 20.767 358.046 21.0497 357.949 21.3026C357.855 21.5554 357.719 21.7812 357.54 21.9801C357.364 22.179 357.151 22.3551 356.901 22.5085C356.651 22.6648 356.451 22.8295 356.3 23.0028C356.15 23.1733 356.04 23.3764 355.972 23.6122C355.904 23.848 355.867 24.142 355.861 24.4943V24.5455H354.838ZM355.384 27.0682C355.174 27.0682 354.993 26.9929 354.843 26.8423C354.692 26.6918 354.617 26.5114 354.617 26.3011C354.617 26.0909 354.692 25.9105 354.843 25.7599C354.993 25.6094 355.174 25.5341 355.384 25.5341C355.594 25.5341 355.775 25.6094 355.925 25.7599C356.076 25.9105 356.151 26.0909 356.151 26.3011C356.151 26.4403 356.115 26.5682 356.044 26.6847C355.976 26.8011 355.884 26.8949 355.767 26.9659C355.654 27.0341 355.526 27.0682 355.384 27.0682ZM360.92 24.5455V24.4943C360.926 23.9517 360.983 23.5199 361.091 23.1989C361.199 22.8778 361.352 22.6179 361.551 22.419C361.75 22.2202 361.989 22.0369 362.267 21.8693C362.435 21.767 362.585 21.6463 362.719 21.5071C362.852 21.3651 362.957 21.2017 363.034 21.017C363.114 20.8324 363.153 20.6278 363.153 20.4034C363.153 20.125 363.088 19.8835 362.957 19.679C362.827 19.4744 362.652 19.3168 362.433 19.206C362.214 19.0952 361.972 19.0398 361.705 19.0398C361.472 19.0398 361.247 19.0881 361.031 19.1847C360.815 19.2812 360.635 19.4332 360.49 19.6406C360.345 19.848 360.261 20.1193 360.239 20.4545H359.165C359.188 19.9716 359.312 19.5582 359.54 19.2145C359.77 18.8707 360.072 18.608 360.447 18.4261C360.825 18.2443 361.244 18.1534 361.705 18.1534C362.205 18.1534 362.639 18.2528 363.009 18.4517C363.381 18.6506 363.668 18.9233 363.869 19.2699C364.074 19.6165 364.176 20.0114 364.176 20.4545C364.176 20.767 364.128 21.0497 364.031 21.3026C363.938 21.5554 363.801 21.7812 363.622 21.9801C363.446 22.179 363.233 22.3551 362.983 22.5085C362.733 22.6648 362.533 22.8295 362.382 23.0028C362.232 23.1733 362.122 23.3764 362.054 23.6122C361.986 23.848 361.949 24.142 361.943 24.4943V24.5455H360.92ZM361.466 27.0682C361.256 27.0682 361.075 26.9929 360.925 26.8423C360.774 26.6918 360.699 26.5114 360.699 26.3011C360.699 26.0909 360.774 25.9105 360.925 25.7599C361.075 25.6094 361.256 25.5341 361.466 25.5341C361.676 25.5341 361.857 25.6094 362.007 25.7599C362.158 25.9105 362.233 26.0909 362.233 26.3011C362.233 26.4403 362.197 26.5682 362.126 26.6847C362.058 26.8011 361.966 26.8949 361.849 26.9659C361.736 27.0341 361.608 27.0682 361.466 27.0682Z" fill="white"/>
<path d="M72.7585 48V39.2727H76.2017C76.8608 39.2727 77.4233 39.3906 77.8892 39.6264C78.358 39.8594 78.7145 40.1903 78.9588 40.6193C79.206 41.0455 79.3295 41.5469 79.3295 42.1236C79.3295 42.7031 79.2045 43.2017 78.9545 43.6193C78.7045 44.0341 78.3423 44.3523 77.8679 44.5739C77.3963 44.7955 76.8253 44.9062 76.1548 44.9062H73.8494V43.4233H75.8565C76.2088 43.4233 76.5014 43.375 76.7344 43.2784C76.9673 43.1818 77.1406 43.0369 77.2543 42.8438C77.3707 42.6506 77.429 42.4105 77.429 42.1236C77.429 41.8338 77.3707 41.5895 77.2543 41.3906C77.1406 41.1918 76.9659 41.0412 76.7301 40.9389C76.4972 40.8338 76.2031 40.7812 75.848 40.7812H74.6037V48H72.7585ZM77.4716 44.0284L79.6406 48H77.6037L75.4815 44.0284H77.4716ZM83.4769 48.1278C82.8036 48.1278 82.2241 47.9915 81.7383 47.7188C81.2553 47.4432 80.8832 47.054 80.6218 46.5511C80.3604 46.0455 80.2298 45.4474 80.2298 44.7571C80.2298 44.0838 80.3604 43.4929 80.6218 42.9844C80.8832 42.4759 81.2511 42.0795 81.7255 41.7955C82.2028 41.5114 82.7624 41.3693 83.4045 41.3693C83.8363 41.3693 84.2383 41.4389 84.6104 41.5781C84.9854 41.7145 85.3121 41.9205 85.5906 42.196C85.8718 42.4716 86.0906 42.8182 86.2468 43.2358C86.4031 43.6506 86.4812 44.1364 86.4812 44.6932V45.1918H80.9542V44.0668H84.7724C84.7724 43.8054 84.7156 43.5739 84.6019 43.3722C84.4883 43.1705 84.3306 43.0128 84.1289 42.8991C83.93 42.7827 83.6985 42.7244 83.4343 42.7244C83.1587 42.7244 82.9144 42.7884 82.7013 42.9162C82.4911 43.0412 82.3263 43.2102 82.207 43.4233C82.0877 43.6335 82.0266 43.8679 82.0238 44.1264V45.196C82.0238 45.5199 82.0835 45.7997 82.2028 46.0355C82.3249 46.2713 82.4968 46.4531 82.7184 46.581C82.94 46.7088 83.2028 46.7727 83.5067 46.7727C83.7085 46.7727 83.8931 46.7443 84.0607 46.6875C84.2283 46.6307 84.3718 46.5455 84.4911 46.4318C84.6104 46.3182 84.7013 46.179 84.7638 46.0142L86.4428 46.125C86.3576 46.5284 86.1829 46.8807 85.9187 47.1818C85.6573 47.4801 85.3192 47.7131 84.9045 47.8807C84.4925 48.0455 84.0167 48.1278 83.4769 48.1278ZM87.6658 50.4545V41.4545H89.4556V42.554H89.5366C89.6161 42.3778 89.7312 42.1989 89.8817 42.017C90.0352 41.8324 90.234 41.679 90.4783 41.5568C90.7255 41.4318 91.0323 41.3693 91.3988 41.3693C91.8761 41.3693 92.3164 41.4943 92.7198 41.7443C93.1232 41.9915 93.4457 42.3651 93.6871 42.8651C93.9286 43.3622 94.0494 43.9858 94.0494 44.7358C94.0494 45.4659 93.9315 46.0824 93.6957 46.5852C93.4627 47.0852 93.1445 47.4645 92.7411 47.723C92.3406 47.9787 91.8917 48.1065 91.3945 48.1065C91.0423 48.1065 90.7425 48.0483 90.4954 47.9318C90.2511 47.8153 90.0508 47.669 89.8945 47.4929C89.7383 47.3139 89.619 47.1335 89.5366 46.9517H89.4812V50.4545H87.6658ZM89.4428 44.7273C89.4428 45.1165 89.4968 45.456 89.6048 45.7457C89.7127 46.0355 89.869 46.2614 90.0735 46.4233C90.2781 46.5824 90.5266 46.6619 90.8192 46.6619C91.1147 46.6619 91.3647 46.581 91.5692 46.419C91.7738 46.2543 91.9286 46.027 92.0337 45.7372C92.1417 45.4446 92.1957 45.108 92.1957 44.7273C92.1957 44.3494 92.1431 44.017 92.038 43.7301C91.9329 43.4432 91.7781 43.2187 91.5735 43.0568C91.369 42.8949 91.1175 42.8139 90.8192 42.8139C90.5238 42.8139 90.2738 42.892 90.0692 43.0483C89.8675 43.2045 89.7127 43.4261 89.6048 43.7131C89.4968 44 89.4428 44.3381 89.4428 44.7273ZM97.0749 39.2727V48H95.2596V39.2727H97.0749ZM99.6499 50.4545C99.4197 50.4545 99.2038 50.4361 99.0021 50.3991C98.8033 50.3651 98.6385 50.321 98.5078 50.267L98.9169 48.9119C99.13 48.9773 99.3217 49.0128 99.4922 49.0185C99.6655 49.0241 99.8146 48.9844 99.9396 48.8991C100.067 48.8139 100.171 48.669 100.251 48.4645L100.357 48.1875L98.0092 41.4545H99.9183L101.273 46.2614H101.342L102.71 41.4545H104.631L102.087 48.7074C101.965 49.0597 101.799 49.3665 101.589 49.6278C101.381 49.892 101.119 50.0952 100.8 50.2372C100.482 50.3821 100.099 50.4545 99.6499 50.4545ZM106.621 48.1108C106.34 48.1108 106.099 48.0114 105.897 47.8125C105.698 47.6108 105.599 47.3693 105.599 47.0881C105.599 46.8097 105.698 46.571 105.897 46.3722C106.099 46.1733 106.34 46.0739 106.621 46.0739C106.894 46.0739 107.133 46.1733 107.337 46.3722C107.542 46.571 107.644 46.8097 107.644 47.0881C107.644 47.2756 107.596 47.4474 107.499 47.6037C107.406 47.7571 107.282 47.8807 107.129 47.9744C106.975 48.0653 106.806 48.1108 106.621 48.1108ZM106.621 43.5256C106.34 43.5256 106.099 43.4261 105.897 43.2273C105.698 43.0284 105.599 42.7869 105.599 42.5028C105.599 42.2244 105.698 41.9872 105.897 41.7912C106.099 41.5923 106.34 41.4929 106.621 41.4929C106.894 41.4929 107.133 41.5923 107.337 41.7912C107.542 41.9872 107.644 42.2244 107.644 42.5028C107.644 42.6932 107.596 42.8665 107.499 43.0227C107.406 43.1761 107.282 43.2983 107.129 43.3892C106.975 43.4801 106.806 43.5256 106.621 43.5256ZM112.365 40.2102V39.2727H118.91V40.2102H116.166V48H115.109V40.2102H112.365ZM121.411 44.0625V48H120.405V39.2727H121.411V42.4773H121.496C121.649 42.1392 121.879 41.8707 122.186 41.6719C122.496 41.4702 122.908 41.3693 123.422 41.3693C123.868 41.3693 124.259 41.4588 124.594 41.6378C124.929 41.8139 125.189 42.0852 125.374 42.4517C125.561 42.8153 125.655 43.2784 125.655 43.8409V48H124.649V43.9091C124.649 43.3892 124.514 42.9872 124.244 42.7031C123.977 42.4162 123.607 42.2727 123.132 42.2727C122.803 42.2727 122.507 42.3423 122.246 42.4815C121.987 42.6207 121.783 42.8239 121.632 43.0909C121.484 43.358 121.411 43.6818 121.411 44.0625ZM129.421 48.1534C129.006 48.1534 128.63 48.0753 128.292 47.919C127.953 47.7599 127.685 47.5312 127.486 47.233C127.287 46.9318 127.188 46.5682 127.188 46.142C127.188 45.767 127.262 45.4631 127.409 45.2301C127.557 44.9943 127.755 44.8097 128.002 44.6761C128.249 44.5426 128.522 44.4432 128.82 44.3778C129.121 44.3097 129.424 44.2557 129.728 44.2159C130.125 44.1648 130.448 44.1264 130.695 44.1009C130.945 44.0724 131.127 44.0256 131.24 43.9602C131.357 43.8949 131.415 43.7812 131.415 43.6193V43.5852C131.415 43.1648 131.3 42.8381 131.07 42.6051C130.843 42.3722 130.498 42.2557 130.034 42.2557C129.554 42.2557 129.178 42.3608 128.905 42.571C128.632 42.7812 128.441 43.0057 128.33 43.2443L127.375 42.9034C127.546 42.5057 127.773 42.196 128.057 41.9744C128.344 41.75 128.657 41.5937 128.995 41.5057C129.336 41.4148 129.671 41.3693 130 41.3693C130.211 41.3693 130.452 41.3949 130.725 41.446C131 41.4943 131.266 41.5952 131.522 41.7486C131.78 41.902 131.995 42.1335 132.165 42.4432C132.336 42.7528 132.421 43.1676 132.421 43.6875V48H131.415V47.1136H131.364C131.296 47.2557 131.182 47.4077 131.023 47.5696C130.864 47.7315 130.652 47.8693 130.388 47.983C130.124 48.0966 129.801 48.1534 129.421 48.1534ZM129.574 47.25C129.972 47.25 130.307 47.1719 130.58 47.0156C130.855 46.8594 131.063 46.6577 131.202 46.4105C131.344 46.1634 131.415 45.9034 131.415 45.6307V44.7102C131.373 44.7614 131.279 44.8082 131.134 44.8509C130.992 44.8906 130.827 44.9261 130.64 44.9574C130.455 44.9858 130.275 45.0114 130.098 45.0341C129.925 45.054 129.784 45.071 129.676 45.0852C129.415 45.1193 129.171 45.1747 128.944 45.2514C128.719 45.3253 128.537 45.4375 128.398 45.5881C128.262 45.7358 128.194 45.9375 128.194 46.1932C128.194 46.5426 128.323 46.8068 128.581 46.9858C128.843 47.1619 129.174 47.25 129.574 47.25ZM135.262 44.0625V48H134.256V41.4545H135.228V42.4773H135.313C135.467 42.1449 135.7 41.8778 136.012 41.6761C136.325 41.4716 136.728 41.3693 137.222 41.3693C137.665 41.3693 138.053 41.4602 138.386 41.642C138.718 41.821 138.977 42.0938 139.161 42.4602C139.346 42.8239 139.438 43.2841 139.438 43.8409V48H138.433V43.9091C138.433 43.3949 138.299 42.9943 138.032 42.7074C137.765 42.4176 137.398 42.2727 136.933 42.2727C136.612 42.2727 136.325 42.3423 136.072 42.4815C135.822 42.6207 135.624 42.8239 135.479 43.0909C135.335 43.358 135.262 43.6818 135.262 44.0625ZM142.213 45.6136L142.196 44.3693H142.401L145.265 41.4545H146.509L143.458 44.5398H143.373L142.213 45.6136ZM141.276 48V39.2727H142.282V48H141.276ZM145.435 48L142.878 44.7614L143.594 44.0625L146.713 48H145.435ZM152.44 42.9205L151.536 43.1761C151.479 43.0256 151.396 42.8793 151.285 42.7372C151.177 42.5923 151.029 42.473 150.842 42.3793C150.654 42.2855 150.414 42.2386 150.121 42.2386C149.721 42.2386 149.387 42.331 149.12 42.5156C148.856 42.6974 148.724 42.929 148.724 43.2102C148.724 43.4602 148.815 43.6577 148.996 43.8026C149.178 43.9474 149.462 44.0682 149.849 44.1648L150.82 44.4034C151.406 44.5455 151.842 44.7628 152.129 45.0554C152.415 45.3452 152.559 45.7187 152.559 46.1761C152.559 46.5511 152.451 46.8864 152.235 47.1818C152.022 47.4773 151.724 47.7102 151.34 47.8807C150.957 48.0511 150.511 48.1364 150.002 48.1364C149.335 48.1364 148.782 47.9915 148.344 47.7017C147.907 47.4119 147.63 46.9886 147.513 46.4318L148.468 46.1932C148.559 46.5455 148.731 46.8097 148.984 46.9858C149.239 47.1619 149.573 47.25 149.985 47.25C150.454 47.25 150.826 47.1506 151.102 46.9517C151.38 46.75 151.519 46.5085 151.519 46.2273C151.519 46 151.44 45.8097 151.281 45.6562C151.121 45.5 150.877 45.3835 150.548 45.3068L149.457 45.0511C148.857 44.9091 148.417 44.6889 148.136 44.3906C147.857 44.0895 147.718 43.7131 147.718 43.2614C147.718 42.892 147.822 42.5653 148.029 42.2812C148.239 41.9972 148.525 41.7741 148.886 41.6122C149.249 41.4503 149.661 41.3693 150.121 41.3693C150.769 41.3693 151.278 41.5114 151.647 41.7955C152.019 42.0795 152.283 42.4545 152.44 42.9205ZM157.448 48V41.4545H158.419V42.4773H158.505C158.641 42.1278 158.861 41.8565 159.165 41.6634C159.469 41.4673 159.834 41.3693 160.26 41.3693C160.692 41.3693 161.051 41.4673 161.338 41.6634C161.628 41.8565 161.854 42.1278 162.016 42.4773H162.084C162.252 42.1392 162.503 41.8707 162.838 41.6719C163.174 41.4702 163.576 41.3693 164.044 41.3693C164.63 41.3693 165.108 41.5526 165.48 41.919C165.853 42.2827 166.039 42.8494 166.039 43.6193V48H165.033V43.6193C165.033 43.1364 164.901 42.7912 164.637 42.5838C164.373 42.3764 164.061 42.2727 163.703 42.2727C163.243 42.2727 162.887 42.4119 162.634 42.6903C162.381 42.9659 162.255 43.3153 162.255 43.7386V48H161.232V43.517C161.232 43.1449 161.111 42.8452 160.87 42.6179C160.628 42.3878 160.317 42.2727 159.936 42.2727C159.675 42.2727 159.431 42.3423 159.203 42.4815C158.979 42.6207 158.797 42.8139 158.658 43.0611C158.522 43.3054 158.453 43.5881 158.453 43.9091V48H157.448ZM169.804 48.1534C169.389 48.1534 169.012 48.0753 168.674 47.919C168.336 47.7599 168.068 47.5312 167.869 47.233C167.67 46.9318 167.571 46.5682 167.571 46.142C167.571 45.767 167.645 45.4631 167.792 45.2301C167.94 44.9943 168.137 44.8097 168.385 44.6761C168.632 44.5426 168.904 44.4432 169.203 44.3778C169.504 44.3097 169.806 44.2557 170.11 44.2159C170.508 44.1648 170.831 44.1264 171.078 44.1009C171.328 44.0724 171.51 44.0256 171.623 43.9602C171.74 43.8949 171.798 43.7812 171.798 43.6193V43.5852C171.798 43.1648 171.683 42.8381 171.453 42.6051C171.225 42.3722 170.88 42.2557 170.417 42.2557C169.937 42.2557 169.561 42.3608 169.288 42.571C169.015 42.7812 168.824 43.0057 168.713 43.2443L167.758 42.9034C167.929 42.5057 168.156 42.196 168.44 41.9744C168.727 41.75 169.039 41.5937 169.377 41.5057C169.718 41.4148 170.054 41.3693 170.383 41.3693C170.593 41.3693 170.835 41.3949 171.108 41.446C171.383 41.4943 171.649 41.5952 171.904 41.7486C172.163 41.902 172.377 42.1335 172.548 42.4432C172.718 42.7528 172.804 43.1676 172.804 43.6875V48H171.798V47.1136H171.747C171.679 47.2557 171.565 47.4077 171.406 47.5696C171.247 47.7315 171.035 47.8693 170.771 47.983C170.507 48.0966 170.184 48.1534 169.804 48.1534ZM169.957 47.25C170.355 47.25 170.69 47.1719 170.963 47.0156C171.238 46.8594 171.446 46.6577 171.585 46.4105C171.727 46.1634 171.798 45.9034 171.798 45.6307V44.7102C171.755 44.7614 171.662 44.8082 171.517 44.8509C171.375 44.8906 171.21 44.9261 171.022 44.9574C170.838 44.9858 170.657 45.0114 170.481 45.0341C170.308 45.054 170.167 45.071 170.059 45.0852C169.798 45.1193 169.554 45.1747 169.326 45.2514C169.102 45.3253 168.92 45.4375 168.781 45.5881C168.645 45.7358 168.576 45.9375 168.576 46.1932C168.576 46.5426 168.706 46.8068 168.964 46.9858C169.225 47.1619 169.556 47.25 169.957 47.25ZM175.645 44.0625V48H174.639V41.4545H175.611V42.4773H175.696C175.849 42.1449 176.082 41.8778 176.395 41.6761C176.707 41.4716 177.111 41.3693 177.605 41.3693C178.048 41.3693 178.436 41.4602 178.768 41.642C179.101 41.821 179.359 42.0938 179.544 42.4602C179.729 42.8239 179.821 43.2841 179.821 43.8409V48H178.815V43.9091C178.815 43.3949 178.682 42.9943 178.415 42.7074C178.148 42.4176 177.781 42.2727 177.315 42.2727C176.994 42.2727 176.707 42.3423 176.455 42.4815C176.205 42.6207 176.007 42.8239 175.862 43.0909C175.717 43.358 175.645 43.6818 175.645 44.0625ZM182.988 39.2727L182.903 45.5455H181.914L181.829 39.2727H182.988ZM182.409 48.0682C182.199 48.0682 182.018 47.9929 181.868 47.8423C181.717 47.6918 181.642 47.5114 181.642 47.3011C181.642 47.0909 181.717 46.9105 181.868 46.7599C182.018 46.6094 182.199 46.5341 182.409 46.5341C182.619 46.5341 182.799 46.6094 182.95 46.7599C183.1 46.9105 183.176 47.0909 183.176 47.3011C183.176 47.4403 183.14 47.5682 183.069 47.6847C183.001 47.8011 182.909 47.8949 182.792 47.9659C182.679 48.0341 182.551 48.0682 182.409 48.0682ZM191.425 39.2727V48H190.368V40.3807H190.317L188.186 41.7955V40.7216L190.368 39.2727H191.425ZM196.832 48.1193C196.474 48.1136 196.116 48.0455 195.759 47.9148C195.401 47.7841 195.074 47.5639 194.778 47.2543C194.483 46.9418 194.246 46.5199 194.067 45.9886C193.888 45.4545 193.798 44.7841 193.798 43.9773C193.798 43.2045 193.871 42.5199 194.016 41.9233C194.161 41.3239 194.371 40.8196 194.646 40.4105C194.922 39.9986 195.254 39.6861 195.643 39.473C196.036 39.2599 196.477 39.1534 196.969 39.1534C197.457 39.1534 197.892 39.2514 198.273 39.4474C198.656 39.6406 198.969 39.9105 199.21 40.2571C199.452 40.6037 199.608 41.0028 199.679 41.4545H198.639C198.543 41.0625 198.355 40.7372 198.077 40.4787C197.798 40.2202 197.429 40.0909 196.969 40.0909C196.293 40.0909 195.76 40.3849 195.371 40.973C194.984 41.5611 194.79 42.3864 194.787 43.4489H194.855C195.014 43.2074 195.203 43.0014 195.422 42.831C195.643 42.6577 195.888 42.5241 196.155 42.4304C196.422 42.3366 196.705 42.2898 197.003 42.2898C197.503 42.2898 197.96 42.4148 198.375 42.6648C198.79 42.9119 199.122 43.2543 199.372 43.6918C199.622 44.1264 199.747 44.625 199.747 45.1875C199.747 45.7273 199.626 46.2216 199.385 46.6705C199.143 47.1165 198.804 47.4716 198.366 47.7358C197.932 47.9972 197.42 48.125 196.832 48.1193ZM196.832 47.1818C197.19 47.1818 197.511 47.0923 197.795 46.9134C198.082 46.7344 198.308 46.4943 198.473 46.1932C198.641 45.892 198.724 45.5568 198.724 45.1875C198.724 44.8267 198.643 44.4986 198.482 44.2031C198.322 43.9048 198.102 43.6676 197.821 43.4915C197.543 43.3153 197.224 43.2273 196.866 43.2273C196.597 43.2273 196.345 43.2812 196.112 43.3892C195.879 43.4943 195.675 43.6392 195.499 43.8239C195.325 44.0085 195.189 44.2202 195.089 44.4588C194.99 44.6946 194.94 44.9432 194.94 45.2045C194.94 45.5511 195.021 45.875 195.183 46.1761C195.348 46.4773 195.572 46.7202 195.857 46.9048C196.143 47.0895 196.469 47.1818 196.832 47.1818ZM201.44 48V41.4545H202.412V42.4773H202.497C202.633 42.1278 202.853 41.8565 203.157 41.6634C203.461 41.4673 203.826 41.3693 204.252 41.3693C204.684 41.3693 205.044 41.4673 205.331 41.6634C205.62 41.8565 205.846 42.1278 206.008 42.4773H206.076C206.244 42.1392 206.495 41.8707 206.831 41.6719C207.166 41.4702 207.568 41.3693 208.037 41.3693C208.622 41.3693 209.1 41.5526 209.473 41.919C209.845 42.2827 210.031 42.8494 210.031 43.6193V48H209.025V43.6193C209.025 43.1364 208.893 42.7912 208.629 42.5838C208.365 42.3764 208.054 42.2727 207.696 42.2727C207.235 42.2727 206.879 42.4119 206.626 42.6903C206.373 42.9659 206.247 43.3153 206.247 43.7386V48H205.224V43.517C205.224 43.1449 205.103 42.8452 204.862 42.6179C204.62 42.3878 204.309 42.2727 203.929 42.2727C203.667 42.2727 203.423 42.3423 203.196 42.4815C202.971 42.6207 202.789 42.8139 202.65 43.0611C202.514 43.3054 202.446 43.5881 202.446 43.9091V48H201.44ZM211.87 48V41.4545H212.841V42.4773H212.926C213.063 42.1278 213.283 41.8565 213.587 41.6634C213.891 41.4673 214.256 41.3693 214.682 41.3693C215.114 41.3693 215.473 41.4673 215.76 41.6634C216.05 41.8565 216.276 42.1278 216.438 42.4773H216.506C216.674 42.1392 216.925 41.8707 217.26 41.6719C217.596 41.4702 217.998 41.3693 218.466 41.3693C219.051 41.3693 219.53 41.5526 219.902 41.919C220.275 42.2827 220.461 42.8494 220.461 43.6193V48H219.455V43.6193C219.455 43.1364 219.323 42.7912 219.059 42.5838C218.794 42.3764 218.483 42.2727 218.125 42.2727C217.665 42.2727 217.309 42.4119 217.056 42.6903C216.803 42.9659 216.676 43.3153 216.676 43.7386V48H215.654V43.517C215.654 43.1449 215.533 42.8452 215.292 42.6179C215.05 42.3878 214.739 42.2727 214.358 42.2727C214.097 42.2727 213.853 42.3423 213.625 42.4815C213.401 42.6207 213.219 42.8139 213.08 43.0611C212.944 43.3054 212.875 43.5881 212.875 43.9091V48H211.87ZM225.674 50.4545V41.4545H226.646V42.4943H226.765C226.839 42.3807 226.941 42.2358 227.072 42.0597C227.206 41.8807 227.396 41.7216 227.643 41.5824C227.893 41.4403 228.231 41.3693 228.657 41.3693C229.208 41.3693 229.694 41.5071 230.115 41.7827C230.535 42.0582 230.863 42.4489 231.099 42.9545C231.335 43.4602 231.453 44.0568 231.453 44.7443C231.453 45.4375 231.335 46.0384 231.099 46.5469C230.863 47.0526 230.537 47.4446 230.119 47.723C229.701 47.9986 229.22 48.1364 228.674 48.1364C228.254 48.1364 227.917 48.0668 227.664 47.9276C227.412 47.7855 227.217 47.625 227.081 47.446C226.944 47.2642 226.839 47.1136 226.765 46.9943H226.68V50.4545H225.674ZM226.663 44.7273C226.663 45.2216 226.735 45.6577 226.88 46.0355C227.025 46.4105 227.237 46.7045 227.515 46.9176C227.794 47.1278 228.135 47.233 228.538 47.233C228.958 47.233 229.309 47.1222 229.591 46.9006C229.875 46.6761 230.088 46.375 230.23 45.9972C230.375 45.6165 230.447 45.1932 230.447 44.7273C230.447 44.267 230.376 43.8523 230.234 43.483C230.095 43.1108 229.883 42.8168 229.599 42.6009C229.318 42.3821 228.964 42.2727 228.538 42.2727C228.129 42.2727 227.785 42.3764 227.507 42.5838C227.228 42.7884 227.018 43.0753 226.876 43.4446C226.734 43.8111 226.663 44.2386 226.663 44.7273ZM232.987 48V41.4545H233.958V42.4432H234.027C234.146 42.1193 234.362 41.8565 234.674 41.6548C234.987 41.4531 235.339 41.3523 235.731 41.3523C235.805 41.3523 235.897 41.3537 236.008 41.3565C236.119 41.3594 236.203 41.3636 236.26 41.3693V42.392C236.225 42.3835 236.147 42.3707 236.025 42.3537C235.906 42.3338 235.779 42.3239 235.646 42.3239C235.328 42.3239 235.044 42.3906 234.794 42.5241C234.547 42.6548 234.35 42.8366 234.206 43.0696C234.064 43.2997 233.993 43.5625 233.993 43.858V48H232.987ZM237.452 48V41.4545H238.457V48H237.452ZM237.963 40.3636C237.767 40.3636 237.598 40.2969 237.456 40.1634C237.317 40.0298 237.247 39.8693 237.247 39.6818C237.247 39.4943 237.317 39.3338 237.456 39.2003C237.598 39.0668 237.767 39 237.963 39C238.159 39 238.327 39.0668 238.466 39.2003C238.608 39.3338 238.679 39.4943 238.679 39.6818C238.679 39.8693 238.608 40.0298 238.466 40.1634C238.327 40.2969 238.159 40.3636 237.963 40.3636ZM240.299 48V41.4545H241.271V42.4773H241.356C241.493 42.1278 241.713 41.8565 242.017 41.6634C242.321 41.4673 242.686 41.3693 243.112 41.3693C243.544 41.3693 243.903 41.4673 244.19 41.6634C244.48 41.8565 244.706 42.1278 244.868 42.4773H244.936C245.103 42.1392 245.355 41.8707 245.69 41.6719C246.025 41.4702 246.427 41.3693 246.896 41.3693C247.481 41.3693 247.96 41.5526 248.332 41.919C248.704 42.2827 248.89 42.8494 248.89 43.6193V48H247.885V43.6193C247.885 43.1364 247.752 42.7912 247.488 42.5838C247.224 42.3764 246.913 42.2727 246.555 42.2727C246.095 42.2727 245.738 42.4119 245.485 42.6903C245.233 42.9659 245.106 43.3153 245.106 43.7386V48H244.083V43.517C244.083 43.1449 243.963 42.8452 243.721 42.6179C243.48 42.3878 243.169 42.2727 242.788 42.2727C242.527 42.2727 242.282 42.3423 242.055 42.4815C241.831 42.6207 241.649 42.8139 241.51 43.0611C241.373 43.3054 241.305 43.5881 241.305 43.9091V48H240.299ZM253.473 48.1364C252.843 48.1364 252.299 47.9972 251.841 47.7188C251.387 47.4375 251.036 47.0455 250.789 46.5426C250.544 46.0369 250.422 45.4489 250.422 44.7784C250.422 44.108 250.544 43.517 250.789 43.0057C251.036 42.4915 251.38 42.0909 251.82 41.804C252.263 41.5142 252.78 41.3693 253.371 41.3693C253.712 41.3693 254.049 41.4261 254.381 41.5398C254.713 41.6534 255.016 41.8381 255.289 42.0938C255.561 42.3466 255.779 42.6818 255.941 43.0994C256.103 43.517 256.184 44.0312 256.184 44.642V45.0682H251.138V44.1989H255.161C255.161 43.8295 255.087 43.5 254.939 43.2102C254.794 42.9205 254.587 42.6918 254.317 42.5241C254.05 42.3565 253.735 42.2727 253.371 42.2727C252.971 42.2727 252.624 42.3722 252.331 42.571C252.042 42.767 251.819 43.0227 251.662 43.3381C251.506 43.6534 251.428 43.9915 251.428 44.3523V44.9318C251.428 45.4261 251.513 45.8452 251.684 46.1889C251.857 46.5298 252.097 46.7898 252.404 46.9688C252.711 47.1449 253.067 47.233 253.473 47.233C253.738 47.233 253.976 47.196 254.189 47.1222C254.405 47.0455 254.591 46.9318 254.748 46.7812C254.904 46.6278 255.025 46.4375 255.11 46.2102L256.081 46.483C255.979 46.8125 255.807 47.1023 255.566 47.3523C255.324 47.5994 255.026 47.7926 254.671 47.9318C254.316 48.0682 253.917 48.1364 253.473 48.1364ZM272.168 43.7898V44.7273H260.168V43.7898H272.168ZM276.463 48V41.4545H277.435V42.4773H277.52C277.657 42.1278 277.877 41.8565 278.181 41.6634C278.485 41.4673 278.85 41.3693 279.276 41.3693C279.708 41.3693 280.067 41.4673 280.354 41.6634C280.644 41.8565 280.87 42.1278 281.032 42.4773H281.1C281.267 42.1392 281.519 41.8707 281.854 41.6719C282.189 41.4702 282.591 41.3693 283.06 41.3693C283.645 41.3693 284.124 41.5526 284.496 41.919C284.868 42.2827 285.054 42.8494 285.054 43.6193V48H284.049V43.6193C284.049 43.1364 283.917 42.7912 283.652 42.5838C283.388 42.3764 283.077 42.2727 282.719 42.2727C282.259 42.2727 281.902 42.4119 281.65 42.6903C281.397 42.9659 281.27 43.3153 281.27 43.7386V48H280.248V43.517C280.248 43.1449 280.127 42.8452 279.885 42.6179C279.644 42.3878 279.333 42.2727 278.952 42.2727C278.691 42.2727 278.446 42.3423 278.219 42.4815C277.995 42.6207 277.813 42.8139 277.674 43.0611C277.537 43.3054 277.469 43.5881 277.469 43.9091V48H276.463ZM287.306 50.4545C287.136 50.4545 286.984 50.4403 286.85 50.4119C286.717 50.3864 286.625 50.3608 286.574 50.3352L286.829 49.4489C287.074 49.5114 287.289 49.5341 287.477 49.517C287.664 49.5 287.831 49.4162 287.975 49.2656C288.123 49.1179 288.258 48.8778 288.38 48.5455L288.568 48.0341L286.147 41.4545H287.238L289.045 46.6705H289.113L290.92 41.4545H292.011L289.233 48.9545C289.108 49.2926 288.953 49.5724 288.768 49.794C288.583 50.0185 288.369 50.1847 288.125 50.2926C287.883 50.4006 287.61 50.4545 287.306 50.4545ZM298.64 48.1534C298.225 48.1534 297.848 48.0753 297.51 47.919C297.172 47.7599 296.904 47.5312 296.705 47.233C296.506 46.9318 296.407 46.5682 296.407 46.142C296.407 45.767 296.48 45.4631 296.628 45.2301C296.776 44.9943 296.973 44.8097 297.221 44.6761C297.468 44.5426 297.74 44.4432 298.039 44.3778C298.34 44.3097 298.642 44.2557 298.946 44.2159C299.344 44.1648 299.667 44.1264 299.914 44.1009C300.164 44.0724 300.346 44.0256 300.459 43.9602C300.576 43.8949 300.634 43.7812 300.634 43.6193V43.5852C300.634 43.1648 300.519 42.8381 300.289 42.6051C300.061 42.3722 299.716 42.2557 299.253 42.2557C298.773 42.2557 298.397 42.3608 298.124 42.571C297.851 42.7812 297.659 43.0057 297.549 43.2443L296.594 42.9034C296.765 42.5057 296.992 42.196 297.276 41.9744C297.563 41.75 297.875 41.5937 298.213 41.5057C298.554 41.4148 298.89 41.3693 299.219 41.3693C299.429 41.3693 299.671 41.3949 299.944 41.446C300.219 41.4943 300.485 41.5952 300.74 41.7486C300.999 41.902 301.213 42.1335 301.384 42.4432C301.554 42.7528 301.64 43.1676 301.64 43.6875V48H300.634V47.1136H300.583C300.515 47.2557 300.401 47.4077 300.242 47.5696C300.083 47.7315 299.871 47.8693 299.607 47.983C299.343 48.0966 299.02 48.1534 298.64 48.1534ZM298.793 47.25C299.191 47.25 299.526 47.1719 299.799 47.0156C300.074 46.8594 300.282 46.6577 300.421 46.4105C300.563 46.1634 300.634 45.9034 300.634 45.6307V44.7102C300.591 44.7614 300.498 44.8082 300.353 44.8509C300.211 44.8906 300.046 44.9261 299.858 44.9574C299.674 44.9858 299.493 45.0114 299.317 45.0341C299.144 45.054 299.003 45.071 298.895 45.0852C298.634 45.1193 298.39 45.1747 298.162 45.2514C297.938 45.3253 297.756 45.4375 297.617 45.5881C297.48 45.7358 297.412 45.9375 297.412 46.1932C297.412 46.5426 297.542 46.8068 297.8 46.9858C298.061 47.1619 298.392 47.25 298.793 47.25ZM303.612 48V39.2727H304.617V42.4943H304.702C304.776 42.3807 304.879 42.2358 305.009 42.0597C305.143 41.8807 305.333 41.7216 305.58 41.5824C305.83 41.4403 306.168 41.3693 306.594 41.3693C307.146 41.3693 307.631 41.5071 308.052 41.7827C308.472 42.0582 308.8 42.4489 309.036 42.9545C309.272 43.4602 309.39 44.0568 309.39 44.7443C309.39 45.4375 309.272 46.0384 309.036 46.5469C308.8 47.0526 308.474 47.4446 308.056 47.723C307.638 47.9986 307.157 48.1364 306.612 48.1364C306.191 48.1364 305.854 48.0668 305.602 47.9276C305.349 47.7855 305.154 47.625 305.018 47.446C304.881 47.2642 304.776 47.1136 304.702 46.9943H304.583V48H303.612ZM304.6 44.7273C304.6 45.2216 304.673 45.6577 304.817 46.0355C304.962 46.4105 305.174 46.7045 305.452 46.9176C305.731 47.1278 306.072 47.233 306.475 47.233C306.896 47.233 307.246 47.1222 307.528 46.9006C307.812 46.6761 308.025 46.375 308.167 45.9972C308.312 45.6165 308.384 45.1932 308.384 44.7273C308.384 44.267 308.313 43.8523 308.171 43.483C308.032 43.1108 307.82 42.8168 307.536 42.6009C307.255 42.3821 306.901 42.2727 306.475 42.2727C306.066 42.2727 305.722 42.3764 305.444 42.5838C305.165 42.7884 304.955 43.0753 304.813 43.4446C304.671 43.8111 304.6 44.2386 304.6 44.7273ZM315.565 42.9205L314.661 43.1761C314.604 43.0256 314.521 42.8793 314.41 42.7372C314.302 42.5923 314.154 42.473 313.967 42.3793C313.779 42.2855 313.539 42.2386 313.246 42.2386C312.846 42.2386 312.512 42.331 312.245 42.5156C311.981 42.6974 311.849 42.929 311.849 43.2102C311.849 43.4602 311.94 43.6577 312.121 43.8026C312.303 43.9474 312.587 44.0682 312.974 44.1648L313.945 44.4034C314.531 44.5455 314.967 44.7628 315.254 45.0554C315.54 45.3452 315.684 45.7187 315.684 46.1761C315.684 46.5511 315.576 46.8864 315.36 47.1818C315.147 47.4773 314.849 47.7102 314.465 47.8807C314.082 48.0511 313.636 48.1364 313.127 48.1364C312.46 48.1364 311.907 47.9915 311.469 47.7017C311.032 47.4119 310.755 46.9886 310.638 46.4318L311.593 46.1932C311.684 46.5455 311.856 46.8097 312.109 46.9858C312.364 47.1619 312.698 47.25 313.11 47.25C313.579 47.25 313.951 47.1506 314.227 46.9517C314.505 46.75 314.644 46.5085 314.644 46.2273C314.644 46 314.565 45.8097 314.406 45.6562C314.246 45.5 314.002 45.3835 313.673 45.3068L312.582 45.0511C311.982 44.9091 311.542 44.6889 311.261 44.3906C310.982 44.0895 310.843 43.7131 310.843 43.2614C310.843 42.892 310.947 42.5653 311.154 42.2812C311.364 41.9972 311.65 41.7741 312.011 41.6122C312.374 41.4503 312.786 41.3693 313.246 41.3693C313.894 41.3693 314.403 41.5114 314.772 41.7955C315.144 42.0795 315.408 42.4545 315.565 42.9205ZM319.857 48.1364C319.266 48.1364 318.748 47.9957 318.301 47.7145C317.858 47.4332 317.512 47.0398 317.262 46.5341C317.015 46.0284 316.891 45.4375 316.891 44.7614C316.891 44.0795 317.015 43.4844 317.262 42.9759C317.512 42.4673 317.858 42.0724 318.301 41.7912C318.748 41.5099 319.266 41.3693 319.857 41.3693C320.448 41.3693 320.965 41.5099 321.408 41.7912C321.854 42.0724 322.201 42.4673 322.448 42.9759C322.698 43.4844 322.823 44.0795 322.823 44.7614C322.823 45.4375 322.698 46.0284 322.448 46.5341C322.201 47.0398 321.854 47.4332 321.408 47.7145C320.965 47.9957 320.448 48.1364 319.857 48.1364ZM319.857 47.233C320.306 47.233 320.675 47.1179 320.965 46.8878C321.255 46.6577 321.469 46.3551 321.608 45.9801C321.748 45.6051 321.817 45.1989 321.817 44.7614C321.817 44.3239 321.748 43.9162 321.608 43.5384C321.469 43.1605 321.255 42.8551 320.965 42.6222C320.675 42.3892 320.306 42.2727 319.857 42.2727C319.408 42.2727 319.039 42.3892 318.749 42.6222C318.459 42.8551 318.245 43.1605 318.105 43.5384C317.966 43.9162 317.897 44.3239 317.897 44.7614C317.897 45.1989 317.966 45.6051 318.105 45.9801C318.245 46.3551 318.459 46.6577 318.749 46.8878C319.039 47.1179 319.408 47.233 319.857 47.233ZM325.364 39.2727V48H324.358V39.2727H325.364ZM331.331 45.3239V41.4545H332.336V48H331.331V46.892H331.262C331.109 47.2244 330.87 47.5071 330.547 47.7401C330.223 47.9702 329.814 48.0852 329.319 48.0852C328.91 48.0852 328.547 47.9957 328.228 47.8168C327.91 47.6349 327.66 47.3622 327.478 46.9986C327.297 46.6321 327.206 46.1705 327.206 45.6136V41.4545H328.211V45.5455C328.211 46.0227 328.345 46.4034 328.612 46.6875C328.882 46.9716 329.225 47.1136 329.643 47.1136C329.893 47.1136 330.147 47.0497 330.406 46.9219C330.667 46.794 330.886 46.598 331.062 46.3338C331.241 46.0696 331.331 45.733 331.331 45.3239ZM337.025 41.4545V42.3068H333.633V41.4545H337.025ZM334.621 39.8864H335.627V46.125C335.627 46.4091 335.668 46.6222 335.751 46.7642C335.836 46.9034 335.944 46.9972 336.075 47.0455C336.208 47.0909 336.349 47.1136 336.496 47.1136C336.607 47.1136 336.698 47.108 336.769 47.0966C336.84 47.0824 336.897 47.071 336.94 47.0625L337.144 47.9659C337.076 47.9915 336.981 48.017 336.859 48.0426C336.737 48.071 336.582 48.0852 336.394 48.0852C336.11 48.0852 335.832 48.0241 335.559 47.902C335.289 47.7798 335.065 47.5938 334.886 47.3438C334.71 47.0938 334.621 46.7784 334.621 46.3977V39.8864ZM341.212 48.1364C340.581 48.1364 340.037 47.9972 339.58 47.7188C339.125 47.4375 338.774 47.0455 338.527 46.5426C338.283 46.0369 338.161 45.4489 338.161 44.7784C338.161 44.108 338.283 43.517 338.527 43.0057C338.774 42.4915 339.118 42.0909 339.558 41.804C340.001 41.5142 340.518 41.3693 341.109 41.3693C341.45 41.3693 341.787 41.4261 342.119 41.5398C342.452 41.6534 342.754 41.8381 343.027 42.0938C343.3 42.3466 343.517 42.6818 343.679 43.0994C343.841 43.517 343.922 44.0312 343.922 44.642V45.0682H338.876V44.1989H342.899C342.899 43.8295 342.825 43.5 342.678 43.2102C342.533 42.9205 342.325 42.6918 342.055 42.5241C341.788 42.3565 341.473 42.2727 341.109 42.2727C340.709 42.2727 340.362 42.3722 340.07 42.571C339.78 42.767 339.557 43.0227 339.401 43.3381C339.244 43.6534 339.166 43.9915 339.166 44.3523V44.9318C339.166 45.4261 339.251 45.8452 339.422 46.1889C339.595 46.5298 339.835 46.7898 340.142 46.9688C340.449 47.1449 340.805 47.233 341.212 47.233C341.476 47.233 341.714 47.196 341.928 47.1222C342.143 47.0455 342.33 46.9318 342.486 46.7812C342.642 46.6278 342.763 46.4375 342.848 46.2102L343.82 46.483C343.717 46.8125 343.545 47.1023 343.304 47.3523C343.063 47.5994 342.764 47.7926 342.409 47.9318C342.054 48.0682 341.655 48.1364 341.212 48.1364ZM75.8352 57.4545V58.3068H72.3068V57.4545H75.8352ZM73.3636 64V56.5511C73.3636 56.1761 73.4517 55.8636 73.6278 55.6136C73.804 55.3636 74.0327 55.1761 74.3139 55.0511C74.5952 54.9261 74.892 54.8636 75.2045 54.8636C75.4517 54.8636 75.6534 54.8835 75.8097 54.9233C75.9659 54.9631 76.0824 55 76.1591 55.0341L75.8693 55.9034C75.8182 55.8864 75.7472 55.8651 75.6562 55.8395C75.5682 55.8139 75.4517 55.8011 75.3068 55.8011C74.9744 55.8011 74.7344 55.8849 74.5866 56.0526C74.4418 56.2202 74.3693 56.4659 74.3693 56.7898V64H73.3636ZM78.9833 64.1534C78.5685 64.1534 78.1921 64.0753 77.854 63.919C77.516 63.7599 77.2475 63.5312 77.0487 63.233C76.8498 62.9318 76.7504 62.5682 76.7504 62.142C76.7504 61.767 76.8242 61.4631 76.9719 61.2301C77.1197 60.9943 77.3171 60.8097 77.5643 60.6761C77.8114 60.5426 78.0842 60.4432 78.3825 60.3778C78.6836 60.3097 78.9862 60.2557 79.2901 60.2159C79.6879 60.1648 80.0103 60.1264 80.2575 60.1009C80.5075 60.0724 80.6893 60.0256 80.8029 59.9602C80.9194 59.8949 80.9776 59.7812 80.9776 59.6193V59.5852C80.9776 59.1648 80.8626 58.8381 80.6325 58.6051C80.4052 58.3722 80.06 58.2557 79.5969 58.2557C79.1168 58.2557 78.7404 58.3608 78.4677 58.571C78.195 58.7812 78.0032 59.0057 77.8924 59.2443L76.9379 58.9034C77.1083 58.5057 77.3356 58.196 77.6197 57.9744C77.9066 57.75 78.2191 57.5937 78.5572 57.5057C78.8981 57.4148 79.2333 57.3693 79.5629 57.3693C79.7731 57.3693 80.0146 57.3949 80.2873 57.446C80.5629 57.4943 80.8285 57.5952 81.0842 57.7486C81.3427 57.902 81.5572 58.1335 81.7276 58.4432C81.8981 58.7528 81.9833 59.1676 81.9833 59.6875V64H80.9776V63.1136H80.9265C80.8583 63.2557 80.7447 63.4077 80.5856 63.5696C80.4265 63.7315 80.2148 63.8693 79.9506 63.983C79.6864 64.0966 79.364 64.1534 78.9833 64.1534ZM79.1367 63.25C79.5344 63.25 79.8697 63.1719 80.1424 63.0156C80.418 62.8594 80.6254 62.6577 80.7646 62.4105C80.9066 62.1634 80.9776 61.9034 80.9776 61.6307V60.7102C80.935 60.7614 80.8413 60.8082 80.6964 60.8509C80.5543 60.8906 80.3896 60.9261 80.2021 60.9574C80.0174 60.9858 79.837 61.0114 79.6609 61.0341C79.4876 61.054 79.3469 61.071 79.239 61.0852C78.9776 61.1193 78.7333 61.1747 78.506 61.2514C78.2816 61.3253 78.0998 61.4375 77.9606 61.5881C77.8242 61.7358 77.756 61.9375 77.756 62.1932C77.756 62.5426 77.8853 62.8068 78.1438 62.9858C78.4052 63.1619 78.7362 63.25 79.1367 63.25ZM88.9368 57.4545L86.5163 64H85.4936L83.0732 57.4545H84.1641L85.9709 62.6705H86.0391L87.8459 57.4545H88.9368ZM96.554 57.4545V58.3068H93.0256V57.4545H96.554ZM94.0824 64V56.5511C94.0824 56.1761 94.1705 55.8636 94.3466 55.6136C94.5227 55.3636 94.7514 55.1761 95.0327 55.0511C95.3139 54.9261 95.6108 54.8636 95.9233 54.8636C96.1705 54.8636 96.3722 54.8835 96.5284 54.9233C96.6847 54.9631 96.8011 55 96.8778 55.0341L96.5881 55.9034C96.5369 55.8864 96.4659 55.8651 96.375 55.8395C96.2869 55.8139 96.1705 55.8011 96.0256 55.8011C95.6932 55.8011 95.4531 55.8849 95.3054 56.0526C95.1605 56.2202 95.0881 56.4659 95.0881 56.7898V64H94.0824ZM100.353 64.1364C99.7621 64.1364 99.2436 63.9957 98.7976 63.7145C98.3544 63.4332 98.0078 63.0398 97.7578 62.5341C97.5107 62.0284 97.3871 61.4375 97.3871 60.7614C97.3871 60.0795 97.5107 59.4844 97.7578 58.9759C98.0078 58.4673 98.3544 58.0724 98.7976 57.7912C99.2436 57.5099 99.7621 57.3693 100.353 57.3693C100.944 57.3693 101.461 57.5099 101.904 57.7912C102.35 58.0724 102.697 58.4673 102.944 58.9759C103.194 59.4844 103.319 60.0795 103.319 60.7614C103.319 61.4375 103.194 62.0284 102.944 62.5341C102.697 63.0398 102.35 63.4332 101.904 63.7145C101.461 63.9957 100.944 64.1364 100.353 64.1364ZM100.353 63.233C100.802 63.233 101.171 63.1179 101.461 62.8878C101.751 62.6577 101.965 62.3551 102.104 61.9801C102.244 61.6051 102.313 61.1989 102.313 60.7614C102.313 60.3239 102.244 59.9162 102.104 59.5384C101.965 59.1605 101.751 58.8551 101.461 58.6222C101.171 58.3892 100.802 58.2727 100.353 58.2727C99.9041 58.2727 99.5348 58.3892 99.245 58.6222C98.9553 58.8551 98.7408 59.1605 98.6016 59.5384C98.4624 59.9162 98.3928 60.3239 98.3928 60.7614C98.3928 61.1989 98.4624 61.6051 98.6016 61.9801C98.7408 62.3551 98.9553 62.6577 99.245 62.8878C99.5348 63.1179 99.9041 63.233 100.353 63.233ZM104.854 64V57.4545H105.826V58.4432H105.894C106.013 58.1193 106.229 57.8565 106.542 57.6548C106.854 57.4531 107.206 57.3523 107.598 57.3523C107.672 57.3523 107.765 57.3537 107.875 57.3565C107.986 57.3594 108.07 57.3636 108.127 57.3693V58.392C108.093 58.3835 108.015 58.3707 107.892 58.3537C107.773 58.3338 107.647 58.3239 107.513 58.3239C107.195 58.3239 106.911 58.3906 106.661 58.5241C106.414 58.6548 106.218 58.8366 106.073 59.0696C105.931 59.2997 105.86 59.5625 105.86 59.858V64H104.854ZM114.177 64L112.183 57.4545H113.239L114.654 62.4659H114.722L116.12 57.4545H117.194L118.575 62.4489H118.643L120.058 57.4545H121.114L119.12 64H118.131L116.7 58.9716H116.597L115.165 64H114.177ZM122.444 64V57.4545H123.45V64H122.444ZM122.955 56.3636C122.759 56.3636 122.59 56.2969 122.448 56.1634C122.309 56.0298 122.239 55.8693 122.239 55.6818C122.239 55.4943 122.309 55.3338 122.448 55.2003C122.59 55.0668 122.759 55 122.955 55C123.151 55 123.319 55.0668 123.458 55.2003C123.6 55.3338 123.671 55.4943 123.671 55.6818C123.671 55.8693 123.6 56.0298 123.458 56.1634C123.319 56.2969 123.151 56.3636 122.955 56.3636ZM127.763 64.1364C127.218 64.1364 126.736 63.9986 126.319 63.723C125.901 63.4446 125.574 63.0526 125.338 62.5469C125.103 62.0384 124.985 61.4375 124.985 60.7443C124.985 60.0568 125.103 59.4602 125.338 58.9545C125.574 58.4489 125.902 58.0582 126.323 57.7827C126.743 57.5071 127.229 57.3693 127.78 57.3693C128.206 57.3693 128.543 57.4403 128.79 57.5824C129.04 57.7216 129.23 57.8807 129.361 58.0597C129.495 58.2358 129.598 58.3807 129.672 58.4943H129.757V55.2727H130.763V64H129.792V62.9943H129.672C129.598 63.1136 129.493 63.2642 129.357 63.446C129.221 63.625 129.026 63.7855 128.773 63.9276C128.52 64.0668 128.184 64.1364 127.763 64.1364ZM127.9 63.233C128.303 63.233 128.644 63.1278 128.922 62.9176C129.201 62.7045 129.412 62.4105 129.557 62.0355C129.702 61.6577 129.775 61.2216 129.775 60.7273C129.775 60.2386 129.703 59.8111 129.561 59.4446C129.419 59.0753 129.209 58.7884 128.931 58.5838C128.652 58.3764 128.309 58.2727 127.9 58.2727C127.473 58.2727 127.118 58.3821 126.834 58.6009C126.553 58.8168 126.341 59.1108 126.199 59.483C126.06 59.8523 125.99 60.267 125.99 60.7273C125.99 61.1932 126.061 61.6165 126.203 61.9972C126.348 62.375 126.561 62.6761 126.843 62.9006C127.127 63.1222 127.479 63.233 127.9 63.233ZM135.489 64.1364C134.858 64.1364 134.314 63.9972 133.857 63.7188C133.402 63.4375 133.051 63.0455 132.804 62.5426C132.56 62.0369 132.438 61.4489 132.438 60.7784C132.438 60.108 132.56 59.517 132.804 59.0057C133.051 58.4915 133.395 58.0909 133.836 57.804C134.279 57.5142 134.796 57.3693 135.387 57.3693C135.728 57.3693 136.064 57.4261 136.397 57.5398C136.729 57.6534 137.032 57.8381 137.304 58.0938C137.577 58.3466 137.794 58.6818 137.956 59.0994C138.118 59.517 138.199 60.0312 138.199 60.642V61.0682H133.154V60.1989H137.176C137.176 59.8295 137.103 59.5 136.955 59.2102C136.81 58.9205 136.603 58.6918 136.333 58.5241C136.066 58.3565 135.75 58.2727 135.387 58.2727C134.986 58.2727 134.64 58.3722 134.347 58.571C134.057 58.767 133.834 59.0227 133.678 59.3381C133.522 59.6534 133.444 59.9915 133.444 60.3523V60.9318C133.444 61.4261 133.529 61.8452 133.699 62.1889C133.873 62.5298 134.113 62.7898 134.419 62.9688C134.726 63.1449 135.083 63.233 135.489 63.233C135.753 63.233 135.992 63.196 136.205 63.1222C136.421 63.0455 136.607 62.9318 136.763 62.7812C136.919 62.6278 137.04 62.4375 137.125 62.2102L138.097 62.483C137.995 62.8125 137.823 63.1023 137.581 63.3523C137.34 63.5994 137.042 63.7926 136.686 63.9318C136.331 64.0682 135.932 64.1364 135.489 64.1364ZM145.03 64.1534C144.615 64.1534 144.239 64.0753 143.901 63.919C143.563 63.7599 143.294 63.5312 143.096 63.233C142.897 62.9318 142.797 62.5682 142.797 62.142C142.797 61.767 142.871 61.4631 143.019 61.2301C143.167 60.9943 143.364 60.8097 143.611 60.6761C143.858 60.5426 144.131 60.4432 144.429 60.3778C144.73 60.3097 145.033 60.2557 145.337 60.2159C145.735 60.1648 146.057 60.1264 146.304 60.1009C146.554 60.0724 146.736 60.0256 146.85 59.9602C146.966 59.8949 147.025 59.7812 147.025 59.6193V59.5852C147.025 59.1648 146.909 58.8381 146.679 58.6051C146.452 58.3722 146.107 58.2557 145.644 58.2557C145.164 58.2557 144.787 58.3608 144.515 58.571C144.242 58.7812 144.05 59.0057 143.939 59.2443L142.985 58.9034C143.155 58.5057 143.382 58.196 143.667 57.9744C143.953 57.75 144.266 57.5937 144.604 57.5057C144.945 57.4148 145.28 57.3693 145.61 57.3693C145.82 57.3693 146.061 57.3949 146.334 57.446C146.61 57.4943 146.875 57.5952 147.131 57.7486C147.39 57.902 147.604 58.1335 147.775 58.4432C147.945 58.7528 148.03 59.1676 148.03 59.6875V64H147.025V63.1136H146.973C146.905 63.2557 146.792 63.4077 146.632 63.5696C146.473 63.7315 146.262 63.8693 145.998 63.983C145.733 64.0966 145.411 64.1534 145.03 64.1534ZM145.184 63.25C145.581 63.25 145.917 63.1719 146.189 63.0156C146.465 62.8594 146.672 62.6577 146.811 62.4105C146.953 62.1634 147.025 61.9034 147.025 61.6307V60.7102C146.982 60.7614 146.888 60.8082 146.743 60.8509C146.601 60.8906 146.436 60.9261 146.249 60.9574C146.064 60.9858 145.884 61.0114 145.708 61.0341C145.534 61.054 145.394 61.071 145.286 61.0852C145.025 61.1193 144.78 61.1747 144.553 61.2514C144.328 61.3253 144.147 61.4375 144.007 61.5881C143.871 61.7358 143.803 61.9375 143.803 62.1932C143.803 62.5426 143.932 62.8068 144.191 62.9858C144.452 63.1619 144.783 63.25 145.184 63.25ZM150.871 60.0625V64H149.866V57.4545H150.837V58.4773H150.923C151.076 58.1449 151.309 57.8778 151.621 57.6761C151.934 57.4716 152.337 57.3693 152.832 57.3693C153.275 57.3693 153.663 57.4602 153.995 57.642C154.327 57.821 154.586 58.0938 154.771 58.4602C154.955 58.8239 155.048 59.2841 155.048 59.8409V64H154.042V59.9091C154.042 59.3949 153.908 58.9943 153.641 58.7074C153.374 58.4176 153.008 58.2727 152.542 58.2727C152.221 58.2727 151.934 58.3423 151.681 58.4815C151.431 58.6207 151.234 58.8239 151.089 59.0909C150.944 59.358 150.871 59.6818 150.871 60.0625ZM159.527 66.5909C159.042 66.5909 158.624 66.5284 158.275 66.4034C157.925 66.2812 157.634 66.1193 157.401 65.9176C157.171 65.7188 156.988 65.5057 156.851 65.2784L157.652 64.7159C157.743 64.8352 157.858 64.9716 157.998 65.125C158.137 65.2812 158.327 65.4162 158.569 65.5298C158.813 65.6463 159.132 65.7045 159.527 65.7045C160.056 65.7045 160.492 65.5767 160.836 65.321C161.179 65.0653 161.351 64.6648 161.351 64.1193V62.7898H161.266C161.192 62.9091 161.087 63.0568 160.951 63.233C160.817 63.4062 160.624 63.5611 160.371 63.6974C160.121 63.831 159.783 63.8977 159.357 63.8977C158.828 63.8977 158.354 63.7727 157.934 63.5227C157.516 63.2727 157.185 62.9091 156.941 62.4318C156.699 61.9545 156.578 61.375 156.578 60.6932C156.578 60.0227 156.696 59.4389 156.932 58.9418C157.168 58.4418 157.496 58.0554 157.917 57.7827C158.337 57.5071 158.823 57.3693 159.374 57.3693C159.8 57.3693 160.138 57.4403 160.388 57.5824C160.641 57.7216 160.834 57.8807 160.968 58.0597C161.104 58.2358 161.209 58.3807 161.283 58.4943H161.385V57.4545H162.357V64.1875C162.357 64.75 162.229 65.2074 161.973 65.5597C161.721 65.9148 161.38 66.1747 160.951 66.3395C160.525 66.5071 160.05 66.5909 159.527 66.5909ZM159.493 62.9943C159.897 62.9943 160.238 62.902 160.516 62.7173C160.794 62.5327 161.006 62.267 161.151 61.9205C161.296 61.5739 161.368 61.1591 161.368 60.6761C161.368 60.2045 161.297 59.7884 161.155 59.4276C161.013 59.0668 160.803 58.7841 160.525 58.5795C160.246 58.375 159.902 58.2727 159.493 58.2727C159.067 58.2727 158.712 58.3807 158.428 58.5966C158.147 58.8125 157.935 59.1023 157.793 59.4659C157.654 59.8295 157.584 60.233 157.584 60.6761C157.584 61.1307 157.655 61.5327 157.797 61.8821C157.942 62.2287 158.155 62.5014 158.436 62.7003C158.721 62.8963 159.073 62.9943 159.493 62.9943ZM165.203 55.2727V64H164.198V55.2727H165.203ZM169.79 64.1364C169.159 64.1364 168.615 63.9972 168.158 63.7188C167.703 63.4375 167.352 63.0455 167.105 62.5426C166.861 62.0369 166.739 61.4489 166.739 60.7784C166.739 60.108 166.861 59.517 167.105 59.0057C167.352 58.4915 167.696 58.0909 168.136 57.804C168.58 57.5142 169.097 57.3693 169.688 57.3693C170.028 57.3693 170.365 57.4261 170.697 57.5398C171.03 57.6534 171.332 57.8381 171.605 58.0938C171.878 58.3466 172.095 58.6818 172.257 59.0994C172.419 59.517 172.5 60.0312 172.5 60.642V61.0682H167.455V60.1989H171.477C171.477 59.8295 171.403 59.5 171.256 59.2102C171.111 58.9205 170.903 58.6918 170.634 58.5241C170.366 58.3565 170.051 58.2727 169.688 58.2727C169.287 58.2727 168.94 58.3722 168.648 58.571C168.358 58.767 168.135 59.0227 167.979 59.3381C167.822 59.6534 167.744 59.9915 167.744 60.3523V60.9318C167.744 61.4261 167.83 61.8452 168 62.1889C168.173 62.5298 168.413 62.7898 168.72 62.9688C169.027 63.1449 169.384 63.233 169.79 63.233C170.054 63.233 170.293 63.196 170.506 63.1222C170.722 63.0455 170.908 62.9318 171.064 62.7812C171.22 62.6278 171.341 62.4375 171.426 62.2102L172.398 62.483C172.295 62.8125 172.124 63.1023 171.882 63.3523C171.641 63.5994 171.342 63.7926 170.987 63.9318C170.632 64.0682 170.233 64.1364 169.79 64.1364ZM178.666 58.9205L177.763 59.1761C177.706 59.0256 177.622 58.8793 177.511 58.7372C177.403 58.5923 177.256 58.473 177.068 58.3793C176.881 58.2855 176.641 58.2386 176.348 58.2386C175.947 58.2386 175.614 58.331 175.347 58.5156C175.082 58.6974 174.95 58.929 174.95 59.2102C174.95 59.4602 175.041 59.6577 175.223 59.8026C175.405 59.9474 175.689 60.0682 176.075 60.1648L177.047 60.4034C177.632 60.5455 178.068 60.7628 178.355 61.0554C178.642 61.3452 178.786 61.7187 178.786 62.1761C178.786 62.5511 178.678 62.8864 178.462 63.1818C178.249 63.4773 177.95 63.7102 177.567 63.8807C177.183 64.0511 176.737 64.1364 176.229 64.1364C175.561 64.1364 175.009 63.9915 174.571 63.7017C174.134 63.4119 173.857 62.9886 173.74 62.4318L174.695 62.1932C174.786 62.5455 174.957 62.8097 175.21 62.9858C175.466 63.1619 175.8 63.25 176.212 63.25C176.68 63.25 177.053 63.1506 177.328 62.9517C177.607 62.75 177.746 62.5085 177.746 62.2273C177.746 62 177.666 61.8097 177.507 61.6562C177.348 61.5 177.104 61.3835 176.774 61.3068L175.683 61.0511C175.084 60.9091 174.643 60.6889 174.362 60.3906C174.084 60.0895 173.945 59.7131 173.945 59.2614C173.945 58.892 174.048 58.5653 174.256 58.2812C174.466 57.9972 174.751 57.7741 175.112 57.6122C175.476 57.4503 175.888 57.3693 176.348 57.3693C176.996 57.3693 177.504 57.5114 177.874 57.7955C178.246 58.0795 178.51 58.4545 178.666 58.9205Z" fill="white"/>
<g clip-path="url(#clip0_336_27536)">
<path d="M243.963 27.1375C241.347 27.1375 238.525 25.4969 238.525 21.8969C238.525 18.2969 241.347 16.6562 243.963 16.6562C245.416 16.6562 246.756 17.1344 247.75 18.0063C248.828 18.9625 249.4 20.3125 249.4 21.8969C249.4 23.4813 248.828 24.8219 247.75 25.7781C246.756 26.65 245.406 27.1375 243.963 27.1375Z" fill="url(#paint1_radial_336_27536)"/>
<path d="M248.452 18.7815C248.952 19.5877 249.213 20.5477 249.213 21.6156C249.213 23.1999 248.641 24.5406 247.563 25.4968C246.569 26.3687 245.219 26.8562 243.775 26.8562C242.082 26.8562 240.306 26.1671 239.258 24.7056C240.267 26.3612 242.164 27.1374 243.963 27.1374C245.406 27.1374 246.756 26.6499 247.75 25.7781C248.828 24.8218 249.4 23.4812 249.4 21.8968C249.4 20.7024 249.075 19.6412 248.452 18.7815Z" fill="#EB8F00"/>
<path d="M244.037 23.8093C243.702 23.8093 243.369 23.753 243.053 23.6405C242.664 23.5065 242.241 23.7136 242.107 24.1018C242.031 24.3211 242.062 24.563 242.191 24.7561C242.594 25.3749 243.231 25.7124 244.037 25.7124C244.844 25.7124 245.481 25.3749 245.884 24.7561C246.112 24.414 246.018 23.9518 245.676 23.724C245.581 23.6606 245.472 23.62 245.359 23.6056C245.245 23.5911 245.13 23.6031 245.022 23.6405C244.706 23.753 244.373 23.8093 244.037 23.8093Z" fill="#422B0D"/>
<path opacity="0.8" d="M241.206 24.3625C242.112 24.3625 242.847 23.67 242.847 22.8157C242.847 21.9614 242.112 21.2688 241.206 21.2688C240.3 21.2688 239.566 21.9614 239.566 22.8157C239.566 23.67 240.3 24.3625 241.206 24.3625Z" fill="url(#paint2_radial_336_27536)"/>
<path opacity="0.8" d="M246.869 24.3625C247.775 24.3625 248.509 23.67 248.509 22.8157C248.509 21.9614 247.775 21.2688 246.869 21.2688C245.963 21.2688 245.228 21.9614 245.228 22.8157C245.228 23.67 245.963 24.3625 246.869 24.3625Z" fill="url(#paint3_radial_336_27536)"/>
<path d="M248.087 19.2222C247.317 19.0056 246.752 19.6347 246.752 19.6347C246.752 19.6347 246.686 18.9212 246.028 18.6972C245.238 18.4262 244.405 18.8575 244.355 19.9759C244.299 21.25 245.985 22.9225 245.985 22.9225C245.985 22.9225 248.077 22.36 248.762 21.1675C249.32 20.1972 248.669 19.3853 248.087 19.2222Z" fill="#F44336"/>
<path d="M248.087 19.2222C247.992 19.1971 247.895 19.1855 247.797 19.1875C248.072 19.3719 248.291 19.6298 248.427 19.9319C248.559 20.2497 248.594 20.6604 248.342 21.1507C247.798 22.2166 246.121 22.8766 245.999 22.9225C246.152 22.8794 248.107 22.3169 248.766 21.1704C249.32 20.1972 248.669 19.3854 248.087 19.2222ZM246.751 19.75C246.745 19.6525 246.73 19.555 246.707 19.4594C246.681 19.323 246.625 19.1939 246.544 19.0807C246.463 18.9676 246.359 18.8729 246.239 18.8032C246.072 18.7057 245.887 18.6438 245.696 18.6204C245.696 18.6204 245.977 18.7057 246.178 19.0947C246.28 19.2991 246.341 19.5222 246.356 19.75C246.355 19.8335 246.37 19.915 246.4 19.9929C246.434 20.0707 246.516 20.1166 246.601 20.1035C246.729 20.0707 246.757 19.9104 246.751 19.75Z" fill="#C62828"/>
<path d="M244.928 19.3028C245.103 19.0853 245.391 18.8781 245.667 19.0694C245.813 19.1715 245.815 19.4612 245.636 19.5915C245.334 19.8128 245.32 19.9581 245.286 20.08C245.245 20.2253 245.219 20.3987 245.087 20.4719C244.954 20.545 244.838 20.4719 244.769 20.2628C244.651 19.9365 244.711 19.5728 244.928 19.3028Z" fill="#FF847A"/>
<path d="M241.817 18.6785C241.057 18.9251 240.935 19.7623 240.935 19.7623C240.935 19.7623 240.485 19.1998 239.81 19.3816C239.005 19.5935 238.55 20.4148 239.125 21.3719C239.791 22.4688 242.119 22.9235 242.119 22.9235C242.119 22.9235 243.549 21.296 243.459 19.9235C243.385 18.806 242.392 18.4919 241.817 18.6785Z" fill="#F44336"/>
<path d="M241.818 18.6785C241.725 18.7085 241.636 18.7516 241.554 18.806C241.886 18.8069 242.21 18.9007 242.492 19.0769C242.778 19.2644 243.034 19.5907 243.098 20.1391C243.236 21.3288 242.205 22.8073 242.125 22.9151C242.229 22.7951 243.544 21.2426 243.458 19.9226C243.385 18.806 242.392 18.4919 241.818 18.6785ZM241 19.8607C240.942 19.781 240.876 19.7079 240.803 19.6423C240.606 19.4416 240.333 19.3348 240.053 19.3498C239.861 19.361 239.673 19.4107 239.5 19.4979C239.5 19.4979 239.781 19.4126 240.164 19.6263C240.363 19.7416 240.537 19.8963 240.676 20.0801C240.721 20.1504 240.779 20.2104 240.847 20.2582C240.918 20.3041 241.012 20.2957 241.075 20.2385C241.158 20.1373 241.094 19.9891 241 19.8607Z" fill="#C62828"/>
<path d="M239.237 20.5001C239.241 20.4213 239.255 20.3435 239.279 20.2685C239.317 20.111 239.429 19.9807 239.578 19.9179C239.721 19.8729 239.92 19.9048 239.997 20.0482C240.065 20.1757 240.016 20.3295 239.978 20.4701C239.944 20.6313 239.926 20.7963 239.922 20.9613C239.922 21.0261 239.897 21.0884 239.852 21.1346C239.807 21.1808 239.745 21.2071 239.68 21.2079C239.552 21.2079 239.453 21.0973 239.382 20.9913C239.282 20.8472 239.232 20.675 239.237 20.5001Z" fill="#FF847A"/>
</g>
<path d="M185.366 56.6817H184.218C184.065 56.6817 183.941 56.5579 183.941 56.4051V55.7282C183.941 55.5754 184.065 55.4517 184.218 55.4517H185.366C185.519 55.4517 185.643 55.5754 185.643 55.7282V56.4051C185.643 56.4784 185.613 56.5486 185.562 56.6004C185.51 56.6522 185.44 56.6814 185.366 56.6817Z" fill="#90A4AE"/>
<path d="M184.526 56.7987H184.151V55.8237C184.151 55.7206 184.236 55.6362 184.339 55.6362C184.442 55.6362 184.526 55.7206 184.526 55.8237V56.7987Z" fill="#94D1E0"/>
<path d="M186.971 56.3563H186.455C186.352 56.3563 186.268 56.2729 186.268 56.1698V55.6532C186.268 55.5501 186.318 55.5051 186.455 55.4666C186.592 55.4282 186.841 55.4235 186.971 55.4666C187.078 55.5023 187.158 55.5501 187.158 55.6532V56.1698C187.158 56.2729 187.073 56.3563 186.971 56.3563Z" fill="#546E7A"/>
<path d="M183.375 58.522H194.625V64.1601H183.375V58.522Z" fill="#212121"/>
<path d="M183.375 64.0325V64.2884C183.375 64.474 183.526 64.625 183.712 64.625H194.289C194.475 64.625 194.626 64.474 194.626 64.2884V64.0325H183.375Z" fill="#B0BEC5"/>
<path d="M187.063 56.8016H186.361C186.132 56.8016 185.947 56.6159 185.947 56.3872V56.3262C185.947 56.0975 186.132 55.9119 186.361 55.9119H187.063C187.292 55.9119 187.477 56.0975 187.477 56.3262V56.3872C187.478 56.4416 187.467 56.4956 187.446 56.5459C187.425 56.5962 187.395 56.642 187.356 56.6805C187.318 56.719 187.272 56.7495 187.222 56.7703C187.171 56.791 187.118 56.8017 187.063 56.8016Z" fill="#90A4AE"/>
<path d="M194.412 56.2024H183.755C183.545 56.2024 183.375 56.3721 183.375 56.5821V58.6183H194.625V56.4152C194.625 56.2971 194.529 56.2024 194.412 56.2024Z" fill="#B0BEC5"/>
<path d="M193.546 58.1788H191.844C191.797 58.1788 191.751 58.1598 191.717 58.126C191.683 58.0923 191.664 58.0465 191.664 57.9987V56.8128C191.664 56.7134 191.745 56.6328 191.844 56.6328H193.546C193.645 56.6328 193.726 56.7134 193.726 56.8128V57.9997C193.726 58.0981 193.646 58.1788 193.546 58.1788Z" fill="#78909C"/>
<path d="M191.664 57.9538V56.8325C191.664 56.7219 191.753 56.6328 191.864 56.6328H193.532C193.626 56.6328 193.664 56.6844 193.664 56.6844L191.729 58.13C191.729 58.13 191.664 58.0906 191.664 57.9538Z" fill="#757575"/>
<path d="M192.041 56.915H193.349V57.8966H192.041V56.915Z" fill="#212121"/>
<path d="M183.992 63.8629H183.534C183.446 63.8629 183.375 63.7916 183.375 63.7035V59.4013C183.375 59.3132 183.446 59.2419 183.534 59.2419H183.992C184.08 59.2419 184.151 59.3132 184.151 59.4013V63.7035C184.151 63.7916 184.079 63.8629 183.992 63.8629ZM194.464 63.8629H194.006C193.918 63.8629 193.847 63.7916 193.847 63.7035V59.4013C193.847 59.3132 193.918 59.2419 194.006 59.2419H194.464C194.552 59.2419 194.623 59.3132 194.623 59.4013V63.7035C194.623 63.7916 194.552 63.8629 194.464 63.8629Z" fill="#616161"/>
<path d="M183.754 64.4975C183.651 64.4975 183.566 64.4131 183.566 64.31V64.0812H183.941V64.31C183.941 64.3597 183.922 64.4074 183.886 64.4426C183.851 64.4777 183.804 64.4975 183.754 64.4975ZM194.424 58.4862H194.049V56.5737C194.049 56.4706 194.134 56.3862 194.237 56.3862C194.34 56.3862 194.424 56.4706 194.424 56.5737V58.4862ZM184.046 58.4862H183.671V56.5737C183.671 56.4706 183.756 56.3862 183.859 56.3862C183.962 56.3862 184.046 56.4706 184.046 56.5737V58.4862ZM194.237 64.4975C194.134 64.4975 194.049 64.4131 194.049 64.31V64.0812H194.424V64.31C194.424 64.3597 194.405 64.4074 194.369 64.4426C194.334 64.4777 194.287 64.4975 194.237 64.4975Z" fill="#B9E4EA"/>
<path d="M188.698 57.7269C188.677 57.7269 188.66 57.71 188.66 57.6884V56.7181C188.66 56.6975 188.677 56.6797 188.698 56.6797H190.875C190.896 56.6797 190.913 56.6966 190.913 56.7181V57.6884C190.913 57.7091 190.897 57.7269 190.875 57.7269H188.698Z" fill="#FCEBCD"/>
<path d="M190.866 56.7275V57.68H188.707V56.7275H190.866ZM190.875 56.6328H188.698C188.651 56.6328 188.613 56.6712 188.613 56.7181V57.6884C188.613 57.7353 188.651 57.7737 188.698 57.7737H190.875C190.922 57.7737 190.96 57.7353 190.96 57.6884V56.7181C190.96 56.6712 190.923 56.6328 190.875 56.6328Z" fill="#78909C"/>
<path d="M189.051 57.5459C188.979 57.5459 188.921 57.4878 188.921 57.4166V56.9909C188.921 56.9197 188.979 56.8616 189.051 56.8616C189.122 56.8616 189.18 56.9197 189.18 56.9909V57.4166C189.18 57.4878 189.122 57.5459 189.051 57.5459ZM189.417 57.5459C189.363 57.5459 189.319 57.5019 189.319 57.4475V56.96C189.319 56.9339 189.329 56.9089 189.348 56.8904C189.366 56.8719 189.391 56.8616 189.417 56.8616C189.443 56.8616 189.468 56.8719 189.487 56.8904C189.505 56.9089 189.516 56.9339 189.516 56.96V57.4475C189.516 57.5019 189.472 57.5459 189.417 57.5459ZM189.74 57.5459C189.721 57.5459 189.702 57.5383 189.689 57.5248C189.675 57.5113 189.668 57.4929 189.668 57.4738V56.9347C189.668 56.9156 189.675 56.8972 189.689 56.8837C189.702 56.8701 189.721 56.8625 189.74 56.8625C189.759 56.8625 189.777 56.8701 189.791 56.8837C189.804 56.8972 189.812 56.9156 189.812 56.9347V57.4738C189.812 57.5131 189.78 57.5459 189.74 57.5459Z" fill="white"/>
<path d="M189.787 64.3532C191.484 64.3532 192.861 62.9769 192.861 61.2791C192.861 59.5814 191.484 58.2051 189.787 58.2051C188.089 58.2051 186.713 59.5814 186.713 61.2791C186.713 62.9769 188.089 64.3532 189.787 64.3532Z" fill="#616161"/>
<path d="M189.787 63.9482C191.261 63.9482 192.456 62.7533 192.456 61.2792C192.456 59.8051 191.261 58.6101 189.787 58.6101C188.313 58.6101 187.118 59.8051 187.118 61.2792C187.118 62.7533 188.313 63.9482 189.787 63.9482Z" fill="#E0E0E0"/>
<path d="M189.787 63.1849C190.839 63.1849 191.692 62.3316 191.692 61.279C191.692 60.2264 190.839 59.373 189.787 59.373C188.734 59.373 187.881 60.2264 187.881 61.279C187.881 62.3316 188.734 63.1849 189.787 63.1849Z" fill="#2F7889"/>
<path d="M189.787 63.7317C191.141 63.7317 192.239 62.6336 192.239 61.2792C192.239 59.9247 191.141 58.8267 189.787 58.8267C188.432 58.8267 187.334 59.9247 187.334 61.2792C187.334 62.6336 188.432 63.7317 189.787 63.7317Z" fill="black"/>
<path d="M189.787 63.1484C190.819 63.1484 191.656 62.3115 191.656 61.279C191.656 60.2466 190.819 59.4097 189.787 59.4097C188.754 59.4097 187.917 60.2466 187.917 61.279C187.917 62.3115 188.754 63.1484 189.787 63.1484Z" fill="#2F7889"/>
<path d="M189.344 59.7106C188.752 59.8447 188.399 60.4203 188.399 60.845C188.399 61.189 188.627 61.1028 188.7 60.9781C188.888 60.6584 189.116 60.3922 189.509 60.2806C189.667 60.2356 189.85 60.1372 189.832 59.9534C189.805 59.6919 189.546 59.6647 189.344 59.7106Z" fill="#94D1E0"/>
<path opacity="0.25" d="M189.787 62.1133C190.247 62.1133 190.621 61.7398 190.621 61.279C190.621 60.8181 190.247 60.4446 189.787 60.4446C189.326 60.4446 188.952 60.8181 188.952 61.279C188.952 61.7398 189.326 62.1133 189.787 62.1133Z" fill="black"/>
<path d="M36.5 58.875C40.1342 58.875 43.6868 57.7973 46.7086 55.7783C49.7304 53.7592 52.0855 50.8894 53.4763 47.5318C54.867 44.1742 55.2309 40.4796 54.5219 36.9152C53.8129 33.3508 52.0629 30.0767 49.4931 27.5069C46.9233 24.9371 43.6492 23.1871 40.0848 22.4781C36.5204 21.7691 32.8258 22.133 29.4682 23.5237C26.1106 24.9145 23.2408 27.2697 21.2217 30.2914C19.2027 33.3132 18.125 36.8658 18.125 40.5C18.125 43.538 18.86 46.4025 20.1667 48.926L18.125 58.875L28.074 56.8333C30.5975 58.14 33.464 58.875 36.5 58.875Z" stroke="url(#paint4_linear_336_27536)" stroke-width="4" stroke-linecap="round" stroke-linejoin="round"/>
<defs>
<linearGradient id="paint0_linear_336_27536" x1="9.23611" y1="6.34337" x2="160.275" y2="120.372" gradientUnits="userSpaceOnUse">
<stop stop-color="#1F1E21"/>
<stop offset="1" stop-color="#131216"/>
</linearGradient>
<radialGradient id="paint1_radial_336_27536" cx="0" cy="0" r="1" gradientUnits="userSpaceOnUse" gradientTransform="translate(243.963 21.8969) scale(5.34)">
<stop offset="0.5" stop-color="#FDE030"/>
<stop offset="0.92" stop-color="#F7C02B"/>
<stop offset="1" stop-color="#F4A223"/>
</radialGradient>
<radialGradient id="paint2_radial_336_27536" cx="0" cy="0" r="1" gradientUnits="userSpaceOnUse" gradientTransform="translate(241.206 22.1042) scale(1.78798 1.60553)">
<stop stop-color="#ED7770"/>
<stop offset="0.9" stop-color="#ED7770" stop-opacity="0"/>
</radialGradient>
<radialGradient id="paint3_radial_336_27536" cx="0" cy="0" r="1" gradientUnits="userSpaceOnUse" gradientTransform="translate(249.543 252.962) scale(1.82438)">
<stop stop-color="#ED7770"/>
<stop offset="0.9" stop-color="#ED7770" stop-opacity="0"/>
</radialGradient>
<linearGradient id="paint4_linear_336_27536" x1="36.5" y1="22.125" x2="36.5" y2="58.875" gradientUnits="userSpaceOnUse">
<stop stop-color="#940EAA"/>
<stop offset="1" stop-color="#5E10CC"/>
</linearGradient>
<clipPath id="clip0_336_27536">
<rect width="12" height="12" fill="white" transform="translate(238 16)"/>
</clipPath>
</defs>
</svg>
