<svg width="288" height="81" viewBox="0 0 288 81" fill="none" xmlns="http://www.w3.org/2000/svg">
<rect x="0.5" y="0.5" width="287" height="80" rx="9.5" fill="url(#paint0_linear_332_27528)" stroke="#303030"/>
<path d="M72.7585 22.2727H75.0341L77.4375 28.1364H77.5398L79.9432 22.2727H82.2188V31H80.429V25.3196H80.3565L78.098 30.9574H76.8793L74.6207 25.2983H74.5483V31H72.7585V22.2727ZM84.8256 33.4545C84.5955 33.4545 84.3796 33.4361 84.1779 33.3991C83.979 33.3651 83.8143 33.321 83.6836 33.267L84.0927 31.9119C84.3058 31.9773 84.4975 32.0128 84.668 32.0185C84.8413 32.0241 84.9904 31.9844 85.1154 31.8991C85.2433 31.8139 85.3469 31.669 85.4265 31.4645L85.533 31.1875L83.185 24.4545H85.0941L86.4492 29.2614H86.5174L87.8853 24.4545H89.8072L87.2631 31.7074C87.141 32.0597 86.9748 32.3665 86.7646 32.6278C86.5572 32.892 86.2944 33.0952 85.9762 33.2372C85.658 33.3821 85.2745 33.4545 84.8256 33.4545ZM90.7362 31V24.4545H92.4961V25.5966H92.5643C92.6836 25.1903 92.8839 24.8835 93.1651 24.6761C93.4464 24.4659 93.7702 24.3608 94.1367 24.3608C94.2276 24.3608 94.3256 24.3665 94.4308 24.3778C94.5359 24.3892 94.6282 24.4048 94.7077 24.4247V26.0355C94.6225 26.0099 94.5046 25.9872 94.354 25.9673C94.2035 25.9474 94.0657 25.9375 93.9407 25.9375C93.6737 25.9375 93.435 25.9957 93.2248 26.1122C93.0174 26.2259 92.8526 26.3849 92.7305 26.5895C92.6112 26.794 92.5515 27.0298 92.5515 27.2969V31H90.7362ZM97.3253 31.1236C96.9077 31.1236 96.5355 31.0511 96.2088 30.9062C95.8821 30.7585 95.6236 30.5412 95.4332 30.2543C95.2457 29.9645 95.152 29.6037 95.152 29.1719C95.152 28.8082 95.2188 28.5028 95.3523 28.2557C95.4858 28.0085 95.6676 27.8097 95.8977 27.6591C96.1278 27.5085 96.3892 27.3949 96.6818 27.3182C96.9773 27.2415 97.2869 27.1875 97.6108 27.1562C97.9915 27.1165 98.2983 27.0795 98.5312 27.0455C98.7642 27.0085 98.9332 26.9545 99.0384 26.8835C99.1435 26.8125 99.196 26.7074 99.196 26.5682V26.5426C99.196 26.2727 99.1108 26.0639 98.9403 25.9162C98.7727 25.7685 98.5341 25.6946 98.2244 25.6946C97.8977 25.6946 97.6378 25.767 97.4446 25.9119C97.2514 26.054 97.1236 26.233 97.0611 26.4489L95.3821 26.3125C95.4673 25.9148 95.6349 25.571 95.8849 25.2812C96.1349 24.9886 96.4574 24.7642 96.8523 24.608C97.25 24.4489 97.7102 24.3693 98.233 24.3693C98.5966 24.3693 98.9446 24.4119 99.277 24.4972C99.6122 24.5824 99.9091 24.7145 100.168 24.8935C100.429 25.0724 100.635 25.3026 100.786 25.5838C100.936 25.8622 101.011 26.196 101.011 26.5852V31H99.2898V30.0923H99.2386C99.1335 30.2969 98.9929 30.4773 98.8168 30.6335C98.6406 30.7869 98.429 30.9077 98.1818 30.9957C97.9347 31.081 97.6491 31.1236 97.3253 31.1236ZM97.8452 29.8707C98.1122 29.8707 98.348 29.8182 98.5526 29.7131C98.7571 29.6051 98.9176 29.4602 99.0341 29.2784C99.1506 29.0966 99.2088 28.8906 99.2088 28.6605V27.9659C99.152 28.0028 99.0739 28.0369 98.9744 28.0682C98.8778 28.0966 98.7685 28.1236 98.6463 28.1491C98.5241 28.1719 98.402 28.1932 98.2798 28.2131C98.1577 28.2301 98.0469 28.2457 97.9474 28.2599C97.7344 28.2912 97.5483 28.3409 97.3892 28.4091C97.2301 28.4773 97.1065 28.5696 97.0185 28.6861C96.9304 28.7997 96.8864 28.9418 96.8864 29.1122C96.8864 29.3594 96.9759 29.5483 97.1548 29.679C97.3366 29.8068 97.5668 29.8707 97.8452 29.8707ZM108.725 22.2727H110.549V28.358C110.549 28.9205 110.423 29.4091 110.17 29.8239C109.92 30.2386 109.572 30.5582 109.126 30.7827C108.68 31.0071 108.162 31.1193 107.571 31.1193C107.045 31.1193 106.568 31.027 106.139 30.8423C105.713 30.6548 105.375 30.3707 105.125 29.9901C104.875 29.6065 104.751 29.125 104.754 28.5455H106.591C106.596 28.7756 106.643 28.973 106.731 29.1378C106.822 29.2997 106.946 29.4247 107.102 29.5128C107.261 29.598 107.449 29.6406 107.664 29.6406C107.892 29.6406 108.083 29.5923 108.24 29.4957C108.399 29.3963 108.52 29.2514 108.602 29.0611C108.684 28.8707 108.725 28.6364 108.725 28.358V22.2727ZM113.856 27.2159V31H112.041V22.2727H113.805V25.6094H113.882C114.029 25.223 114.268 24.9205 114.598 24.7017C114.927 24.4801 115.341 24.3693 115.838 24.3693C116.292 24.3693 116.689 24.4688 117.027 24.6676C117.368 24.8636 117.632 25.1463 117.819 25.5156C118.01 25.8821 118.103 26.321 118.1 26.8324V31H116.285V27.1562C116.288 26.7528 116.186 26.4389 115.978 26.2145C115.774 25.9901 115.487 25.8778 115.118 25.8778C114.87 25.8778 114.652 25.9304 114.461 26.0355C114.274 26.1406 114.126 26.294 114.018 26.4957C113.913 26.6946 113.859 26.9347 113.856 27.2159ZM122.487 31.1278C121.825 31.1278 121.252 30.9872 120.769 30.706C120.289 30.4219 119.918 30.027 119.657 29.5213C119.396 29.0128 119.265 28.4233 119.265 27.7528C119.265 27.0767 119.396 26.4858 119.657 25.9801C119.918 25.4716 120.289 25.0767 120.769 24.7955C121.252 24.5114 121.825 24.3693 122.487 24.3693C123.148 24.3693 123.719 24.5114 124.2 24.7955C124.683 25.0767 125.055 25.4716 125.316 25.9801C125.577 26.4858 125.708 27.0767 125.708 27.7528C125.708 28.4233 125.577 29.0128 125.316 29.5213C125.055 30.027 124.683 30.4219 124.2 30.706C123.719 30.9872 123.148 31.1278 122.487 31.1278ZM122.495 29.7216C122.796 29.7216 123.048 29.6364 123.249 29.4659C123.451 29.2926 123.603 29.0568 123.705 28.7585C123.81 28.4602 123.863 28.1207 123.863 27.7401C123.863 27.3594 123.81 27.0199 123.705 26.7216C123.603 26.4233 123.451 26.1875 123.249 26.0142C123.048 25.8409 122.796 25.7543 122.495 25.7543C122.191 25.7543 121.935 25.8409 121.728 26.0142C121.523 26.1875 121.369 26.4233 121.263 26.7216C121.161 27.0199 121.11 27.3594 121.11 27.7401C121.11 28.1207 121.161 28.4602 121.263 28.7585C121.369 29.0568 121.523 29.2926 121.728 29.4659C121.935 29.6364 122.191 29.7216 122.495 29.7216ZM128.704 27.2159V31H126.888V24.4545H128.619V25.6094H128.695C128.84 25.2287 129.083 24.9276 129.424 24.706C129.765 24.4815 130.178 24.3693 130.664 24.3693C131.119 24.3693 131.515 24.4688 131.853 24.6676C132.191 24.8665 132.454 25.1506 132.641 25.5199C132.829 25.8864 132.923 26.3239 132.923 26.8324V31H131.107V27.1562C131.11 26.7557 131.008 26.4432 130.8 26.2188C130.593 25.9915 130.308 25.8778 129.944 25.8778C129.7 25.8778 129.484 25.9304 129.296 26.0355C129.112 26.1406 128.967 26.294 128.862 26.4957C128.759 26.6946 128.707 26.9347 128.704 27.2159ZM135.414 31.1108C135.133 31.1108 134.892 31.0114 134.69 30.8125C134.491 30.6108 134.392 30.3693 134.392 30.0881C134.392 29.8097 134.491 29.571 134.69 29.3722C134.892 29.1733 135.133 29.0739 135.414 29.0739C135.687 29.0739 135.926 29.1733 136.13 29.3722C136.335 29.571 136.437 29.8097 136.437 30.0881C136.437 30.2756 136.389 30.4474 136.292 30.6037C136.199 30.7571 136.075 30.8807 135.922 30.9744C135.768 31.0653 135.599 31.1108 135.414 31.1108ZM135.414 26.5256C135.133 26.5256 134.892 26.4261 134.69 26.2273C134.491 26.0284 134.392 25.7869 134.392 25.5028C134.392 25.2244 134.491 24.9872 134.69 24.7912C134.892 24.5923 135.133 24.4929 135.414 24.4929C135.687 24.4929 135.926 24.5923 136.13 24.7912C136.335 24.9872 136.437 25.2244 136.437 25.5028C136.437 25.6932 136.389 25.8665 136.292 26.0227C136.199 26.1761 136.075 26.2983 135.922 26.3892C135.768 26.4801 135.599 26.5256 135.414 26.5256ZM145.81 24.4545C145.759 24.0227 145.551 23.6875 145.188 23.4489C144.824 23.2102 144.378 23.0909 143.85 23.0909C143.463 23.0909 143.125 23.1534 142.836 23.2784C142.549 23.4034 142.324 23.5753 142.162 23.794C142.003 24.0128 141.924 24.2614 141.924 24.5398C141.924 24.7727 141.979 24.973 142.09 25.1406C142.203 25.3054 142.348 25.4432 142.525 25.554C142.701 25.6619 142.885 25.7514 143.078 25.8224C143.272 25.8906 143.449 25.946 143.611 25.9886L144.498 26.2273C144.725 26.2869 144.978 26.3693 145.256 26.4744C145.537 26.5795 145.806 26.723 146.061 26.9048C146.32 27.0838 146.533 27.3139 146.701 27.5952C146.868 27.8764 146.952 28.2216 146.952 28.6307C146.952 29.1023 146.828 29.5284 146.581 29.9091C146.337 30.2898 145.979 30.5923 145.507 30.8168C145.039 31.0412 144.469 31.1534 143.799 31.1534C143.174 31.1534 142.632 31.0526 142.175 30.8509C141.721 30.6491 141.363 30.3679 141.101 30.0071C140.843 29.6463 140.696 29.2273 140.662 28.75H141.753C141.782 29.0795 141.892 29.3523 142.086 29.5682C142.282 29.7812 142.529 29.9403 142.827 30.0455C143.128 30.1477 143.452 30.1989 143.799 30.1989C144.202 30.1989 144.564 30.1335 144.885 30.0028C145.206 29.8693 145.461 29.6847 145.648 29.4489C145.836 29.2102 145.929 28.9318 145.929 28.6136C145.929 28.3239 145.848 28.0881 145.686 27.9062C145.525 27.7244 145.311 27.5767 145.047 27.4631C144.783 27.3494 144.498 27.25 144.191 27.1648L143.117 26.858C142.435 26.6619 141.895 26.3821 141.498 26.0185C141.1 25.6548 140.901 25.179 140.901 24.5909C140.901 24.1023 141.033 23.6761 141.297 23.3125C141.564 22.946 141.922 22.6619 142.371 22.4602C142.823 22.2557 143.327 22.1534 143.884 22.1534C144.446 22.1534 144.946 22.2543 145.384 22.456C145.821 22.6548 146.168 22.9276 146.424 23.2741C146.682 23.6207 146.819 24.0142 146.833 24.4545H145.81ZM152.678 28.3239V24.4545H153.684V31H152.678V29.892H152.61C152.457 30.2244 152.218 30.5071 151.894 30.7401C151.57 30.9702 151.161 31.0852 150.667 31.0852C150.258 31.0852 149.894 30.9957 149.576 30.8168C149.258 30.6349 149.008 30.3622 148.826 29.9986C148.644 29.6321 148.553 29.1705 148.553 28.6136V24.4545H149.559V28.5455C149.559 29.0227 149.692 29.4034 149.96 29.6875C150.229 29.9716 150.573 30.1136 150.991 30.1136C151.241 30.1136 151.495 30.0497 151.754 29.9219C152.015 29.794 152.234 29.598 152.41 29.3338C152.589 29.0696 152.678 28.733 152.678 28.3239ZM158.185 31.1364C157.571 31.1364 157.043 30.9915 156.6 30.7017C156.157 30.4119 155.816 30.0128 155.577 29.5043C155.338 28.9957 155.219 28.4148 155.219 27.7614C155.219 27.0966 155.341 26.5099 155.586 26.0014C155.833 25.4901 156.176 25.0909 156.617 24.804C157.06 24.5142 157.577 24.3693 158.168 24.3693C158.628 24.3693 159.043 24.4545 159.412 24.625C159.782 24.7955 160.084 25.0341 160.32 25.3409C160.556 25.6477 160.702 26.0057 160.759 26.4148H159.753C159.676 26.1165 159.506 25.8523 159.242 25.6222C158.98 25.3892 158.628 25.2727 158.185 25.2727C157.793 25.2727 157.449 25.375 157.154 25.5795C156.861 25.7812 156.632 26.0668 156.468 26.4361C156.306 26.8026 156.225 27.233 156.225 27.7273C156.225 28.233 156.304 28.6733 156.463 29.0483C156.625 29.4233 156.853 29.7145 157.145 29.9219C157.441 30.1293 157.787 30.233 158.185 30.233C158.446 30.233 158.684 30.1875 158.897 30.0966C159.11 30.0057 159.29 29.875 159.438 29.7045C159.586 29.5341 159.691 29.3295 159.753 29.0909H160.759C160.702 29.4773 160.561 29.8253 160.337 30.1349C160.115 30.4418 159.821 30.6861 159.455 30.8679C159.091 31.0469 158.668 31.1364 158.185 31.1364ZM163.235 27.0625V31H162.229V22.2727H163.235V25.4773H163.32C163.473 25.1392 163.703 24.8707 164.01 24.6719C164.32 24.4702 164.732 24.3693 165.246 24.3693C165.692 24.3693 166.083 24.4588 166.418 24.6378C166.753 24.8139 167.013 25.0852 167.198 25.4517C167.385 25.8153 167.479 26.2784 167.479 26.8409V31H166.473V26.9091C166.473 26.3892 166.338 25.9872 166.069 25.7031C165.801 25.4162 165.431 25.2727 164.956 25.2727C164.627 25.2727 164.331 25.3423 164.07 25.4815C163.811 25.6207 163.607 25.8239 163.456 26.0909C163.309 26.358 163.235 26.6818 163.235 27.0625ZM174.62 31.1534C174.205 31.1534 173.829 31.0753 173.491 30.919C173.153 30.7599 172.884 30.5312 172.685 30.233C172.487 29.9318 172.387 29.5682 172.387 29.142C172.387 28.767 172.461 28.4631 172.609 28.2301C172.756 27.9943 172.954 27.8097 173.201 27.6761C173.448 27.5426 173.721 27.4432 174.019 27.3778C174.32 27.3097 174.623 27.2557 174.927 27.2159C175.325 27.1648 175.647 27.1264 175.894 27.1009C176.144 27.0724 176.326 27.0256 176.44 26.9602C176.556 26.8949 176.614 26.7812 176.614 26.6193V26.5852C176.614 26.1648 176.499 25.8381 176.269 25.6051C176.042 25.3722 175.697 25.2557 175.234 25.2557C174.754 25.2557 174.377 25.3608 174.104 25.571C173.832 25.7812 173.64 26.0057 173.529 26.2443L172.575 25.9034C172.745 25.5057 172.972 25.196 173.256 24.9744C173.543 24.75 173.856 24.5937 174.194 24.5057C174.535 24.4148 174.87 24.3693 175.2 24.3693C175.41 24.3693 175.651 24.3949 175.924 24.446C176.2 24.4943 176.465 24.5952 176.721 24.7486C176.979 24.902 177.194 25.1335 177.364 25.4432C177.535 25.7528 177.62 26.1676 177.62 26.6875V31H176.614V30.1136H176.563C176.495 30.2557 176.381 30.4077 176.222 30.5696C176.063 30.7315 175.852 30.8693 175.587 30.983C175.323 31.0966 175.001 31.1534 174.62 31.1534ZM174.773 30.25C175.171 30.25 175.506 30.1719 175.779 30.0156C176.055 29.8594 176.262 29.6577 176.401 29.4105C176.543 29.1634 176.614 28.9034 176.614 28.6307V27.7102C176.572 27.7614 176.478 27.8082 176.333 27.8509C176.191 27.8906 176.026 27.9261 175.839 27.9574C175.654 27.9858 175.474 28.0114 175.298 28.0341C175.124 28.054 174.984 28.071 174.876 28.0852C174.614 28.1193 174.37 28.1747 174.143 28.2514C173.918 28.3253 173.737 28.4375 173.597 28.5881C173.461 28.7358 173.393 28.9375 173.393 29.1932C173.393 29.5426 173.522 29.8068 173.781 29.9858C174.042 30.1619 174.373 30.25 174.773 30.25ZM183.836 27.0625V31H182.831V24.4545H183.802V25.4773H183.887C184.041 25.1449 184.274 24.8778 184.586 24.6761C184.899 24.4716 185.302 24.3693 185.797 24.3693C186.24 24.3693 186.627 24.4602 186.96 24.642C187.292 24.821 187.551 25.0938 187.735 25.4602C187.92 25.8239 188.012 26.2841 188.012 26.8409V31H187.007V26.9091C187.007 26.3949 186.873 25.9943 186.606 25.7074C186.339 25.4176 185.973 25.2727 185.507 25.2727C185.186 25.2727 184.899 25.3423 184.646 25.4815C184.396 25.6207 184.199 25.8239 184.054 26.0909C183.909 26.358 183.836 26.6818 183.836 27.0625ZM189.85 31V24.4545H190.856V31H189.85ZM190.362 23.3636C190.165 23.3636 189.996 23.2969 189.854 23.1634C189.715 23.0298 189.646 22.8693 189.646 22.6818C189.646 22.4943 189.715 22.3338 189.854 22.2003C189.996 22.0668 190.165 22 190.362 22C190.558 22 190.725 22.0668 190.864 22.2003C191.006 22.3338 191.077 22.4943 191.077 22.6818C191.077 22.8693 191.006 23.0298 190.864 23.1634C190.725 23.2969 190.558 23.3636 190.362 23.3636ZM195.357 31.1364C194.743 31.1364 194.215 30.9915 193.772 30.7017C193.328 30.4119 192.988 30.0128 192.749 29.5043C192.51 28.9957 192.391 28.4148 192.391 27.7614C192.391 27.0966 192.513 26.5099 192.757 26.0014C193.005 25.4901 193.348 25.0909 193.789 24.804C194.232 24.5142 194.749 24.3693 195.34 24.3693C195.8 24.3693 196.215 24.4545 196.584 24.625C196.953 24.7955 197.256 25.0341 197.492 25.3409C197.728 25.6477 197.874 26.0057 197.931 26.4148H196.925C196.848 26.1165 196.678 25.8523 196.414 25.6222C196.152 25.3892 195.8 25.2727 195.357 25.2727C194.965 25.2727 194.621 25.375 194.326 25.5795C194.033 25.7812 193.804 26.0668 193.64 26.4361C193.478 26.8026 193.397 27.233 193.397 27.7273C193.397 28.233 193.476 28.6733 193.635 29.0483C193.797 29.4233 194.025 29.7145 194.317 29.9219C194.613 30.1293 194.959 30.233 195.357 30.233C195.618 30.233 195.855 30.1875 196.069 30.0966C196.282 30.0057 196.462 29.875 196.61 29.7045C196.757 29.5341 196.863 29.3295 196.925 29.0909H197.931C197.874 29.4773 197.733 29.8253 197.509 30.1349C197.287 30.4418 196.993 30.6861 196.627 30.8679C196.263 31.0469 195.84 31.1364 195.357 31.1364ZM202.145 31.1364C201.515 31.1364 200.971 30.9972 200.513 30.7188C200.059 30.4375 199.708 30.0455 199.461 29.5426C199.216 29.0369 199.094 28.4489 199.094 27.7784C199.094 27.108 199.216 26.517 199.461 26.0057C199.708 25.4915 200.051 25.0909 200.492 24.804C200.935 24.5142 201.452 24.3693 202.043 24.3693C202.384 24.3693 202.721 24.4261 203.053 24.5398C203.385 24.6534 203.688 24.8381 203.961 25.0938C204.233 25.3466 204.451 25.6818 204.613 26.0994C204.775 26.517 204.855 27.0312 204.855 27.642V28.0682H199.81V27.1989H203.833C203.833 26.8295 203.759 26.5 203.611 26.2102C203.466 25.9205 203.259 25.6918 202.989 25.5241C202.722 25.3565 202.407 25.2727 202.043 25.2727C201.642 25.2727 201.296 25.3722 201.003 25.571C200.713 25.767 200.49 26.0227 200.334 26.3381C200.178 26.6534 200.1 26.9915 200.1 27.3523V27.9318C200.1 28.4261 200.185 28.8452 200.355 29.1889C200.529 29.5298 200.769 29.7898 201.076 29.9688C201.382 30.1449 201.739 30.233 202.145 30.233C202.409 30.233 202.648 30.196 202.861 30.1222C203.077 30.0455 203.263 29.9318 203.419 29.7812C203.576 29.6278 203.696 29.4375 203.782 29.2102L204.753 29.483C204.651 29.8125 204.479 30.1023 204.238 30.3523C203.996 30.5994 203.698 30.7926 203.343 30.9318C202.988 31.0682 202.588 31.1364 202.145 31.1364ZM209.76 33.4545V24.4545H210.732V25.4943H210.851C210.925 25.3807 211.027 25.2358 211.158 25.0597C211.292 24.8807 211.482 24.7216 211.729 24.5824C211.979 24.4403 212.317 24.3693 212.743 24.3693C213.294 24.3693 213.78 24.5071 214.201 24.7827C214.621 25.0582 214.949 25.4489 215.185 25.9545C215.421 26.4602 215.539 27.0568 215.539 27.7443C215.539 28.4375 215.421 29.0384 215.185 29.5469C214.949 30.0526 214.623 30.4446 214.205 30.723C213.787 30.9986 213.306 31.1364 212.76 31.1364C212.34 31.1364 212.003 31.0668 211.75 30.9276C211.498 30.7855 211.303 30.625 211.167 30.446C211.03 30.2642 210.925 30.1136 210.851 29.9943H210.766V33.4545H209.76ZM210.749 27.7273C210.749 28.2216 210.821 28.6577 210.966 29.0355C211.111 29.4105 211.323 29.7045 211.601 29.9176C211.88 30.1278 212.221 30.233 212.624 30.233C213.044 30.233 213.395 30.1222 213.676 29.9006C213.961 29.6761 214.174 29.375 214.316 28.9972C214.461 28.6165 214.533 28.1932 214.533 27.7273C214.533 27.267 214.462 26.8523 214.32 26.483C214.181 26.1108 213.969 25.8168 213.685 25.6009C213.404 25.3821 213.05 25.2727 212.624 25.2727C212.215 25.2727 211.871 25.3764 211.593 25.5838C211.314 25.7884 211.104 26.0753 210.962 26.4446C210.82 26.8111 210.749 27.2386 210.749 27.7273ZM219.732 31.1364C219.141 31.1364 218.623 30.9957 218.176 30.7145C217.733 30.4332 217.387 30.0398 217.137 29.5341C216.89 29.0284 216.766 28.4375 216.766 27.7614C216.766 27.0795 216.89 26.4844 217.137 25.9759C217.387 25.4673 217.733 25.0724 218.176 24.7912C218.623 24.5099 219.141 24.3693 219.732 24.3693C220.323 24.3693 220.84 24.5099 221.283 24.7912C221.729 25.0724 222.076 25.4673 222.323 25.9759C222.573 26.4844 222.698 27.0795 222.698 27.7614C222.698 28.4375 222.573 29.0284 222.323 29.5341C222.076 30.0398 221.729 30.4332 221.283 30.7145C220.84 30.9957 220.323 31.1364 219.732 31.1364ZM219.732 30.233C220.181 30.233 220.55 30.1179 220.84 29.8878C221.13 29.6577 221.344 29.3551 221.483 28.9801C221.623 28.6051 221.692 28.1989 221.692 27.7614C221.692 27.3239 221.623 26.9162 221.483 26.5384C221.344 26.1605 221.13 25.8551 220.84 25.6222C220.55 25.3892 220.181 25.2727 219.732 25.2727C219.283 25.2727 218.914 25.3892 218.624 25.6222C218.334 25.8551 218.12 26.1605 217.98 26.5384C217.841 26.9162 217.772 27.3239 217.772 27.7614C217.772 28.1989 217.841 28.6051 217.98 28.9801C218.12 29.3551 218.334 29.6577 218.624 29.8878C218.914 30.1179 219.283 30.233 219.732 30.233ZM228.869 25.9205L227.966 26.1761C227.909 26.0256 227.825 25.8793 227.714 25.7372C227.607 25.5923 227.459 25.473 227.271 25.3793C227.084 25.2855 226.844 25.2386 226.551 25.2386C226.151 25.2386 225.817 25.331 225.55 25.5156C225.286 25.6974 225.153 25.929 225.153 26.2102C225.153 26.4602 225.244 26.6577 225.426 26.8026C225.608 26.9474 225.892 27.0682 226.278 27.1648L227.25 27.4034C227.835 27.5455 228.271 27.7628 228.558 28.0554C228.845 28.3452 228.989 28.7187 228.989 29.1761C228.989 29.5511 228.881 29.8864 228.665 30.1818C228.452 30.4773 228.153 30.7102 227.77 30.8807C227.386 31.0511 226.94 31.1364 226.432 31.1364C225.764 31.1364 225.212 30.9915 224.774 30.7017C224.337 30.4119 224.06 29.9886 223.943 29.4318L224.898 29.1932C224.989 29.5455 225.161 29.8097 225.413 29.9858C225.669 30.1619 226.003 30.25 226.415 30.25C226.884 30.25 227.256 30.1506 227.531 29.9517C227.81 29.75 227.949 29.5085 227.949 29.2273C227.949 29 227.869 28.8097 227.71 28.6562C227.551 28.5 227.307 28.3835 226.977 28.3068L225.886 28.0511C225.287 27.9091 224.847 27.6889 224.565 27.3906C224.287 27.0895 224.148 26.7131 224.148 26.2614C224.148 25.892 224.251 25.5653 224.459 25.2812C224.669 24.9972 224.955 24.7741 225.315 24.6122C225.679 24.4503 226.091 24.3693 226.551 24.3693C227.199 24.3693 227.707 24.5114 228.077 24.7955C228.449 25.0795 228.713 25.4545 228.869 25.9205ZM233.349 24.4545V25.3068H229.957V24.4545H233.349ZM230.946 22.8864H231.951V29.125C231.951 29.4091 231.993 29.6222 232.075 29.7642C232.16 29.9034 232.268 29.9972 232.399 30.0455C232.532 30.0909 232.673 30.1136 232.821 30.1136C232.931 30.1136 233.022 30.108 233.093 30.0966C233.164 30.0824 233.221 30.071 233.264 30.0625L233.468 30.9659C233.4 30.9915 233.305 31.017 233.183 31.0426C233.061 31.071 232.906 31.0852 232.718 31.0852C232.434 31.0852 232.156 31.0241 231.883 30.902C231.613 30.7798 231.389 30.5938 231.21 30.3438C231.034 30.0938 230.946 29.7784 230.946 29.3977V22.8864Z" fill="white"/>
<path d="M72.7585 53V44.2727H76.2017C76.8608 44.2727 77.4233 44.3906 77.8892 44.6264C78.358 44.8594 78.7145 45.1903 78.9588 45.6193C79.206 46.0455 79.3295 46.5469 79.3295 47.1236C79.3295 47.7031 79.2045 48.2017 78.9545 48.6193C78.7045 49.0341 78.3423 49.3523 77.8679 49.5739C77.3963 49.7955 76.8253 49.9062 76.1548 49.9062H73.8494V48.4233H75.8565C76.2088 48.4233 76.5014 48.375 76.7344 48.2784C76.9673 48.1818 77.1406 48.0369 77.2543 47.8438C77.3707 47.6506 77.429 47.4105 77.429 47.1236C77.429 46.8338 77.3707 46.5895 77.2543 46.3906C77.1406 46.1918 76.9659 46.0412 76.7301 45.9389C76.4972 45.8338 76.2031 45.7812 75.848 45.7812H74.6037V53H72.7585ZM77.4716 49.0284L79.6406 53H77.6037L75.4815 49.0284H77.4716ZM83.4769 53.1278C82.8036 53.1278 82.2241 52.9915 81.7383 52.7188C81.2553 52.4432 80.8832 52.054 80.6218 51.5511C80.3604 51.0455 80.2298 50.4474 80.2298 49.7571C80.2298 49.0838 80.3604 48.4929 80.6218 47.9844C80.8832 47.4759 81.2511 47.0795 81.7255 46.7955C82.2028 46.5114 82.7624 46.3693 83.4045 46.3693C83.8363 46.3693 84.2383 46.4389 84.6104 46.5781C84.9854 46.7145 85.3121 46.9205 85.5906 47.196C85.8718 47.4716 86.0906 47.8182 86.2468 48.2358C86.4031 48.6506 86.4812 49.1364 86.4812 49.6932V50.1918H80.9542V49.0668H84.7724C84.7724 48.8054 84.7156 48.5739 84.6019 48.3722C84.4883 48.1705 84.3306 48.0128 84.1289 47.8991C83.93 47.7827 83.6985 47.7244 83.4343 47.7244C83.1587 47.7244 82.9144 47.7884 82.7013 47.9162C82.4911 48.0412 82.3263 48.2102 82.207 48.4233C82.0877 48.6335 82.0266 48.8679 82.0238 49.1264V50.196C82.0238 50.5199 82.0835 50.7997 82.2028 51.0355C82.3249 51.2713 82.4968 51.4531 82.7184 51.581C82.94 51.7088 83.2028 51.7727 83.5067 51.7727C83.7085 51.7727 83.8931 51.7443 84.0607 51.6875C84.2283 51.6307 84.3718 51.5455 84.4911 51.4318C84.6104 51.3182 84.7013 51.179 84.7638 51.0142L86.4428 51.125C86.3576 51.5284 86.1829 51.8807 85.9187 52.1818C85.6573 52.4801 85.3192 52.7131 84.9045 52.8807C84.4925 53.0455 84.0167 53.1278 83.4769 53.1278ZM87.6658 55.4545V46.4545H89.4556V47.554H89.5366C89.6161 47.3778 89.7312 47.1989 89.8817 47.017C90.0352 46.8324 90.234 46.679 90.4783 46.5568C90.7255 46.4318 91.0323 46.3693 91.3988 46.3693C91.8761 46.3693 92.3164 46.4943 92.7198 46.7443C93.1232 46.9915 93.4457 47.3651 93.6871 47.8651C93.9286 48.3622 94.0494 48.9858 94.0494 49.7358C94.0494 50.4659 93.9315 51.0824 93.6957 51.5852C93.4627 52.0852 93.1445 52.4645 92.7411 52.723C92.3406 52.9787 91.8917 53.1065 91.3945 53.1065C91.0423 53.1065 90.7425 53.0483 90.4954 52.9318C90.2511 52.8153 90.0508 52.669 89.8945 52.4929C89.7383 52.3139 89.619 52.1335 89.5366 51.9517H89.4812V55.4545H87.6658ZM89.4428 49.7273C89.4428 50.1165 89.4968 50.456 89.6048 50.7457C89.7127 51.0355 89.869 51.2614 90.0735 51.4233C90.2781 51.5824 90.5266 51.6619 90.8192 51.6619C91.1147 51.6619 91.3647 51.581 91.5692 51.419C91.7738 51.2543 91.9286 51.027 92.0337 50.7372C92.1417 50.4446 92.1957 50.108 92.1957 49.7273C92.1957 49.3494 92.1431 49.017 92.038 48.7301C91.9329 48.4432 91.7781 48.2187 91.5735 48.0568C91.369 47.8949 91.1175 47.8139 90.8192 47.8139C90.5238 47.8139 90.2738 47.892 90.0692 48.0483C89.8675 48.2045 89.7127 48.4261 89.6048 48.7131C89.4968 49 89.4428 49.3381 89.4428 49.7273ZM97.0749 44.2727V53H95.2596V44.2727H97.0749ZM99.6499 55.4545C99.4197 55.4545 99.2038 55.4361 99.0021 55.3991C98.8033 55.3651 98.6385 55.321 98.5078 55.267L98.9169 53.9119C99.13 53.9773 99.3217 54.0128 99.4922 54.0185C99.6655 54.0241 99.8146 53.9844 99.9396 53.8991C100.067 53.8139 100.171 53.669 100.251 53.4645L100.357 53.1875L98.0092 46.4545H99.9183L101.273 51.2614H101.342L102.71 46.4545H104.631L102.087 53.7074C101.965 54.0597 101.799 54.3665 101.589 54.6278C101.381 54.892 101.119 55.0952 100.8 55.2372C100.482 55.3821 100.099 55.4545 99.6499 55.4545ZM106.621 53.1108C106.34 53.1108 106.099 53.0114 105.897 52.8125C105.698 52.6108 105.599 52.3693 105.599 52.0881C105.599 51.8097 105.698 51.571 105.897 51.3722C106.099 51.1733 106.34 51.0739 106.621 51.0739C106.894 51.0739 107.133 51.1733 107.337 51.3722C107.542 51.571 107.644 51.8097 107.644 52.0881C107.644 52.2756 107.596 52.4474 107.499 52.6037C107.406 52.7571 107.282 52.8807 107.129 52.9744C106.975 53.0653 106.806 53.1108 106.621 53.1108ZM106.621 48.5256C106.34 48.5256 106.099 48.4261 105.897 48.2273C105.698 48.0284 105.599 47.7869 105.599 47.5028C105.599 47.2244 105.698 46.9872 105.897 46.7912C106.099 46.5923 106.34 46.4929 106.621 46.4929C106.894 46.4929 107.133 46.5923 107.337 46.7912C107.542 46.9872 107.644 47.2244 107.644 47.5028C107.644 47.6932 107.596 47.8665 107.499 48.0227C107.406 48.1761 107.282 48.2983 107.129 48.3892C106.975 48.4801 106.806 48.5256 106.621 48.5256Z" fill="white"/>
<path d="M36.5 58.875C40.1342 58.875 43.6868 57.7973 46.7086 55.7783C49.7304 53.7592 52.0855 50.8894 53.4763 47.5318C54.867 44.1742 55.2309 40.4796 54.5219 36.9152C53.8129 33.3508 52.0629 30.0767 49.4931 27.5069C46.9233 24.9371 43.6492 23.1871 40.0848 22.4781C36.5204 21.7691 32.8258 22.133 29.4682 23.5237C26.1106 24.9145 23.2408 27.2697 21.2217 30.2914C19.2027 33.3132 18.125 36.8658 18.125 40.5C18.125 43.538 18.86 46.4025 20.1667 48.926L18.125 58.875L28.074 56.8333C30.5975 58.14 33.464 58.875 36.5 58.875Z" stroke="url(#paint1_linear_332_27528)" stroke-width="4" stroke-linecap="round" stroke-linejoin="round"/>
<g clip-path="url(#clip0_332_27528)">
<path d="M120.546 42.9111C118.321 42.9111 117.503 45.1851 117.503 45.1851C117.503 45.1851 116.697 42.9111 114.456 42.9111C112.772 42.9111 110.853 44.2457 111.562 47.2793C112.271 50.313 117.509 54.0921 117.509 54.0921C117.509 54.0921 122.728 50.313 123.438 47.2793C124.147 44.2457 122.366 42.9111 120.546 42.9111Z" fill="#F44336"/>
<path d="M114.113 43.1376C115.86 43.1376 116.727 45.0155 117.007 45.7762C117.047 45.8849 117.198 45.8879 117.244 45.7823L117.5 45.1841C117.139 44.0324 116.148 42.9111 114.456 42.9111C113.755 42.9111 113.015 43.1427 112.439 43.6312C112.948 43.2971 113.544 43.1376 114.113 43.1376ZM120.546 42.9111C120.009 42.9111 119.519 43.0279 119.137 43.2636C119.405 43.16 119.737 43.1376 120.066 43.1376C121.713 43.1376 123.186 44.3858 122.521 47.2712C121.95 49.7483 118.615 52.7536 117.596 53.9002C117.531 53.9733 117.509 54.0911 117.509 54.0911C117.509 54.0911 122.728 50.312 123.438 47.2783C124.147 44.2457 122.369 42.9111 120.546 42.9111Z" fill="#CC3333"/>
<path d="M112.731 44.5207C113.112 44.0454 113.792 43.6523 114.369 44.1053C114.681 44.3501 114.545 44.8518 114.265 45.0631C113.859 45.3718 113.506 45.5577 113.258 46.0411C113.109 46.3316 113.02 46.6495 112.974 46.9734C112.956 47.1014 112.789 47.1329 112.726 47.0202C112.297 46.2605 112.175 45.2144 112.731 44.5207ZM118.837 45.5201C118.658 45.5201 118.532 45.3474 118.597 45.1809C118.718 44.8741 118.874 44.5776 119.062 44.3135C119.34 43.9235 119.869 43.696 120.205 43.9327C120.548 44.1744 120.503 44.6578 120.263 44.8914C119.746 45.3921 119.094 45.5201 118.837 45.5201Z" fill="#FF8A80"/>
</g>
<defs>
<linearGradient id="paint0_linear_332_27528" x1="7" y1="6.34337" x2="142.391" y2="83.8117" gradientUnits="userSpaceOnUse">
<stop stop-color="#1F1E21"/>
<stop offset="1" stop-color="#131216"/>
</linearGradient>
<linearGradient id="paint1_linear_332_27528" x1="36.5" y1="22.125" x2="36.5" y2="58.875" gradientUnits="userSpaceOnUse">
<stop stop-color="#940EAA"/>
<stop offset="1" stop-color="#5E10CC"/>
</linearGradient>
<clipPath id="clip0_332_27528">
<rect width="13" height="13" fill="white" transform="translate(111 42)"/>
</clipPath>
</defs>
</svg>
