<svg width="350" height="81" viewBox="0 0 350 81" fill="none" xmlns="http://www.w3.org/2000/svg">
<rect x="0.5" y="0.5" width="349" height="80" rx="9.5" fill="url(#paint0_linear_338_27555)" stroke="#303030"/>
<path d="M72.7585 28V19.2727H76.2528C76.8949 19.2727 77.4304 19.3679 77.8594 19.5582C78.2884 19.7486 78.6108 20.0128 78.8267 20.3509C79.0426 20.6861 79.1506 21.0724 79.1506 21.5099C79.1506 21.8509 79.0824 22.1506 78.946 22.4091C78.8097 22.6648 78.6222 22.875 78.3835 23.0398C78.1477 23.2017 77.8778 23.3168 77.5739 23.3849V23.4702C77.9063 23.4844 78.2173 23.5781 78.5071 23.7514C78.7997 23.9247 79.0369 24.1676 79.2188 24.4801C79.4006 24.7898 79.4915 25.1591 79.4915 25.5881C79.4915 26.0511 79.3764 26.4645 79.1463 26.8281C78.919 27.1889 78.5824 27.4744 78.1364 27.6847C77.6903 27.8949 77.1406 28 76.4872 28H72.7585ZM74.6037 26.4915H76.108C76.6222 26.4915 76.9972 26.3935 77.233 26.1974C77.4688 25.9986 77.5866 25.7344 77.5866 25.4048C77.5866 25.1634 77.5284 24.9503 77.4119 24.7656C77.2955 24.581 77.1293 24.4361 76.9134 24.331C76.7003 24.2259 76.446 24.1733 76.1506 24.1733H74.6037V26.4915ZM74.6037 22.9247H75.9716C76.2244 22.9247 76.4489 22.8807 76.6449 22.7926C76.8438 22.7017 77 22.5739 77.1136 22.4091C77.2301 22.2443 77.2884 22.0469 77.2884 21.8168C77.2884 21.5014 77.1761 21.2472 76.9517 21.054C76.7301 20.8608 76.4148 20.7642 76.0057 20.7642H74.6037V22.9247ZM80.658 28V21.4545H82.418V22.5966H82.4862C82.6055 22.1903 82.8058 21.8835 83.087 21.6761C83.3683 21.4659 83.6921 21.3608 84.0586 21.3608C84.1495 21.3608 84.2475 21.3665 84.3526 21.3778C84.4577 21.3892 84.5501 21.4048 84.6296 21.4247V23.0355C84.5444 23.0099 84.4265 22.9872 84.2759 22.9673C84.1254 22.9474 83.9876 22.9375 83.8626 22.9375C83.5955 22.9375 83.3569 22.9957 83.1467 23.1122C82.9393 23.2259 82.7745 23.3849 82.6523 23.5895C82.533 23.794 82.4734 24.0298 82.4734 24.2969V28H80.658ZM86.8881 30.4545C86.658 30.4545 86.4421 30.4361 86.2404 30.3991C86.0415 30.3651 85.8768 30.321 85.7461 30.267L86.1552 28.9119C86.3683 28.9773 86.56 29.0128 86.7305 29.0185C86.9038 29.0241 87.0529 28.9844 87.1779 28.8991C87.3058 28.8139 87.4094 28.669 87.489 28.4645L87.5955 28.1875L85.2475 21.4545H87.1566L88.5117 26.2614H88.5799L89.9478 21.4545H91.8697L89.3256 28.7074C89.2035 29.0597 89.0373 29.3665 88.8271 29.6278C88.6197 29.892 88.3569 30.0952 88.0387 30.2372C87.7205 30.3821 87.337 30.4545 86.8881 30.4545ZM95.5451 28.1278C94.8746 28.1278 94.2979 27.9858 93.815 27.7017C93.3349 27.4148 92.9656 27.017 92.707 26.5085C92.4513 26 92.3235 25.4148 92.3235 24.7528C92.3235 24.0824 92.4528 23.4943 92.7113 22.9886C92.9727 22.4801 93.3434 22.0838 93.8235 21.7997C94.3036 21.5128 94.8746 21.3693 95.5366 21.3693C96.1076 21.3693 96.6076 21.473 97.0366 21.6804C97.4656 21.8878 97.805 22.179 98.055 22.554C98.305 22.929 98.4428 23.3693 98.4684 23.875H96.7553C96.707 23.5483 96.5792 23.2855 96.3718 23.0866C96.1673 22.8849 95.8988 22.7841 95.5664 22.7841C95.2852 22.7841 95.0394 22.8608 94.8292 23.0142C94.6218 23.1648 94.4599 23.3849 94.3434 23.6747C94.2269 23.9645 94.1687 24.3153 94.1687 24.7273C94.1687 25.1449 94.2255 25.5 94.3391 25.7926C94.4556 26.0852 94.619 26.3082 94.8292 26.4616C95.0394 26.6151 95.2852 26.6918 95.5664 26.6918C95.7738 26.6918 95.9599 26.6491 96.1246 26.5639C96.2923 26.4787 96.43 26.3551 96.538 26.1932C96.6488 26.0284 96.7212 25.831 96.7553 25.6009H98.4684C98.44 26.1009 98.3036 26.5412 98.0593 26.9219C97.8178 27.2997 97.484 27.5952 97.0579 27.8082C96.6317 28.0213 96.1275 28.1278 95.5451 28.1278ZM102.614 28.1278C101.94 28.1278 101.361 27.9915 100.875 27.7188C100.392 27.4432 100.02 27.054 99.7585 26.5511C99.4972 26.0455 99.3665 25.4474 99.3665 24.7571C99.3665 24.0838 99.4972 23.4929 99.7585 22.9844C100.02 22.4759 100.388 22.0795 100.862 21.7955C101.339 21.5114 101.899 21.3693 102.541 21.3693C102.973 21.3693 103.375 21.4389 103.747 21.5781C104.122 21.7145 104.449 21.9205 104.727 22.196C105.009 22.4716 105.227 22.8182 105.384 23.2358C105.54 23.6506 105.618 24.1364 105.618 24.6932V25.1918H100.091V24.0668H103.909C103.909 23.8054 103.852 23.5739 103.739 23.3722C103.625 23.1705 103.467 23.0128 103.266 22.8991C103.067 22.7827 102.835 22.7244 102.571 22.7244C102.295 22.7244 102.051 22.7884 101.838 22.9162C101.628 23.0412 101.463 23.2102 101.344 23.4233C101.224 23.6335 101.163 23.8679 101.161 24.1264V25.196C101.161 25.5199 101.22 25.7997 101.339 26.0355C101.462 26.2713 101.634 26.4531 101.855 26.581C102.077 26.7088 102.339 26.7727 102.643 26.7727C102.845 26.7727 103.03 26.7443 103.197 26.6875C103.365 26.6307 103.509 26.5455 103.628 26.4318C103.747 26.3182 103.838 26.179 103.901 26.0142L105.58 26.125C105.494 26.5284 105.32 26.8807 105.055 27.1818C104.794 27.4801 104.456 27.7131 104.041 27.8807C103.629 28.0455 103.153 28.1278 102.614 28.1278ZM109.614 28V19.2727H115.392V20.794H111.459V22.8736H115.009V24.3949H111.459V28H109.614ZM116.494 28V21.4545H118.254V22.5966H118.322C118.441 22.1903 118.642 21.8835 118.923 21.6761C119.204 21.4659 119.528 21.3608 119.895 21.3608C119.985 21.3608 120.083 21.3665 120.189 21.3778C120.294 21.3892 120.386 21.4048 120.466 21.4247V23.0355C120.38 23.0099 120.262 22.9872 120.112 22.9673C119.961 22.9474 119.824 22.9375 119.699 22.9375C119.431 22.9375 119.193 22.9957 118.983 23.1122C118.775 23.2259 118.61 23.3849 118.488 23.5895C118.369 23.794 118.309 24.0298 118.309 24.2969V28H116.494ZM122.724 30.4545C122.494 30.4545 122.278 30.4361 122.076 30.3991C121.877 30.3651 121.713 30.321 121.582 30.267L121.991 28.9119C122.204 28.9773 122.396 29.0128 122.566 29.0185C122.74 29.0241 122.889 28.9844 123.014 28.8991C123.142 28.8139 123.245 28.669 123.325 28.4645L123.431 28.1875L121.083 21.4545H122.993L124.348 26.2614H124.416L125.784 21.4545H127.706L125.162 28.7074C125.039 29.0597 124.873 29.3665 124.663 29.6278C124.456 29.892 124.193 30.0952 123.875 30.2372C123.556 30.3821 123.173 30.4545 122.724 30.4545ZM129.696 28.1108C129.414 28.1108 129.173 28.0114 128.971 27.8125C128.772 27.6108 128.673 27.3693 128.673 27.0881C128.673 26.8097 128.772 26.571 128.971 26.3722C129.173 26.1733 129.414 26.0739 129.696 26.0739C129.968 26.0739 130.207 26.1733 130.412 26.3722C130.616 26.571 130.718 26.8097 130.718 27.0881C130.718 27.2756 130.67 27.4474 130.574 27.6037C130.48 27.7571 130.356 27.8807 130.203 27.9744C130.049 28.0653 129.88 28.1108 129.696 28.1108ZM129.696 23.5256C129.414 23.5256 129.173 23.4261 128.971 23.2273C128.772 23.0284 128.673 22.7869 128.673 22.5028C128.673 22.2244 128.772 21.9872 128.971 21.7912C129.173 21.5923 129.414 21.4929 129.696 21.4929C129.968 21.4929 130.207 21.5923 130.412 21.7912C130.616 21.9872 130.718 22.2244 130.718 22.5028C130.718 22.6932 130.67 22.8665 130.574 23.0227C130.48 23.1761 130.356 23.2983 130.203 23.3892C130.049 23.4801 129.88 23.5256 129.696 23.5256ZM138.012 28H135.319V19.2727H138.131C138.978 19.2727 139.702 19.4474 140.304 19.7969C140.907 20.1435 141.368 20.642 141.689 21.2926C142.01 21.9403 142.171 22.7159 142.171 23.6193C142.171 24.5284 142.009 25.3111 141.685 25.9673C141.361 26.6207 140.89 27.1236 140.27 27.4759C139.651 27.8253 138.898 28 138.012 28ZM136.375 27.0625H137.944C138.665 27.0625 139.263 26.9233 139.738 26.6449C140.212 26.3665 140.566 25.9702 140.799 25.456C141.032 24.9418 141.148 24.3295 141.148 23.6193C141.148 22.9148 141.033 22.3082 140.803 21.7997C140.573 21.2884 140.229 20.8963 139.772 20.6236C139.314 20.348 138.745 20.2102 138.063 20.2102H136.375V27.0625ZM146.466 28.1364C145.875 28.1364 145.357 27.9957 144.911 27.7145C144.468 27.4332 144.121 27.0398 143.871 26.5341C143.624 26.0284 143.5 25.4375 143.5 24.7614C143.5 24.0795 143.624 23.4844 143.871 22.9759C144.121 22.4673 144.468 22.0724 144.911 21.7912C145.357 21.5099 145.875 21.3693 146.466 21.3693C147.057 21.3693 147.574 21.5099 148.017 21.7912C148.463 22.0724 148.81 22.4673 149.057 22.9759C149.307 23.4844 149.432 24.0795 149.432 24.7614C149.432 25.4375 149.307 26.0284 149.057 26.5341C148.81 27.0398 148.463 27.4332 148.017 27.7145C147.574 27.9957 147.057 28.1364 146.466 28.1364ZM146.466 27.233C146.915 27.233 147.284 27.1179 147.574 26.8878C147.864 26.6577 148.078 26.3551 148.218 25.9801C148.357 25.6051 148.426 25.1989 148.426 24.7614C148.426 24.3239 148.357 23.9162 148.218 23.5384C148.078 23.1605 147.864 22.8551 147.574 22.6222C147.284 22.3892 146.915 22.2727 146.466 22.2727C146.017 22.2727 145.648 22.3892 145.358 22.6222C145.069 22.8551 144.854 23.1605 144.715 23.5384C144.576 23.9162 144.506 24.3239 144.506 24.7614C144.506 25.1989 144.576 25.6051 144.715 25.9801C144.854 26.3551 145.069 26.6577 145.358 26.8878C145.648 27.1179 146.017 27.233 146.466 27.233ZM154.99 30.4545C154.82 30.4545 154.668 30.4403 154.534 30.4119C154.401 30.3864 154.308 30.3608 154.257 30.3352L154.513 29.4489C154.757 29.5114 154.973 29.5341 155.161 29.517C155.348 29.5 155.514 29.4162 155.659 29.2656C155.807 29.1179 155.942 28.8778 156.064 28.5455L156.251 28.0341L153.831 21.4545H154.922L156.729 26.6705H156.797L158.604 21.4545H159.695L156.916 28.9545C156.791 29.2926 156.636 29.5724 156.452 29.794C156.267 30.0185 156.053 30.1847 155.808 30.2926C155.567 30.4006 155.294 30.4545 154.99 30.4545ZM163.447 28.1364C162.856 28.1364 162.337 27.9957 161.891 27.7145C161.448 27.4332 161.102 27.0398 160.852 26.5341C160.604 26.0284 160.481 25.4375 160.481 24.7614C160.481 24.0795 160.604 23.4844 160.852 22.9759C161.102 22.4673 161.448 22.0724 161.891 21.7912C162.337 21.5099 162.856 21.3693 163.447 21.3693C164.038 21.3693 164.555 21.5099 164.998 21.7912C165.444 22.0724 165.79 22.4673 166.038 22.9759C166.288 23.4844 166.413 24.0795 166.413 24.7614C166.413 25.4375 166.288 26.0284 166.038 26.5341C165.79 27.0398 165.444 27.4332 164.998 27.7145C164.555 27.9957 164.038 28.1364 163.447 28.1364ZM163.447 27.233C163.896 27.233 164.265 27.1179 164.555 26.8878C164.844 26.6577 165.059 26.3551 165.198 25.9801C165.337 25.6051 165.407 25.1989 165.407 24.7614C165.407 24.3239 165.337 23.9162 165.198 23.5384C165.059 23.1605 164.844 22.8551 164.555 22.6222C164.265 22.3892 163.896 22.2727 163.447 22.2727C162.998 22.2727 162.629 22.3892 162.339 22.6222C162.049 22.8551 161.835 23.1605 161.695 23.5384C161.556 23.9162 161.487 24.3239 161.487 24.7614C161.487 25.1989 161.556 25.6051 161.695 25.9801C161.835 26.3551 162.049 26.6577 162.339 26.8878C162.629 27.1179 162.998 27.233 163.447 27.233ZM172.073 25.3239V21.4545H173.078V28H172.073V26.892H172.005C171.851 27.2244 171.613 27.5071 171.289 27.7401C170.965 27.9702 170.556 28.0852 170.061 28.0852C169.652 28.0852 169.289 27.9957 168.971 27.8168C168.652 27.6349 168.402 27.3622 168.221 26.9986C168.039 26.6321 167.948 26.1705 167.948 25.6136V21.4545H168.953V25.5455C168.953 26.0227 169.087 26.4034 169.354 26.6875C169.624 26.9716 169.968 27.1136 170.385 27.1136C170.635 27.1136 170.89 27.0497 171.148 26.9219C171.409 26.794 171.628 26.598 171.804 26.3338C171.983 26.0696 172.073 25.733 172.073 25.3239ZM180.938 30.5909C180.452 30.5909 180.034 30.5284 179.685 30.4034C179.335 30.2812 179.044 30.1193 178.811 29.9176C178.581 29.7188 178.398 29.5057 178.261 29.2784L179.062 28.7159C179.153 28.8352 179.268 28.9716 179.408 29.125C179.547 29.2812 179.737 29.4162 179.979 29.5298C180.223 29.6463 180.543 29.7045 180.938 29.7045C181.466 29.7045 181.902 29.5767 182.246 29.321C182.589 29.0653 182.761 28.6648 182.761 28.1193V26.7898H182.676C182.602 26.9091 182.497 27.0568 182.361 27.233C182.227 27.4062 182.034 27.5611 181.781 27.6974C181.531 27.831 181.193 27.8977 180.767 27.8977C180.239 27.8977 179.764 27.7727 179.344 27.5227C178.926 27.2727 178.595 26.9091 178.351 26.4318C178.109 25.9545 177.989 25.375 177.989 24.6932C177.989 24.0227 178.107 23.4389 178.342 22.9418C178.578 22.4418 178.906 22.0554 179.327 21.7827C179.747 21.5071 180.233 21.3693 180.784 21.3693C181.21 21.3693 181.548 21.4403 181.798 21.5824C182.051 21.7216 182.244 21.8807 182.378 22.0597C182.514 22.2358 182.619 22.3807 182.693 22.4943H182.795V21.4545H183.767V28.1875C183.767 28.75 183.639 29.2074 183.384 29.5597C183.131 29.9148 182.79 30.1747 182.361 30.3395C181.935 30.5071 181.46 30.5909 180.938 30.5909ZM180.903 26.9943C181.307 26.9943 181.648 26.902 181.926 26.7173C182.205 26.5327 182.416 26.267 182.561 25.9205C182.706 25.5739 182.778 25.1591 182.778 24.6761C182.778 24.2045 182.707 23.7884 182.565 23.4276C182.423 23.0668 182.213 22.7841 181.935 22.5795C181.656 22.375 181.313 22.2727 180.903 22.2727C180.477 22.2727 180.122 22.3807 179.838 22.5966C179.557 22.8125 179.345 23.1023 179.203 23.4659C179.064 23.8295 178.994 24.233 178.994 24.6761C178.994 25.1307 179.065 25.5327 179.207 25.8821C179.352 26.2287 179.565 26.5014 179.847 26.7003C180.131 26.8963 180.483 26.9943 180.903 26.9943ZM189.733 25.3239V21.4545H190.739V28H189.733V26.892H189.665C189.511 27.2244 189.273 27.5071 188.949 27.7401C188.625 27.9702 188.216 28.0852 187.722 28.0852C187.312 28.0852 186.949 27.9957 186.631 27.8168C186.313 27.6349 186.063 27.3622 185.881 26.9986C185.699 26.6321 185.608 26.1705 185.608 25.6136V21.4545H186.614V25.5455C186.614 26.0227 186.747 26.4034 187.014 26.6875C187.284 26.9716 187.628 27.1136 188.045 27.1136C188.295 27.1136 188.55 27.0497 188.808 26.9219C189.07 26.794 189.288 26.598 189.464 26.3338C189.643 26.0696 189.733 25.733 189.733 25.3239ZM193.228 30.4545C193.058 30.4545 192.906 30.4403 192.772 30.4119C192.639 30.3864 192.547 30.3608 192.495 30.3352L192.751 29.4489C192.995 29.5114 193.211 29.5341 193.399 29.517C193.586 29.5 193.752 29.4162 193.897 29.2656C194.045 29.1179 194.18 28.8778 194.302 28.5455L194.49 28.0341L192.069 21.4545H193.16L194.967 26.6705H195.035L196.842 21.4545H197.933L195.154 28.9545C195.029 29.2926 194.875 29.5724 194.69 29.794C194.505 30.0185 194.291 30.1847 194.047 30.2926C193.805 30.4006 193.532 30.4545 193.228 30.4545ZM203.897 22.9205L202.993 23.1761C202.936 23.0256 202.853 22.8793 202.742 22.7372C202.634 22.5923 202.486 22.473 202.299 22.3793C202.111 22.2855 201.871 22.2386 201.578 22.2386C201.178 22.2386 200.844 22.331 200.577 22.5156C200.313 22.6974 200.181 22.929 200.181 23.2102C200.181 23.4602 200.272 23.6577 200.453 23.8026C200.635 23.9474 200.919 24.0682 201.306 24.1648L202.277 24.4034C202.863 24.5455 203.299 24.7628 203.586 25.0554C203.873 25.3452 204.016 25.7187 204.016 26.1761C204.016 26.5511 203.908 26.8864 203.692 27.1818C203.479 27.4773 203.181 27.7102 202.797 27.8807C202.414 28.0511 201.968 28.1364 201.459 28.1364C200.792 28.1364 200.239 27.9915 199.801 27.7017C199.364 27.4119 199.087 26.9886 198.971 26.4318L199.925 26.1932C200.016 26.5455 200.188 26.8097 200.441 26.9858C200.696 27.1619 201.03 27.25 201.442 27.25C201.911 27.25 202.283 27.1506 202.559 26.9517C202.837 26.75 202.976 26.5085 202.976 26.2273C202.976 26 202.897 25.8097 202.738 25.6562C202.578 25.5 202.334 25.3835 202.005 25.3068L200.914 25.0511C200.314 24.9091 199.874 24.6889 199.593 24.3906C199.314 24.0895 199.175 23.7131 199.175 23.2614C199.175 22.892 199.279 22.5653 199.486 22.2812C199.696 21.9972 199.982 21.7741 200.343 21.6122C200.706 21.4503 201.118 21.3693 201.578 21.3693C202.226 21.3693 202.735 21.5114 203.104 21.7955C203.476 22.0795 203.74 22.4545 203.897 22.9205ZM211.376 28.1364C210.831 28.1364 210.349 27.9986 209.932 27.723C209.514 27.4446 209.188 27.0526 208.952 26.5469C208.716 26.0384 208.598 25.4375 208.598 24.7443C208.598 24.0568 208.716 23.4602 208.952 22.9545C209.188 22.4489 209.516 22.0582 209.936 21.7827C210.357 21.5071 210.842 21.3693 211.393 21.3693C211.82 21.3693 212.156 21.4403 212.403 21.5824C212.653 21.7216 212.844 21.8807 212.974 22.0597C213.108 22.2358 213.212 22.3807 213.286 22.4943H213.371V19.2727H214.376V28H213.405V26.9943H213.286C213.212 27.1136 213.107 27.2642 212.97 27.446C212.834 27.625 212.639 27.7855 212.386 27.9276C212.134 28.0668 211.797 28.1364 211.376 28.1364ZM211.513 27.233C211.916 27.233 212.257 27.1278 212.536 26.9176C212.814 26.7045 213.026 26.4105 213.17 26.0355C213.315 25.6577 213.388 25.2216 213.388 24.7273C213.388 24.2386 213.317 23.8111 213.175 23.4446C213.033 23.0753 212.822 22.7884 212.544 22.5838C212.266 22.3764 211.922 22.2727 211.513 22.2727C211.087 22.2727 210.732 22.3821 210.447 22.6009C210.166 22.8168 209.955 23.1108 209.812 23.483C209.673 23.8523 209.604 24.267 209.604 24.7273C209.604 25.1932 209.675 25.6165 209.817 25.9972C209.962 26.375 210.175 26.6761 210.456 26.9006C210.74 27.1222 211.092 27.233 211.513 27.233ZM219.017 28.1364C218.426 28.1364 217.908 27.9957 217.462 27.7145C217.018 27.4332 216.672 27.0398 216.422 26.5341C216.175 26.0284 216.051 25.4375 216.051 24.7614C216.051 24.0795 216.175 23.4844 216.422 22.9759C216.672 22.4673 217.018 22.0724 217.462 21.7912C217.908 21.5099 218.426 21.3693 219.017 21.3693C219.608 21.3693 220.125 21.5099 220.568 21.7912C221.014 22.0724 221.361 22.4673 221.608 22.9759C221.858 23.4844 221.983 24.0795 221.983 24.7614C221.983 25.4375 221.858 26.0284 221.608 26.5341C221.361 27.0398 221.014 27.4332 220.568 27.7145C220.125 27.9957 219.608 28.1364 219.017 28.1364ZM219.017 27.233C219.466 27.233 219.835 27.1179 220.125 26.8878C220.415 26.6577 220.629 26.3551 220.768 25.9801C220.908 25.6051 220.977 25.1989 220.977 24.7614C220.977 24.3239 220.908 23.9162 220.768 23.5384C220.629 23.1605 220.415 22.8551 220.125 22.6222C219.835 22.3892 219.466 22.2727 219.017 22.2727C218.568 22.2727 218.199 22.3892 217.909 22.6222C217.619 22.8551 217.405 23.1605 217.266 23.5384C217.126 23.9162 217.057 24.3239 217.057 24.7614C217.057 25.1989 217.126 25.6051 217.266 25.9801C217.405 26.3551 217.619 26.6577 217.909 26.8878C218.199 27.1179 218.568 27.233 219.017 27.233ZM227.029 28V19.2727H228.035V22.4943H228.12C228.194 22.3807 228.297 22.2358 228.427 22.0597C228.561 21.8807 228.751 21.7216 228.998 21.5824C229.248 21.4403 229.586 21.3693 230.012 21.3693C230.564 21.3693 231.049 21.5071 231.47 21.7827C231.89 22.0582 232.218 22.4489 232.454 22.9545C232.69 23.4602 232.808 24.0568 232.808 24.7443C232.808 25.4375 232.69 26.0384 232.454 26.5469C232.218 27.0526 231.892 27.4446 231.474 27.723C231.056 27.9986 230.575 28.1364 230.029 28.1364C229.609 28.1364 229.272 28.0668 229.02 27.9276C228.767 27.7855 228.572 27.625 228.436 27.446C228.299 27.2642 228.194 27.1136 228.12 26.9943H228.001V28H227.029ZM228.018 24.7273C228.018 25.2216 228.091 25.6577 228.235 26.0355C228.38 26.4105 228.592 26.7045 228.87 26.9176C229.149 27.1278 229.49 27.233 229.893 27.233C230.314 27.233 230.664 27.1222 230.946 26.9006C231.23 26.6761 231.443 26.375 231.585 25.9972C231.73 25.6165 231.802 25.1932 231.802 24.7273C231.802 24.267 231.731 23.8523 231.589 23.483C231.45 23.1108 231.238 22.8168 230.954 22.6009C230.673 22.3821 230.319 22.2727 229.893 22.2727C229.484 22.2727 229.14 22.3764 228.862 22.5838C228.583 22.7884 228.373 23.0753 228.231 23.4446C228.089 23.8111 228.018 24.2386 228.018 24.7273ZM234.346 28V21.4545H235.318V22.4432H235.386C235.505 22.1193 235.721 21.8565 236.034 21.6548C236.346 21.4531 236.699 21.3523 237.091 21.3523C237.164 21.3523 237.257 21.3537 237.368 21.3565C237.478 21.3594 237.562 21.3636 237.619 21.3693V22.392C237.585 22.3835 237.507 22.3707 237.385 22.3537C237.265 22.3338 237.139 22.3239 237.005 22.3239C236.687 22.3239 236.403 22.3906 236.153 22.5241C235.906 22.6548 235.71 22.8366 235.565 23.0696C235.423 23.2997 235.352 23.5625 235.352 23.858V28H234.346ZM242.936 25.3239V21.4545H243.942V28H242.936V26.892H242.868C242.714 27.2244 242.476 27.5071 242.152 27.7401C241.828 27.9702 241.419 28.0852 240.925 28.0852C240.516 28.0852 240.152 27.9957 239.834 27.8168C239.516 27.6349 239.266 27.3622 239.084 26.9986C238.902 26.6321 238.811 26.1705 238.811 25.6136V21.4545H239.817V25.5455C239.817 26.0227 239.95 26.4034 240.217 26.6875C240.487 26.9716 240.831 27.1136 241.249 27.1136C241.499 27.1136 241.753 27.0497 242.011 26.9219C242.273 26.794 242.491 26.598 242.668 26.3338C242.847 26.0696 242.936 25.733 242.936 25.3239ZM246.789 24.0625V28H245.784V21.4545H246.755V22.4773H246.841C246.994 22.1449 247.227 21.8778 247.539 21.6761C247.852 21.4716 248.255 21.3693 248.75 21.3693C249.193 21.3693 249.581 21.4602 249.913 21.642C250.245 21.821 250.504 22.0938 250.689 22.4602C250.873 22.8239 250.966 23.2841 250.966 23.8409V28H249.96V23.9091C249.96 23.3949 249.826 22.9943 249.559 22.7074C249.292 22.4176 248.926 22.2727 248.46 22.2727C248.139 22.2727 247.852 22.3423 247.599 22.4815C247.349 22.6207 247.152 22.8239 247.007 23.0909C246.862 23.358 246.789 23.6818 246.789 24.0625ZM255.462 28.1364C254.849 28.1364 254.32 27.9915 253.877 27.7017C253.434 27.4119 253.093 27.0128 252.854 26.5043C252.616 25.9957 252.496 25.4148 252.496 24.7614C252.496 24.0966 252.619 23.5099 252.863 23.0014C253.11 22.4901 253.454 22.0909 253.894 21.804C254.337 21.5142 254.854 21.3693 255.445 21.3693C255.906 21.3693 256.32 21.4545 256.69 21.625C257.059 21.7955 257.362 22.0341 257.597 22.3409C257.833 22.6477 257.979 23.0057 258.036 23.4148H257.031C256.954 23.1165 256.783 22.8523 256.519 22.6222C256.258 22.3892 255.906 22.2727 255.462 22.2727C255.07 22.2727 254.727 22.375 254.431 22.5795C254.138 22.7812 253.91 23.0668 253.745 23.4361C253.583 23.8026 253.502 24.233 253.502 24.7273C253.502 25.233 253.582 25.6733 253.741 26.0483C253.903 26.4233 254.13 26.7145 254.423 26.9219C254.718 27.1293 255.065 27.233 255.462 27.233C255.724 27.233 255.961 27.1875 256.174 27.0966C256.387 27.0057 256.567 26.875 256.715 26.7045C256.863 26.5341 256.968 26.3295 257.031 26.0909H258.036C257.979 26.4773 257.839 26.8253 257.614 27.1349C257.393 27.4418 257.099 27.6861 256.732 27.8679C256.369 28.0469 255.945 28.1364 255.462 28.1364ZM260.512 24.0625V28H259.506V19.2727H260.512V22.4773H260.597C260.751 22.1392 260.981 21.8707 261.288 21.6719C261.597 21.4702 262.009 21.3693 262.523 21.3693C262.969 21.3693 263.36 21.4588 263.695 21.6378C264.031 21.8139 264.29 22.0852 264.475 22.4517C264.663 22.8153 264.756 23.2784 264.756 23.8409V28H263.751V23.9091C263.751 23.3892 263.616 22.9872 263.346 22.7031C263.079 22.4162 262.708 22.2727 262.234 22.2727C261.904 22.2727 261.609 22.3423 261.347 22.4815C261.089 22.6207 260.884 22.8239 260.734 23.0909C260.586 23.358 260.512 23.6818 260.512 24.0625ZM272.63 28.1364C272.039 28.1364 271.521 27.9957 271.075 27.7145C270.632 27.4332 270.285 27.0398 270.035 26.5341C269.788 26.0284 269.664 25.4375 269.664 24.7614C269.664 24.0795 269.788 23.4844 270.035 22.9759C270.285 22.4673 270.632 22.0724 271.075 21.7912C271.521 21.5099 272.039 21.3693 272.63 21.3693C273.221 21.3693 273.738 21.5099 274.181 21.7912C274.627 22.0724 274.974 22.4673 275.221 22.9759C275.471 23.4844 275.596 24.0795 275.596 24.7614C275.596 25.4375 275.471 26.0284 275.221 26.5341C274.974 27.0398 274.627 27.4332 274.181 27.7145C273.738 27.9957 273.221 28.1364 272.63 28.1364ZM272.63 27.233C273.079 27.233 273.449 27.1179 273.738 26.8878C274.028 26.6577 274.243 26.3551 274.382 25.9801C274.521 25.6051 274.591 25.1989 274.591 24.7614C274.591 24.3239 274.521 23.9162 274.382 23.5384C274.243 23.1605 274.028 22.8551 273.738 22.6222C273.449 22.3892 273.079 22.2727 272.63 22.2727C272.181 22.2727 271.812 22.3892 271.522 22.6222C271.233 22.8551 271.018 23.1605 270.879 23.5384C270.74 23.9162 270.67 24.3239 270.67 24.7614C270.67 25.1989 270.74 25.6051 270.879 25.9801C271.018 26.3551 271.233 26.6577 271.522 26.8878C271.812 27.1179 272.181 27.233 272.63 27.233ZM278.137 24.0625V28H277.131V21.4545H278.103V22.4773H278.188C278.342 22.1449 278.575 21.8778 278.887 21.6761C279.2 21.4716 279.603 21.3693 280.097 21.3693C280.54 21.3693 280.928 21.4602 281.261 21.642C281.593 21.821 281.852 22.0938 282.036 22.4602C282.221 22.8239 282.313 23.2841 282.313 23.8409V28H281.308V23.9091C281.308 23.3949 281.174 22.9943 280.907 22.7074C280.64 22.4176 280.273 22.2727 279.808 22.2727C279.487 22.2727 279.2 22.3423 278.947 22.4815C278.697 22.6207 278.499 22.8239 278.354 23.0909C278.21 23.358 278.137 23.6818 278.137 24.0625ZM292.435 21.4545C292.384 21.0227 292.176 20.6875 291.813 20.4489C291.449 20.2102 291.003 20.0909 290.475 20.0909C290.088 20.0909 289.75 20.1534 289.461 20.2784C289.174 20.4034 288.949 20.5753 288.787 20.794C288.628 21.0128 288.549 21.2614 288.549 21.5398C288.549 21.7727 288.604 21.973 288.715 22.1406C288.828 22.3054 288.973 22.4432 289.15 22.554C289.326 22.6619 289.51 22.7514 289.703 22.8224C289.897 22.8906 290.074 22.946 290.236 22.9886L291.123 23.2273C291.35 23.2869 291.603 23.3693 291.881 23.4744C292.162 23.5795 292.431 23.723 292.686 23.9048C292.945 24.0838 293.158 24.3139 293.326 24.5952C293.493 24.8764 293.577 25.2216 293.577 25.6307C293.577 26.1023 293.453 26.5284 293.206 26.9091C292.962 27.2898 292.604 27.5923 292.132 27.8168C291.664 28.0412 291.094 28.1534 290.424 28.1534C289.799 28.1534 289.257 28.0526 288.8 27.8509C288.346 27.6491 287.988 27.3679 287.726 27.0071C287.468 26.6463 287.321 26.2273 287.287 25.75H288.378C288.407 26.0795 288.517 26.3523 288.711 26.5682C288.907 26.7812 289.154 26.9403 289.452 27.0455C289.753 27.1477 290.077 27.1989 290.424 27.1989C290.827 27.1989 291.189 27.1335 291.51 27.0028C291.831 26.8693 292.086 26.6847 292.273 26.4489C292.461 26.2102 292.554 25.9318 292.554 25.6136C292.554 25.3239 292.473 25.0881 292.311 24.9062C292.15 24.7244 291.936 24.5767 291.672 24.4631C291.408 24.3494 291.123 24.25 290.816 24.1648L289.742 23.858C289.06 23.6619 288.52 23.3821 288.123 23.0185C287.725 22.6548 287.526 22.179 287.526 21.5909C287.526 21.1023 287.658 20.6761 287.922 20.3125C288.189 19.946 288.547 19.6619 288.996 19.4602C289.448 19.2557 289.952 19.1534 290.509 19.1534C291.071 19.1534 291.571 19.2543 292.009 19.456C292.446 19.6548 292.793 19.9276 293.049 20.2741C293.307 20.6207 293.444 21.0142 293.458 21.4545H292.435ZM299.303 25.3239V21.4545H300.309V28H299.303V26.892H299.235C299.082 27.2244 298.843 27.5071 298.519 27.7401C298.195 27.9702 297.786 28.0852 297.292 28.0852C296.883 28.0852 296.519 27.9957 296.201 27.8168C295.883 27.6349 295.633 27.3622 295.451 26.9986C295.269 26.6321 295.178 26.1705 295.178 25.6136V21.4545H296.184V25.5455C296.184 26.0227 296.317 26.4034 296.585 26.6875C296.854 26.9716 297.198 27.1136 297.616 27.1136C297.866 27.1136 298.12 27.0497 298.379 26.9219C298.64 26.794 298.859 26.598 299.035 26.3338C299.214 26.0696 299.303 25.733 299.303 25.3239ZM303.157 24.0625V28H302.151V21.4545H303.123V22.4773H303.208C303.361 22.1449 303.594 21.8778 303.907 21.6761C304.219 21.4716 304.623 21.3693 305.117 21.3693C305.56 21.3693 305.948 21.4602 306.28 21.642C306.613 21.821 306.871 22.0938 307.056 22.4602C307.24 22.8239 307.333 23.2841 307.333 23.8409V28H306.327V23.9091C306.327 23.3949 306.194 22.9943 305.926 22.7074C305.659 22.4176 305.293 22.2727 304.827 22.2727C304.506 22.2727 304.219 22.3423 303.966 22.4815C303.716 22.6207 303.519 22.8239 303.374 23.0909C303.229 23.358 303.157 23.6818 303.157 24.0625ZM311.642 28.1364C311.097 28.1364 310.615 27.9986 310.197 27.723C309.78 27.4446 309.453 27.0526 309.217 26.5469C308.982 26.0384 308.864 25.4375 308.864 24.7443C308.864 24.0568 308.982 23.4602 309.217 22.9545C309.453 22.4489 309.781 22.0582 310.202 21.7827C310.622 21.5071 311.108 21.3693 311.659 21.3693C312.085 21.3693 312.422 21.4403 312.669 21.5824C312.919 21.7216 313.109 21.8807 313.24 22.0597C313.374 22.2358 313.477 22.3807 313.551 22.4943H313.636V19.2727H314.642V28H313.67V26.9943H313.551C313.477 27.1136 313.372 27.2642 313.236 27.446C313.099 27.625 312.905 27.7855 312.652 27.9276C312.399 28.0668 312.063 28.1364 311.642 28.1364ZM311.778 27.233C312.182 27.233 312.523 27.1278 312.801 26.9176C313.08 26.7045 313.291 26.4105 313.436 26.0355C313.581 25.6577 313.653 25.2216 313.653 24.7273C313.653 24.2386 313.582 23.8111 313.44 23.4446C313.298 23.0753 313.088 22.7884 312.81 22.5838C312.531 22.3764 312.188 22.2727 311.778 22.2727C311.352 22.2727 310.997 22.3821 310.713 22.6009C310.432 22.8168 310.22 23.1108 310.078 23.483C309.939 23.8523 309.869 24.267 309.869 24.7273C309.869 25.1932 309.94 25.6165 310.082 25.9972C310.227 26.375 310.44 26.6761 310.722 26.9006C311.006 27.1222 311.358 27.233 311.778 27.233ZM318.55 28.1534C318.135 28.1534 317.759 28.0753 317.42 27.919C317.082 27.7599 316.814 27.5312 316.615 27.233C316.416 26.9318 316.317 26.5682 316.317 26.142C316.317 25.767 316.391 25.4631 316.538 25.2301C316.686 24.9943 316.884 24.8097 317.131 24.6761C317.378 24.5426 317.651 24.4432 317.949 24.3778C318.25 24.3097 318.553 24.2557 318.857 24.2159C319.254 24.1648 319.577 24.1264 319.824 24.1009C320.074 24.0724 320.256 24.0256 320.369 23.9602C320.486 23.8949 320.544 23.7812 320.544 23.6193V23.5852C320.544 23.1648 320.429 22.8381 320.199 22.6051C319.972 22.3722 319.626 22.2557 319.163 22.2557C318.683 22.2557 318.307 22.3608 318.034 22.571C317.761 22.7812 317.57 23.0057 317.459 23.2443L316.504 22.9034C316.675 22.5057 316.902 22.196 317.186 21.9744C317.473 21.75 317.786 21.5937 318.124 21.5057C318.464 21.4148 318.8 21.3693 319.129 21.3693C319.339 21.3693 319.581 21.3949 319.854 21.446C320.129 21.4943 320.395 21.5952 320.651 21.7486C320.909 21.902 321.124 22.1335 321.294 22.4432C321.464 22.7528 321.55 23.1676 321.55 23.6875V28H320.544V27.1136H320.493C320.425 27.2557 320.311 27.4077 320.152 27.5696C319.993 27.7315 319.781 27.8693 319.517 27.983C319.253 28.0966 318.93 28.1534 318.55 28.1534ZM318.703 27.25C319.101 27.25 319.436 27.1719 319.709 27.0156C319.984 26.8594 320.192 26.6577 320.331 26.4105C320.473 26.1634 320.544 25.9034 320.544 25.6307V24.7102C320.501 24.7614 320.408 24.8082 320.263 24.8509C320.121 24.8906 319.956 24.9261 319.768 24.9574C319.584 24.9858 319.403 25.0114 319.227 25.0341C319.054 25.054 318.913 25.071 318.805 25.0852C318.544 25.1193 318.3 25.1747 318.072 25.2514C317.848 25.3253 317.666 25.4375 317.527 25.5881C317.391 25.7358 317.322 25.9375 317.322 26.1932C317.322 26.5426 317.452 26.8068 317.71 26.9858C317.972 27.1619 318.303 27.25 318.703 27.25ZM323.799 30.4545C323.628 30.4545 323.476 30.4403 323.343 30.4119C323.209 30.3864 323.117 30.3608 323.066 30.3352L323.321 29.4489C323.566 29.5114 323.782 29.5341 323.969 29.517C324.157 29.5 324.323 29.4162 324.468 29.2656C324.615 29.1179 324.75 28.8778 324.873 28.5455L325.06 28.0341L322.64 21.4545H323.73L325.537 26.6705H325.605L327.412 21.4545H328.503L325.725 28.9545C325.6 29.2926 325.445 29.5724 325.26 29.794C325.076 30.0185 324.861 30.1847 324.617 30.2926C324.375 30.4006 324.103 30.4545 323.799 30.4545ZM334.467 22.9205L333.564 23.1761C333.507 23.0256 333.423 22.8793 333.312 22.7372C333.204 22.5923 333.056 22.473 332.869 22.3793C332.681 22.2855 332.441 22.2386 332.149 22.2386C331.748 22.2386 331.414 22.331 331.147 22.5156C330.883 22.6974 330.751 22.929 330.751 23.2102C330.751 23.4602 330.842 23.6577 331.024 23.8026C331.206 23.9474 331.49 24.0682 331.876 24.1648L332.848 24.4034C333.433 24.5455 333.869 24.7628 334.156 25.0554C334.443 25.3452 334.586 25.7187 334.586 26.1761C334.586 26.5511 334.478 26.8864 334.262 27.1818C334.049 27.4773 333.751 27.7102 333.368 27.8807C332.984 28.0511 332.538 28.1364 332.029 28.1364C331.362 28.1364 330.809 27.9915 330.372 27.7017C329.934 27.4119 329.657 26.9886 329.541 26.4318L330.495 26.1932C330.586 26.5455 330.758 26.8097 331.011 26.9858C331.267 27.1619 331.6 27.25 332.012 27.25C332.481 27.25 332.853 27.1506 333.129 26.9517C333.407 26.75 333.547 26.5085 333.547 26.2273C333.547 26 333.467 25.8097 333.308 25.6562C333.149 25.5 332.904 25.3835 332.575 25.3068L331.484 25.0511C330.885 24.9091 330.444 24.6889 330.163 24.3906C329.885 24.0895 329.745 23.7131 329.745 23.2614C329.745 22.892 329.849 22.5653 330.056 22.2812C330.267 21.9972 330.552 21.7741 330.913 21.6122C331.277 21.4503 331.689 21.3693 332.149 21.3693C332.797 21.3693 333.305 21.5114 333.674 21.7955C334.047 22.0795 334.311 22.4545 334.467 22.9205ZM337.413 25.5455V25.4943C337.418 24.9517 337.475 24.5199 337.583 24.1989C337.691 23.8778 337.844 23.6179 338.043 23.419C338.242 23.2202 338.481 23.0369 338.759 22.8693C338.927 22.767 339.077 22.6463 339.211 22.5071C339.344 22.3651 339.45 22.2017 339.526 22.017C339.606 21.8324 339.646 21.6278 339.646 21.4034C339.646 21.125 339.58 20.8835 339.45 20.679C339.319 20.4744 339.144 20.3168 338.925 20.206C338.707 20.0952 338.464 20.0398 338.197 20.0398C337.964 20.0398 337.739 20.0881 337.523 20.1847C337.308 20.2812 337.127 20.4332 336.982 20.6406C336.837 20.848 336.754 21.1193 336.731 21.4545H335.657C335.68 20.9716 335.805 20.5582 336.032 20.2145C336.262 19.8707 336.565 19.608 336.94 19.4261C337.317 19.2443 337.737 19.1534 338.197 19.1534C338.697 19.1534 339.131 19.2528 339.501 19.4517C339.873 19.6506 340.16 19.9233 340.362 20.2699C340.566 20.6165 340.668 21.0114 340.668 21.4545C340.668 21.767 340.62 22.0497 340.523 22.3026C340.43 22.5554 340.293 22.7812 340.114 22.9801C339.938 23.179 339.725 23.3551 339.475 23.5085C339.225 23.6648 339.025 23.8295 338.874 24.0028C338.724 24.1733 338.614 24.3764 338.546 24.6122C338.478 24.848 338.441 25.142 338.435 25.4943V25.5455H337.413ZM337.958 28.0682C337.748 28.0682 337.567 27.9929 337.417 27.8423C337.266 27.6918 337.191 27.5114 337.191 27.3011C337.191 27.0909 337.266 26.9105 337.417 26.7599C337.567 26.6094 337.748 26.5341 337.958 26.5341C338.168 26.5341 338.349 26.6094 338.499 26.7599C338.65 26.9105 338.725 27.0909 338.725 27.3011C338.725 27.4403 338.69 27.5682 338.619 27.6847C338.55 27.8011 338.458 27.8949 338.342 27.9659C338.228 28.0341 338.1 28.0682 337.958 28.0682Z" fill="white"/>
<path d="M72.7585 48V39.2727H76.2017C76.8608 39.2727 77.4233 39.3906 77.8892 39.6264C78.358 39.8594 78.7145 40.1903 78.9588 40.6193C79.206 41.0455 79.3295 41.5469 79.3295 42.1236C79.3295 42.7031 79.2045 43.2017 78.9545 43.6193C78.7045 44.0341 78.3423 44.3523 77.8679 44.5739C77.3963 44.7955 76.8253 44.9062 76.1548 44.9062H73.8494V43.4233H75.8565C76.2088 43.4233 76.5014 43.375 76.7344 43.2784C76.9673 43.1818 77.1406 43.0369 77.2543 42.8438C77.3707 42.6506 77.429 42.4105 77.429 42.1236C77.429 41.8338 77.3707 41.5895 77.2543 41.3906C77.1406 41.1918 76.9659 41.0412 76.7301 40.9389C76.4972 40.8338 76.2031 40.7812 75.848 40.7812H74.6037V48H72.7585ZM77.4716 44.0284L79.6406 48H77.6037L75.4815 44.0284H77.4716ZM83.4769 48.1278C82.8036 48.1278 82.2241 47.9915 81.7383 47.7188C81.2553 47.4432 80.8832 47.054 80.6218 46.5511C80.3604 46.0455 80.2298 45.4474 80.2298 44.7571C80.2298 44.0838 80.3604 43.4929 80.6218 42.9844C80.8832 42.4759 81.2511 42.0795 81.7255 41.7955C82.2028 41.5114 82.7624 41.3693 83.4045 41.3693C83.8363 41.3693 84.2383 41.4389 84.6104 41.5781C84.9854 41.7145 85.3121 41.9205 85.5906 42.196C85.8718 42.4716 86.0906 42.8182 86.2468 43.2358C86.4031 43.6506 86.4812 44.1364 86.4812 44.6932V45.1918H80.9542V44.0668H84.7724C84.7724 43.8054 84.7156 43.5739 84.6019 43.3722C84.4883 43.1705 84.3306 43.0128 84.1289 42.8991C83.93 42.7827 83.6985 42.7244 83.4343 42.7244C83.1587 42.7244 82.9144 42.7884 82.7013 42.9162C82.4911 43.0412 82.3263 43.2102 82.207 43.4233C82.0877 43.6335 82.0266 43.8679 82.0238 44.1264V45.196C82.0238 45.5199 82.0835 45.7997 82.2028 46.0355C82.3249 46.2713 82.4968 46.4531 82.7184 46.581C82.94 46.7088 83.2028 46.7727 83.5067 46.7727C83.7085 46.7727 83.8931 46.7443 84.0607 46.6875C84.2283 46.6307 84.3718 46.5455 84.4911 46.4318C84.6104 46.3182 84.7013 46.179 84.7638 46.0142L86.4428 46.125C86.3576 46.5284 86.1829 46.8807 85.9187 47.1818C85.6573 47.4801 85.3192 47.7131 84.9045 47.8807C84.4925 48.0455 84.0167 48.1278 83.4769 48.1278ZM87.6658 50.4545V41.4545H89.4556V42.554H89.5366C89.6161 42.3778 89.7312 42.1989 89.8817 42.017C90.0352 41.8324 90.234 41.679 90.4783 41.5568C90.7255 41.4318 91.0323 41.3693 91.3988 41.3693C91.8761 41.3693 92.3164 41.4943 92.7198 41.7443C93.1232 41.9915 93.4457 42.3651 93.6871 42.8651C93.9286 43.3622 94.0494 43.9858 94.0494 44.7358C94.0494 45.4659 93.9315 46.0824 93.6957 46.5852C93.4627 47.0852 93.1445 47.4645 92.7411 47.723C92.3406 47.9787 91.8917 48.1065 91.3945 48.1065C91.0423 48.1065 90.7425 48.0483 90.4954 47.9318C90.2511 47.8153 90.0508 47.669 89.8945 47.4929C89.7383 47.3139 89.619 47.1335 89.5366 46.9517H89.4812V50.4545H87.6658ZM89.4428 44.7273C89.4428 45.1165 89.4968 45.456 89.6048 45.7457C89.7127 46.0355 89.869 46.2614 90.0735 46.4233C90.2781 46.5824 90.5266 46.6619 90.8192 46.6619C91.1147 46.6619 91.3647 46.581 91.5692 46.419C91.7738 46.2543 91.9286 46.027 92.0337 45.7372C92.1417 45.4446 92.1957 45.108 92.1957 44.7273C92.1957 44.3494 92.1431 44.017 92.038 43.7301C91.9329 43.4432 91.7781 43.2187 91.5735 43.0568C91.369 42.8949 91.1175 42.8139 90.8192 42.8139C90.5238 42.8139 90.2738 42.892 90.0692 43.0483C89.8675 43.2045 89.7127 43.4261 89.6048 43.7131C89.4968 44 89.4428 44.3381 89.4428 44.7273ZM97.0749 39.2727V48H95.2596V39.2727H97.0749ZM99.6499 50.4545C99.4197 50.4545 99.2038 50.4361 99.0021 50.3991C98.8033 50.3651 98.6385 50.321 98.5078 50.267L98.9169 48.9119C99.13 48.9773 99.3217 49.0128 99.4922 49.0185C99.6655 49.0241 99.8146 48.9844 99.9396 48.8991C100.067 48.8139 100.171 48.669 100.251 48.4645L100.357 48.1875L98.0092 41.4545H99.9183L101.273 46.2614H101.342L102.71 41.4545H104.631L102.087 48.7074C101.965 49.0597 101.799 49.3665 101.589 49.6278C101.381 49.892 101.119 50.0952 100.8 50.2372C100.482 50.3821 100.099 50.4545 99.6499 50.4545ZM106.621 48.1108C106.34 48.1108 106.099 48.0114 105.897 47.8125C105.698 47.6108 105.599 47.3693 105.599 47.0881C105.599 46.8097 105.698 46.571 105.897 46.3722C106.099 46.1733 106.34 46.0739 106.621 46.0739C106.894 46.0739 107.133 46.1733 107.337 46.3722C107.542 46.571 107.644 46.8097 107.644 47.0881C107.644 47.2756 107.596 47.4474 107.499 47.6037C107.406 47.7571 107.282 47.8807 107.129 47.9744C106.975 48.0653 106.806 48.1108 106.621 48.1108ZM106.621 43.5256C106.34 43.5256 106.099 43.4261 105.897 43.2273C105.698 43.0284 105.599 42.7869 105.599 42.5028C105.599 42.2244 105.698 41.9872 105.897 41.7912C106.099 41.5923 106.34 41.4929 106.621 41.4929C106.894 41.4929 107.133 41.5923 107.337 41.7912C107.542 41.9872 107.644 42.2244 107.644 42.5028C107.644 42.6932 107.596 42.8665 107.499 43.0227C107.406 43.1761 107.282 43.2983 107.129 43.3892C106.975 43.4801 106.806 43.5256 106.621 43.5256ZM114.427 48L112.041 39.2727H113.115L114.939 46.3807H115.024L116.882 39.2727H118.075L119.933 46.3807H120.018L121.842 39.2727H122.916L120.529 48H119.439L117.512 41.0455H117.444L115.518 48H114.427ZM126.231 48.1364C125.6 48.1364 125.056 47.9972 124.599 47.7188C124.145 47.4375 123.794 47.0455 123.547 46.5426C123.302 46.0369 123.18 45.4489 123.18 44.7784C123.18 44.108 123.302 43.517 123.547 43.0057C123.794 42.4915 124.137 42.0909 124.578 41.804C125.021 41.5142 125.538 41.3693 126.129 41.3693C126.47 41.3693 126.806 41.4261 127.139 41.5398C127.471 41.6534 127.774 41.8381 128.047 42.0938C128.319 42.3466 128.537 42.6818 128.699 43.0994C128.86 43.517 128.941 44.0312 128.941 44.642V45.0682H123.896V44.1989H127.919C127.919 43.8295 127.845 43.5 127.697 43.2102C127.552 42.9205 127.345 42.6918 127.075 42.5241C126.808 42.3565 126.493 42.2727 126.129 42.2727C125.728 42.2727 125.382 42.3722 125.089 42.571C124.799 42.767 124.576 43.0227 124.42 43.3381C124.264 43.6534 124.186 43.9915 124.186 44.3523V44.9318C124.186 45.4261 124.271 45.8452 124.441 46.1889C124.615 46.5298 124.855 46.7898 125.162 46.9688C125.468 47.1449 125.825 47.233 126.231 47.233C126.495 47.233 126.734 47.196 126.947 47.1222C127.163 47.0455 127.349 46.9318 127.505 46.7812C127.662 46.6278 127.782 46.4375 127.868 46.2102L128.839 46.483C128.737 46.8125 128.565 47.1023 128.324 47.3523C128.082 47.5994 127.784 47.7926 127.429 47.9318C127.074 48.0682 126.674 48.1364 126.231 48.1364ZM136.318 48.1364C135.772 48.1364 135.291 47.9986 134.873 47.723C134.456 47.4446 134.129 47.0526 133.893 46.5469C133.657 46.0384 133.539 45.4375 133.539 44.7443C133.539 44.0568 133.657 43.4602 133.893 42.9545C134.129 42.4489 134.457 42.0582 134.877 41.7827C135.298 41.5071 135.784 41.3693 136.335 41.3693C136.761 41.3693 137.098 41.4403 137.345 41.5824C137.595 41.7216 137.785 41.8807 137.916 42.0597C138.049 42.2358 138.153 42.3807 138.227 42.4943H138.312V39.2727H139.318V48H138.346V46.9943H138.227C138.153 47.1136 138.048 47.2642 137.912 47.446C137.775 47.625 137.581 47.7855 137.328 47.9276C137.075 48.0668 136.738 48.1364 136.318 48.1364ZM136.454 47.233C136.858 47.233 137.199 47.1278 137.477 46.9176C137.755 46.7045 137.967 46.4105 138.112 46.0355C138.257 45.6577 138.329 45.2216 138.329 44.7273C138.329 44.2386 138.258 43.8111 138.116 43.4446C137.974 43.0753 137.764 42.7884 137.485 42.5838C137.207 42.3764 136.863 42.2727 136.454 42.2727C136.028 42.2727 135.673 42.3821 135.389 42.6009C135.108 42.8168 134.896 43.1108 134.754 43.483C134.615 43.8523 134.545 44.267 134.545 44.7273C134.545 45.1932 134.616 45.6165 134.758 45.9972C134.903 46.375 135.116 46.6761 135.397 46.9006C135.681 47.1222 136.034 47.233 136.454 47.233ZM143.958 48.1364C143.368 48.1364 142.849 47.9957 142.403 47.7145C141.96 47.4332 141.613 47.0398 141.363 46.5341C141.116 46.0284 140.993 45.4375 140.993 44.7614C140.993 44.0795 141.116 43.4844 141.363 42.9759C141.613 42.4673 141.96 42.0724 142.403 41.7912C142.849 41.5099 143.368 41.3693 143.958 41.3693C144.549 41.3693 145.066 41.5099 145.51 41.7912C145.956 42.0724 146.302 42.4673 146.549 42.9759C146.799 43.4844 146.924 44.0795 146.924 44.7614C146.924 45.4375 146.799 46.0284 146.549 46.5341C146.302 47.0398 145.956 47.4332 145.51 47.7145C145.066 47.9957 144.549 48.1364 143.958 48.1364ZM143.958 47.233C144.407 47.233 144.777 47.1179 145.066 46.8878C145.356 46.6577 145.571 46.3551 145.71 45.9801C145.849 45.6051 145.919 45.1989 145.919 44.7614C145.919 44.3239 145.849 43.9162 145.71 43.5384C145.571 43.1605 145.356 42.8551 145.066 42.6222C144.777 42.3892 144.407 42.2727 143.958 42.2727C143.51 42.2727 143.14 42.3892 142.85 42.6222C142.561 42.8551 142.346 43.1605 142.207 43.5384C142.068 43.9162 141.998 44.3239 141.998 44.7614C141.998 45.1989 142.068 45.6051 142.207 45.9801C142.346 46.3551 142.561 46.6577 142.85 46.8878C143.14 47.1179 143.51 47.233 143.958 47.233ZM149.789 39.2727L149.704 45.5455H148.715L148.63 39.2727H149.789ZM149.21 48.0682C148.999 48.0682 148.819 47.9929 148.668 47.8423C148.518 47.6918 148.442 47.5114 148.442 47.3011C148.442 47.0909 148.518 46.9105 148.668 46.7599C148.819 46.6094 148.999 46.5341 149.21 46.5341C149.42 46.5341 149.6 46.6094 149.751 46.7599C149.901 46.9105 149.977 47.0909 149.977 47.3011C149.977 47.4403 149.941 47.5682 149.87 47.6847C149.802 47.8011 149.71 47.8949 149.593 47.9659C149.479 48.0341 149.352 48.0682 149.21 48.0682ZM158.225 39.2727V48H157.169V40.3807H157.118L154.987 41.7955V40.7216L157.169 39.2727H158.225ZM163.582 48.1193C162.94 48.1193 162.393 47.9446 161.941 47.5952C161.49 47.2429 161.145 46.733 160.906 46.0653C160.667 45.3949 160.548 44.5852 160.548 43.6364C160.548 42.6932 160.667 41.8878 160.906 41.2202C161.147 40.5497 161.494 40.0384 161.946 39.6861C162.4 39.331 162.946 39.1534 163.582 39.1534C164.218 39.1534 164.762 39.331 165.214 39.6861C165.669 40.0384 166.015 40.5497 166.254 41.2202C166.495 41.8878 166.616 42.6932 166.616 43.6364C166.616 44.5852 166.497 45.3949 166.258 46.0653C166.02 46.733 165.674 47.2429 165.223 47.5952C164.771 47.9446 164.224 48.1193 163.582 48.1193ZM163.582 47.1818C164.218 47.1818 164.713 46.875 165.065 46.2614C165.417 45.6477 165.593 44.7727 165.593 43.6364C165.593 42.8807 165.512 42.2372 165.35 41.706C165.191 41.1747 164.961 40.7699 164.66 40.4915C164.362 40.2131 164.002 40.0739 163.582 40.0739C162.951 40.0739 162.458 40.3849 162.103 41.0071C161.748 41.6264 161.571 42.5028 161.571 43.6364C161.571 44.392 161.65 45.0341 161.809 45.5625C161.968 46.0909 162.197 46.4929 162.495 46.7685C162.797 47.044 163.159 47.1818 163.582 47.1818ZM172.122 48H171.014L174.218 39.2727H175.309L178.514 48H177.406L174.798 40.6534H174.73L172.122 48ZM172.531 44.5909H176.997V45.5284H172.531V44.5909ZM179.873 39.2727H181.135L184.1 46.517H184.203L187.169 39.2727H188.43V48H187.441V41.3693H187.356L184.629 48H183.674L180.947 41.3693H180.862V48H179.873V39.2727ZM196.634 41.4545V42.3068H193.242V41.4545H196.634ZM194.231 39.8864H195.237V46.125C195.237 46.4091 195.278 46.6222 195.36 46.7642C195.445 46.9034 195.553 46.9972 195.684 47.0455C195.817 47.0909 195.958 47.1136 196.106 47.1136C196.217 47.1136 196.308 47.108 196.379 47.0966C196.45 47.0824 196.506 47.071 196.549 47.0625L196.754 47.9659C196.685 47.9915 196.59 48.017 196.468 48.0426C196.346 48.071 196.191 48.0852 196.004 48.0852C195.719 48.0852 195.441 48.0241 195.168 47.902C194.898 47.7798 194.674 47.5938 194.495 47.3438C194.319 47.0938 194.231 46.7784 194.231 46.3977V39.8864ZM200.736 48.1364C200.145 48.1364 199.626 47.9957 199.18 47.7145C198.737 47.4332 198.391 47.0398 198.141 46.5341C197.893 46.0284 197.77 45.4375 197.77 44.7614C197.77 44.0795 197.893 43.4844 198.141 42.9759C198.391 42.4673 198.737 42.0724 199.18 41.7912C199.626 41.5099 200.145 41.3693 200.736 41.3693C201.327 41.3693 201.844 41.5099 202.287 41.7912C202.733 42.0724 203.08 42.4673 203.327 42.9759C203.577 43.4844 203.702 44.0795 203.702 44.7614C203.702 45.4375 203.577 46.0284 203.327 46.5341C203.08 47.0398 202.733 47.4332 202.287 47.7145C201.844 47.9957 201.327 48.1364 200.736 48.1364ZM200.736 47.233C201.185 47.233 201.554 47.1179 201.844 46.8878C202.134 46.6577 202.348 46.3551 202.487 45.9801C202.626 45.6051 202.696 45.1989 202.696 44.7614C202.696 44.3239 202.626 43.9162 202.487 43.5384C202.348 43.1605 202.134 42.8551 201.844 42.6222C201.554 42.3892 201.185 42.2727 200.736 42.2727C200.287 42.2727 199.918 42.3892 199.628 42.6222C199.338 42.8551 199.124 43.1605 198.984 43.5384C198.845 43.9162 198.776 44.3239 198.776 44.7614C198.776 45.1989 198.845 45.6051 198.984 45.9801C199.124 46.3551 199.338 46.6577 199.628 46.8878C199.918 47.1179 200.287 47.233 200.736 47.233ZM208.595 48V47.233L211.475 44.0795C211.814 43.7102 212.092 43.3892 212.311 43.1165C212.529 42.8409 212.691 42.5824 212.797 42.3409C212.904 42.0966 212.958 41.8409 212.958 41.5739C212.958 41.267 212.885 41.0014 212.737 40.777C212.592 40.5526 212.393 40.3793 212.14 40.2571C211.887 40.1349 211.603 40.0739 211.288 40.0739C210.953 40.0739 210.66 40.1435 210.41 40.2827C210.163 40.419 209.971 40.6108 209.835 40.858C209.701 41.1051 209.635 41.3949 209.635 41.7273H208.629C208.629 41.2159 208.747 40.767 208.983 40.3807C209.218 39.9943 209.539 39.6932 209.946 39.4773C210.355 39.2614 210.814 39.1534 211.322 39.1534C211.833 39.1534 212.287 39.2614 212.681 39.4773C213.076 39.6932 213.386 39.9844 213.61 40.3509C213.835 40.7173 213.947 41.125 213.947 41.5739C213.947 41.8949 213.889 42.2088 213.772 42.5156C213.659 42.8196 213.46 43.1591 213.176 43.5341C212.895 43.9062 212.504 44.3608 212.004 44.8977L210.044 46.9943V47.0625H214.1V48H208.595ZM219.389 48V39.2727H222.338C223.022 39.2727 223.582 39.3963 224.017 39.6435C224.454 39.8878 224.778 40.2188 224.988 40.6364C225.199 41.054 225.304 41.5199 225.304 42.0341C225.304 42.5483 225.199 43.0156 224.988 43.4361C224.781 43.8565 224.46 44.1918 224.025 44.4418C223.591 44.6889 223.034 44.8125 222.355 44.8125H220.241V43.875H222.321C222.789 43.875 223.166 43.794 223.45 43.6321C223.734 43.4702 223.94 43.2514 224.068 42.9759C224.199 42.6974 224.264 42.3835 224.264 42.0341C224.264 41.6847 224.199 41.3722 224.068 41.0966C223.94 40.821 223.733 40.6051 223.446 40.4489C223.159 40.2898 222.778 40.2102 222.304 40.2102H220.446V48H219.389ZM227.006 39.2727H228.267L231.233 46.517H231.336L234.301 39.2727H235.563V48H234.574V41.3693H234.489L231.762 48H230.807L228.08 41.3693H227.995V48H227.006V39.2727ZM239.045 46.8068L238.977 47.267C238.929 47.5909 238.855 47.9375 238.756 48.3068C238.659 48.6761 238.558 49.0241 238.453 49.3509C238.348 49.6776 238.261 49.9375 238.193 50.1307H237.426C237.463 49.9489 237.511 49.7088 237.571 49.4105C237.631 49.1122 237.69 48.7784 237.75 48.4091C237.812 48.0426 237.864 47.6676 237.903 47.2841L237.955 46.8068H239.045ZM246.21 48.1534C245.795 48.1534 245.419 48.0753 245.081 47.919C244.743 47.7599 244.474 47.5312 244.275 47.233C244.076 46.9318 243.977 46.5682 243.977 46.142C243.977 45.767 244.051 45.4631 244.199 45.2301C244.346 44.9943 244.544 44.8097 244.791 44.6761C245.038 44.5426 245.311 44.4432 245.609 44.3778C245.91 44.3097 246.213 44.2557 246.517 44.2159C246.914 44.1648 247.237 44.1264 247.484 44.1009C247.734 44.0724 247.916 44.0256 248.029 43.9602C248.146 43.8949 248.204 43.7812 248.204 43.6193V43.5852C248.204 43.1648 248.089 42.8381 247.859 42.6051C247.632 42.3722 247.287 42.2557 246.824 42.2557C246.343 42.2557 245.967 42.3608 245.694 42.571C245.422 42.7812 245.23 43.0057 245.119 43.2443L244.164 42.9034C244.335 42.5057 244.562 42.196 244.846 41.9744C245.133 41.75 245.446 41.5937 245.784 41.5057C246.125 41.4148 246.46 41.3693 246.789 41.3693C247 41.3693 247.241 41.3949 247.514 41.446C247.789 41.4943 248.055 41.5952 248.311 41.7486C248.569 41.902 248.784 42.1335 248.954 42.4432C249.125 42.7528 249.21 43.1676 249.21 43.6875V48H248.204V47.1136H248.153C248.085 47.2557 247.971 47.4077 247.812 47.5696C247.653 47.7315 247.441 47.8693 247.177 47.983C246.913 48.0966 246.591 48.1534 246.21 48.1534ZM246.363 47.25C246.761 47.25 247.096 47.1719 247.369 47.0156C247.645 46.8594 247.852 46.6577 247.991 46.4105C248.133 46.1634 248.204 45.9034 248.204 45.6307V44.7102C248.162 44.7614 248.068 44.8082 247.923 44.8509C247.781 44.8906 247.616 44.9261 247.429 44.9574C247.244 44.9858 247.064 45.0114 246.887 45.0341C246.714 45.054 246.574 45.071 246.466 45.0852C246.204 45.1193 245.96 45.1747 245.733 45.2514C245.508 45.3253 245.326 45.4375 245.187 45.5881C245.051 45.7358 244.983 45.9375 244.983 46.1932C244.983 46.5426 245.112 46.8068 245.37 46.9858C245.632 47.1619 245.963 47.25 246.363 47.25ZM252.051 44.0625V48H251.045V41.4545H252.017V42.4773H252.102C252.256 42.1449 252.489 41.8778 252.801 41.6761C253.114 41.4716 253.517 41.3693 254.011 41.3693C254.455 41.3693 254.842 41.4602 255.175 41.642C255.507 41.821 255.766 42.0938 255.95 42.4602C256.135 42.8239 256.227 43.2841 256.227 43.8409V48H255.222V43.9091C255.222 43.3949 255.088 42.9943 254.821 42.7074C254.554 42.4176 254.188 42.2727 253.722 42.2727C253.401 42.2727 253.114 42.3423 252.861 42.4815C252.611 42.6207 252.413 42.8239 252.268 43.0909C252.124 43.358 252.051 43.6818 252.051 44.0625ZM260.537 48.1364C259.991 48.1364 259.51 47.9986 259.092 47.723C258.674 47.4446 258.348 47.0526 258.112 46.5469C257.876 46.0384 257.758 45.4375 257.758 44.7443C257.758 44.0568 257.876 43.4602 258.112 42.9545C258.348 42.4489 258.676 42.0582 259.096 41.7827C259.517 41.5071 260.002 41.3693 260.554 41.3693C260.98 41.3693 261.316 41.4403 261.564 41.5824C261.814 41.7216 262.004 41.8807 262.135 42.0597C262.268 42.2358 262.372 42.3807 262.446 42.4943H262.531V39.2727H263.537V48H262.565V46.9943H262.446C262.372 47.1136 262.267 47.2642 262.13 47.446C261.994 47.625 261.799 47.7855 261.547 47.9276C261.294 48.0668 260.957 48.1364 260.537 48.1364ZM260.673 47.233C261.076 47.233 261.417 47.1278 261.696 46.9176C261.974 46.7045 262.186 46.4105 262.331 46.0355C262.475 45.6577 262.548 45.2216 262.548 44.7273C262.548 44.2386 262.477 43.8111 262.335 43.4446C262.193 43.0753 261.983 42.7884 261.704 42.5838C261.426 42.3764 261.082 42.2727 260.673 42.2727C260.247 42.2727 259.892 42.3821 259.608 42.6009C259.326 42.8168 259.115 43.1108 258.973 43.483C258.833 43.8523 258.764 44.267 258.764 44.7273C258.764 45.1932 258.835 45.6165 258.977 45.9972C259.122 46.375 259.335 46.6761 259.616 46.9006C259.9 47.1222 260.252 47.233 260.673 47.233ZM269.541 50.4545C269.37 50.4545 269.218 50.4403 269.085 50.4119C268.951 50.3864 268.859 50.3608 268.808 50.3352L269.064 49.4489C269.308 49.5114 269.524 49.5341 269.711 49.517C269.899 49.5 270.065 49.4162 270.21 49.2656C270.358 49.1179 270.493 48.8778 270.615 48.5455L270.802 48.0341L268.382 41.4545H269.473L271.279 46.6705H271.348L273.154 41.4545H274.245L271.467 48.9545C271.342 49.2926 271.187 49.5724 271.002 49.794C270.818 50.0185 270.603 50.1847 270.359 50.2926C270.118 50.4006 269.845 50.4545 269.541 50.4545ZM278.083 48.1364C277.452 48.1364 276.908 47.9972 276.451 47.7188C275.996 47.4375 275.645 47.0455 275.398 46.5426C275.154 46.0369 275.032 45.4489 275.032 44.7784C275.032 44.108 275.154 43.517 275.398 43.0057C275.645 42.4915 275.989 42.0909 276.429 41.804C276.873 41.5142 277.39 41.3693 277.98 41.3693C278.321 41.3693 278.658 41.4261 278.99 41.5398C279.323 41.6534 279.625 41.8381 279.898 42.0938C280.171 42.3466 280.388 42.6818 280.55 43.0994C280.712 43.517 280.793 44.0312 280.793 44.642V45.0682H275.748V44.1989H279.77C279.77 43.8295 279.696 43.5 279.549 43.2102C279.404 42.9205 279.196 42.6918 278.926 42.5241C278.659 42.3565 278.344 42.2727 277.98 42.2727C277.58 42.2727 277.233 42.3722 276.941 42.571C276.651 42.767 276.428 43.0227 276.272 43.3381C276.115 43.6534 276.037 43.9915 276.037 44.3523V44.9318C276.037 45.4261 276.123 45.8452 276.293 46.1889C276.466 46.5298 276.706 46.7898 277.013 46.9688C277.32 47.1449 277.676 47.233 278.083 47.233C278.347 47.233 278.586 47.196 278.799 47.1222C279.015 47.0455 279.201 46.9318 279.357 46.7812C279.513 46.6278 279.634 46.4375 279.719 46.2102L280.691 46.483C280.588 46.8125 280.417 47.1023 280.175 47.3523C279.934 47.5994 279.635 47.7926 279.28 47.9318C278.925 48.0682 278.526 48.1364 278.083 48.1364ZM286.959 42.9205L286.056 43.1761C285.999 43.0256 285.915 42.8793 285.804 42.7372C285.696 42.5923 285.549 42.473 285.361 42.3793C285.174 42.2855 284.934 42.2386 284.641 42.2386C284.24 42.2386 283.907 42.331 283.64 42.5156C283.375 42.6974 283.243 42.929 283.243 43.2102C283.243 43.4602 283.334 43.6577 283.516 43.8026C283.698 43.9474 283.982 44.0682 284.368 44.1648L285.34 44.4034C285.925 44.5455 286.361 44.7628 286.648 45.0554C286.935 45.3452 287.078 45.7187 287.078 46.1761C287.078 46.5511 286.971 46.8864 286.755 47.1818C286.542 47.4773 286.243 47.7102 285.86 47.8807C285.476 48.0511 285.03 48.1364 284.522 48.1364C283.854 48.1364 283.301 47.9915 282.864 47.7017C282.426 47.4119 282.15 46.9886 282.033 46.4318L282.988 46.1932C283.078 46.5455 283.25 46.8097 283.503 46.9858C283.759 47.1619 284.093 47.25 284.505 47.25C284.973 47.25 285.346 47.1506 285.621 46.9517C285.9 46.75 286.039 46.5085 286.039 46.2273C286.039 46 285.959 45.8097 285.8 45.6562C285.641 45.5 285.397 45.3835 285.067 45.3068L283.976 45.0511C283.377 44.9091 282.936 44.6889 282.655 44.3906C282.377 44.0895 282.238 43.7131 282.238 43.2614C282.238 42.892 282.341 42.5653 282.549 42.2812C282.759 41.9972 283.044 41.7741 283.405 41.6122C283.769 41.4503 284.181 41.3693 284.641 41.3693C285.289 41.3693 285.797 41.5114 286.167 41.7955C286.539 42.0795 286.803 42.4545 286.959 42.9205ZM289.325 48.0682C289.115 48.0682 288.935 47.9929 288.784 47.8423C288.634 47.6918 288.558 47.5114 288.558 47.3011C288.558 47.0909 288.634 46.9105 288.784 46.7599C288.935 46.6094 289.115 46.5341 289.325 46.5341C289.536 46.5341 289.716 46.6094 289.866 46.7599C290.017 46.9105 290.092 47.0909 290.092 47.3011C290.092 47.4403 290.057 47.5682 289.986 47.6847C289.918 47.8011 289.825 47.8949 289.709 47.9659C289.595 48.0341 289.467 48.0682 289.325 48.0682ZM292.598 48.0682C292.388 48.0682 292.207 47.9929 292.057 47.8423C291.906 47.6918 291.831 47.5114 291.831 47.3011C291.831 47.0909 291.906 46.9105 292.057 46.7599C292.207 46.6094 292.388 46.5341 292.598 46.5341C292.808 46.5341 292.989 46.6094 293.139 46.7599C293.29 46.9105 293.365 47.0909 293.365 47.3011C293.365 47.4403 293.33 47.5682 293.259 47.6847C293.19 47.8011 293.098 47.8949 292.982 47.9659C292.868 48.0341 292.74 48.0682 292.598 48.0682ZM295.871 48.0682C295.661 48.0682 295.48 47.9929 295.33 47.8423C295.179 47.6918 295.104 47.5114 295.104 47.3011C295.104 47.0909 295.179 46.9105 295.33 46.7599C295.48 46.6094 295.661 46.5341 295.871 46.5341C296.081 46.5341 296.261 46.6094 296.412 46.7599C296.563 46.9105 296.638 47.0909 296.638 47.3011C296.638 47.4403 296.602 47.5682 296.531 47.6847C296.463 47.8011 296.371 47.8949 296.254 47.9659C296.141 48.0341 296.013 48.0682 295.871 48.0682ZM304.669 41.4545V42.3068H301.277V41.4545H304.669ZM302.266 39.8864H303.272V46.125C303.272 46.4091 303.313 46.6222 303.395 46.7642C303.48 46.9034 303.588 46.9972 303.719 47.0455C303.853 47.0909 303.993 47.1136 304.141 47.1136C304.252 47.1136 304.343 47.108 304.414 47.0966C304.485 47.0824 304.542 47.071 304.584 47.0625L304.789 47.9659C304.721 47.9915 304.625 48.017 304.503 48.0426C304.381 48.071 304.226 48.0852 304.039 48.0852C303.755 48.0852 303.476 48.0241 303.203 47.902C302.934 47.7798 302.709 47.5938 302.53 47.3438C302.354 47.0938 302.266 46.7784 302.266 46.3977V39.8864ZM307.328 44.0625V48H306.323V39.2727H307.328V42.4773H307.414C307.567 42.1392 307.797 41.8707 308.104 41.6719C308.414 41.4702 308.826 41.3693 309.34 41.3693C309.786 41.3693 310.176 41.4588 310.512 41.6378C310.847 41.8139 311.107 42.0852 311.292 42.4517C311.479 42.8153 311.573 43.2784 311.573 43.8409V48H310.567V43.9091C310.567 43.3892 310.432 42.9872 310.162 42.7031C309.895 42.4162 309.525 42.2727 309.05 42.2727C308.721 42.2727 308.425 42.3423 308.164 42.4815C307.905 42.6207 307.701 42.8239 307.55 43.0909C307.402 43.358 307.328 43.6818 307.328 44.0625ZM316.157 48.1364C315.526 48.1364 314.982 47.9972 314.525 47.7188C314.07 47.4375 313.719 47.0455 313.472 46.5426C313.228 46.0369 313.106 45.4489 313.106 44.7784C313.106 44.108 313.228 43.517 313.472 43.0057C313.719 42.4915 314.063 42.0909 314.504 41.804C314.947 41.5142 315.464 41.3693 316.055 41.3693C316.396 41.3693 316.732 41.4261 317.065 41.5398C317.397 41.6534 317.7 41.8381 317.972 42.0938C318.245 42.3466 318.462 42.6818 318.624 43.0994C318.786 43.517 318.867 44.0312 318.867 44.642V45.0682H313.822V44.1989H317.844C317.844 43.8295 317.771 43.5 317.623 43.2102C317.478 42.9205 317.271 42.6918 317.001 42.5241C316.734 42.3565 316.418 42.2727 316.055 42.2727C315.654 42.2727 315.308 42.3722 315.015 42.571C314.725 42.767 314.502 43.0227 314.346 43.3381C314.19 43.6534 314.112 43.9915 314.112 44.3523V44.9318C314.112 45.4261 314.197 45.8452 314.367 46.1889C314.54 46.5298 314.781 46.7898 315.087 46.9688C315.394 47.1449 315.751 47.233 316.157 47.233C316.421 47.233 316.66 47.196 316.873 47.1222C317.089 47.0455 317.275 46.9318 317.431 46.7812C317.587 46.6278 317.708 46.4375 317.793 46.2102L318.765 46.483C318.663 46.8125 318.491 47.1023 318.249 47.3523C318.008 47.5994 317.71 47.7926 317.354 47.9318C316.999 48.0682 316.6 48.1364 316.157 48.1364ZM72.9205 67.4545V58.4545H73.892V59.4943H74.0114C74.0852 59.3807 74.1875 59.2358 74.3182 59.0597C74.4517 58.8807 74.642 58.7216 74.8892 58.5824C75.1392 58.4403 75.4773 58.3693 75.9034 58.3693C76.4545 58.3693 76.9403 58.5071 77.3608 58.7827C77.7813 59.0582 78.1094 59.4489 78.3452 59.9545C78.581 60.4602 78.6989 61.0568 78.6989 61.7443C78.6989 62.4375 78.581 63.0384 78.3452 63.5469C78.1094 64.0526 77.7827 64.4446 77.3651 64.723C76.9474 64.9986 76.4659 65.1364 75.9205 65.1364C75.5 65.1364 75.1634 65.0668 74.9105 64.9276C74.6577 64.7855 74.4631 64.625 74.3267 64.446C74.1903 64.2642 74.0852 64.1136 74.0114 63.9943H73.9261V67.4545H72.9205ZM73.9091 61.7273C73.9091 62.2216 73.9815 62.6577 74.1264 63.0355C74.2713 63.4105 74.483 63.7045 74.7614 63.9176C75.0398 64.1278 75.3807 64.233 75.7841 64.233C76.2045 64.233 76.5554 64.1222 76.8366 63.9006C77.1207 63.6761 77.3338 63.375 77.4759 62.9972C77.6207 62.6165 77.6932 62.1932 77.6932 61.7273C77.6932 61.267 77.6222 60.8523 77.4801 60.483C77.3409 60.1108 77.1293 59.8168 76.8452 59.6009C76.5639 59.3821 76.2102 59.2727 75.7841 59.2727C75.375 59.2727 75.0313 59.3764 74.7528 59.5838C74.4744 59.7884 74.2642 60.0753 74.1222 60.4446C73.9801 60.8111 73.9091 61.2386 73.9091 61.7273ZM82.1591 65.1534C81.7443 65.1534 81.3679 65.0753 81.0298 64.919C80.6918 64.7599 80.4233 64.5312 80.2244 64.233C80.0256 63.9318 79.9261 63.5682 79.9261 63.142C79.9261 62.767 80 62.4631 80.1477 62.2301C80.2955 61.9943 80.4929 61.8097 80.7401 61.6761C80.9872 61.5426 81.2599 61.4432 81.5582 61.3778C81.8594 61.3097 82.1619 61.2557 82.4659 61.2159C82.8636 61.1648 83.1861 61.1264 83.4332 61.1009C83.6832 61.0724 83.8651 61.0256 83.9787 60.9602C84.0952 60.8949 84.1534 60.7812 84.1534 60.6193V60.5852C84.1534 60.1648 84.0384 59.8381 83.8082 59.6051C83.581 59.3722 83.2358 59.2557 82.7727 59.2557C82.2926 59.2557 81.9162 59.3608 81.6435 59.571C81.3707 59.7812 81.179 60.0057 81.0682 60.2443L80.1136 59.9034C80.2841 59.5057 80.5114 59.196 80.7955 58.9744C81.0824 58.75 81.3949 58.5937 81.733 58.5057C82.0739 58.4148 82.4091 58.3693 82.7386 58.3693C82.9489 58.3693 83.1903 58.3949 83.4631 58.446C83.7386 58.4943 84.0043 58.5952 84.2599 58.7486C84.5185 58.902 84.733 59.1335 84.9034 59.4432C85.0739 59.7528 85.1591 60.1676 85.1591 60.6875V65H84.1534V64.1136H84.1023C84.0341 64.2557 83.9205 64.4077 83.7614 64.5696C83.6023 64.7315 83.3906 64.8693 83.1264 64.983C82.8622 65.0966 82.5398 65.1534 82.1591 65.1534ZM82.3125 64.25C82.7102 64.25 83.0455 64.1719 83.3182 64.0156C83.5938 63.8594 83.8011 63.6577 83.9403 63.4105C84.0824 63.1634 84.1534 62.9034 84.1534 62.6307V61.7102C84.1108 61.7614 84.017 61.8082 83.8722 61.8509C83.7301 61.8906 83.5653 61.9261 83.3778 61.9574C83.1932 61.9858 83.0128 62.0114 82.8366 62.0341C82.6634 62.054 82.5227 62.071 82.4148 62.0852C82.1534 62.1193 81.9091 62.1747 81.6818 62.2514C81.4574 62.3253 81.2756 62.4375 81.1364 62.5881C81 62.7358 80.9318 62.9375 80.9318 63.1932C80.9318 63.5426 81.0611 63.8068 81.3196 63.9858C81.581 64.1619 81.9119 64.25 82.3125 64.25ZM88.0004 61.0625V65H86.9947V58.4545H87.9663V59.4773H88.0515C88.2049 59.1449 88.4379 58.8778 88.7504 58.6761C89.0629 58.4716 89.4663 58.3693 89.9606 58.3693C90.4038 58.3693 90.7915 58.4602 91.1239 58.642C91.4563 58.821 91.7148 59.0938 91.8995 59.4602C92.0842 59.8239 92.1765 60.2841 92.1765 60.8409V65H91.1708V60.9091C91.1708 60.3949 91.0373 59.9943 90.7702 59.7074C90.5032 59.4176 90.1367 59.2727 89.6708 59.2727C89.3498 59.2727 89.0629 59.3423 88.81 59.4815C88.56 59.6207 88.3626 59.8239 88.2177 60.0909C88.0728 60.358 88.0004 60.6818 88.0004 61.0625ZM96.6733 65.1364C96.0597 65.1364 95.5313 64.9915 95.0881 64.7017C94.6449 64.4119 94.304 64.0128 94.0653 63.5043C93.8267 62.9957 93.7074 62.4148 93.7074 61.7614C93.7074 61.0966 93.8295 60.5099 94.0739 60.0014C94.321 59.4901 94.6648 59.0909 95.1051 58.804C95.5483 58.5142 96.0653 58.3693 96.6562 58.3693C97.1165 58.3693 97.5312 58.4545 97.9006 58.625C98.2699 58.7955 98.5724 59.0341 98.8082 59.3409C99.044 59.6477 99.1903 60.0057 99.2472 60.4148H98.2415C98.1648 60.1165 97.9943 59.8523 97.7301 59.6222C97.4688 59.3892 97.1165 59.2727 96.6733 59.2727C96.2813 59.2727 95.9375 59.375 95.642 59.5795C95.3494 59.7812 95.1207 60.0668 94.956 60.4361C94.794 60.8026 94.7131 61.233 94.7131 61.7273C94.7131 62.233 94.7926 62.6733 94.9517 63.0483C95.1136 63.4233 95.3409 63.7145 95.6335 63.9219C95.929 64.1293 96.2756 64.233 96.6733 64.233C96.9347 64.233 97.1719 64.1875 97.3849 64.0966C97.598 64.0057 97.7784 63.875 97.9261 63.7045C98.0739 63.5341 98.179 63.3295 98.2415 63.0909H99.2472C99.1903 63.4773 99.0497 63.8253 98.8253 64.1349C98.6037 64.4418 98.3097 64.6861 97.9432 64.8679C97.5795 65.0469 97.1563 65.1364 96.6733 65.1364ZM102.643 65.1534C102.229 65.1534 101.852 65.0753 101.514 64.919C101.176 64.7599 100.908 64.5312 100.709 64.233C100.51 63.9318 100.411 63.5682 100.411 63.142C100.411 62.767 100.484 62.4631 100.632 62.2301C100.78 61.9943 100.977 61.8097 101.224 61.6761C101.472 61.5426 101.744 61.4432 102.043 61.3778C102.344 61.3097 102.646 61.2557 102.95 61.2159C103.348 61.1648 103.67 61.1264 103.918 61.1009C104.168 61.0724 104.349 61.0256 104.463 60.9602C104.58 60.8949 104.638 60.7812 104.638 60.6193V60.5852C104.638 60.1648 104.523 59.8381 104.293 59.6051C104.065 59.3722 103.72 59.2557 103.257 59.2557C102.777 59.2557 102.401 59.3608 102.128 59.571C101.855 59.7812 101.663 60.0057 101.553 60.2443L100.598 59.9034C100.768 59.5057 100.996 59.196 101.28 58.9744C101.567 58.75 101.879 58.5937 102.217 58.5057C102.558 58.4148 102.893 58.3693 103.223 58.3693C103.433 58.3693 103.675 58.3949 103.947 58.446C104.223 58.4943 104.489 58.5952 104.744 58.7486C105.003 58.902 105.217 59.1335 105.388 59.4432C105.558 59.7528 105.643 60.1676 105.643 60.6875V65H104.638V64.1136H104.587C104.518 64.2557 104.405 64.4077 104.246 64.5696C104.087 64.7315 103.875 64.8693 103.611 64.983C103.347 65.0966 103.024 65.1534 102.643 65.1534ZM102.797 64.25C103.195 64.25 103.53 64.1719 103.803 64.0156C104.078 63.8594 104.286 63.6577 104.425 63.4105C104.567 63.1634 104.638 62.9034 104.638 62.6307V61.7102C104.595 61.7614 104.501 61.8082 104.357 61.8509C104.214 61.8906 104.05 61.9261 103.862 61.9574C103.678 61.9858 103.497 62.0114 103.321 62.0341C103.148 62.054 103.007 62.071 102.899 62.0852C102.638 62.1193 102.393 62.1747 102.166 62.2514C101.942 62.3253 101.76 62.4375 101.621 62.5881C101.484 62.7358 101.416 62.9375 101.416 63.1932C101.416 63.5426 101.545 63.8068 101.804 63.9858C102.065 64.1619 102.396 64.25 102.797 64.25ZM108.417 62.6136L108.4 61.3693H108.604L111.468 58.4545H112.712L109.661 61.5398H109.576L108.417 62.6136ZM107.479 65V56.2727H108.485V65H107.479ZM111.638 65L109.081 61.7614L109.797 61.0625L112.917 65H111.638ZM116.481 65.1364C115.85 65.1364 115.306 64.9972 114.849 64.7188C114.395 64.4375 114.044 64.0455 113.797 63.5426C113.552 63.0369 113.43 62.4489 113.43 61.7784C113.43 61.108 113.552 60.517 113.797 60.0057C114.044 59.4915 114.387 59.0909 114.828 58.804C115.271 58.5142 115.788 58.3693 116.379 58.3693C116.72 58.3693 117.056 58.4261 117.389 58.5398C117.721 58.6534 118.024 58.8381 118.297 59.0938C118.569 59.3466 118.787 59.6818 118.949 60.0994C119.11 60.517 119.191 61.0312 119.191 61.642V62.0682H114.146V61.1989H118.169C118.169 60.8295 118.095 60.5 117.947 60.2102C117.802 59.9205 117.595 59.6918 117.325 59.5241C117.058 59.3565 116.743 59.2727 116.379 59.2727C115.978 59.2727 115.632 59.3722 115.339 59.571C115.049 59.767 114.826 60.0227 114.67 60.3381C114.514 60.6534 114.436 60.9915 114.436 61.3523V61.9318C114.436 62.4261 114.521 62.8452 114.691 63.1889C114.865 63.5298 115.105 63.7898 115.412 63.9688C115.718 64.1449 116.075 64.233 116.481 64.233C116.745 64.233 116.984 64.196 117.197 64.1222C117.413 64.0455 117.599 63.9318 117.755 63.7812C117.912 63.6278 118.032 63.4375 118.118 63.2102L119.089 63.483C118.987 63.8125 118.815 64.1023 118.574 64.3523C118.332 64.5994 118.034 64.7926 117.679 64.9318C117.324 65.0682 116.924 65.1364 116.481 65.1364ZM125.358 59.9205L124.454 60.1761C124.397 60.0256 124.314 59.8793 124.203 59.7372C124.095 59.5923 123.947 59.473 123.76 59.3793C123.572 59.2855 123.332 59.2386 123.039 59.2386C122.639 59.2386 122.305 59.331 122.038 59.5156C121.774 59.6974 121.642 59.929 121.642 60.2102C121.642 60.4602 121.733 60.6577 121.914 60.8026C122.096 60.9474 122.38 61.0682 122.767 61.1648L123.738 61.4034C124.324 61.5455 124.76 61.7628 125.047 62.0554C125.333 62.3452 125.477 62.7187 125.477 63.1761C125.477 63.5511 125.369 63.8864 125.153 64.1818C124.94 64.4773 124.642 64.7102 124.258 64.8807C123.875 65.0511 123.429 65.1364 122.92 65.1364C122.252 65.1364 121.7 64.9915 121.262 64.7017C120.825 64.4119 120.548 63.9886 120.431 63.4318L121.386 63.1932C121.477 63.5455 121.649 63.8097 121.902 63.9858C122.157 64.1619 122.491 64.25 122.903 64.25C123.372 64.25 123.744 64.1506 124.02 63.9517C124.298 63.75 124.437 63.5085 124.437 63.2273C124.437 63 124.358 62.8097 124.199 62.6562C124.039 62.5 123.795 62.3835 123.466 62.3068L122.375 62.0511C121.775 61.9091 121.335 61.6889 121.054 61.3906C120.775 61.0895 120.636 60.7131 120.636 60.2614C120.636 59.892 120.74 59.5653 120.947 59.2812C121.157 58.9972 121.443 58.7741 121.804 58.6122C122.167 58.4503 122.579 58.3693 123.039 58.3693C123.687 58.3693 124.196 58.5114 124.565 58.7955C124.937 59.0795 125.201 59.4545 125.358 59.9205ZM132.292 65.1534C131.877 65.1534 131.501 65.0753 131.163 64.919C130.825 64.7599 130.556 64.5312 130.357 64.233C130.158 63.9318 130.059 63.5682 130.059 63.142C130.059 62.767 130.133 62.4631 130.281 62.2301C130.428 61.9943 130.626 61.8097 130.873 61.6761C131.12 61.5426 131.393 61.4432 131.691 61.3778C131.992 61.3097 132.295 61.2557 132.599 61.2159C132.996 61.1648 133.319 61.1264 133.566 61.1009C133.816 61.0724 133.998 61.0256 134.112 60.9602C134.228 60.8949 134.286 60.7812 134.286 60.6193V60.5852C134.286 60.1648 134.171 59.8381 133.941 59.6051C133.714 59.3722 133.369 59.2557 132.906 59.2557C132.425 59.2557 132.049 59.3608 131.776 59.571C131.504 59.7812 131.312 60.0057 131.201 60.2443L130.246 59.9034C130.417 59.5057 130.644 59.196 130.928 58.9744C131.215 58.75 131.528 58.5937 131.866 58.5057C132.207 58.4148 132.542 58.3693 132.871 58.3693C133.082 58.3693 133.323 58.3949 133.596 58.446C133.871 58.4943 134.137 58.5952 134.393 58.7486C134.651 58.902 134.866 59.1335 135.036 59.4432C135.207 59.7528 135.292 60.1676 135.292 60.6875V65H134.286V64.1136H134.235C134.167 64.2557 134.053 64.4077 133.894 64.5696C133.735 64.7315 133.523 64.8693 133.259 64.983C132.995 65.0966 132.673 65.1534 132.292 65.1534ZM132.445 64.25C132.843 64.25 133.178 64.1719 133.451 64.0156C133.727 63.8594 133.934 63.6577 134.073 63.4105C134.215 63.1634 134.286 62.9034 134.286 62.6307V61.7102C134.244 61.7614 134.15 61.8082 134.005 61.8509C133.863 61.8906 133.698 61.9261 133.511 61.9574C133.326 61.9858 133.146 62.0114 132.969 62.0341C132.796 62.054 132.656 62.071 132.548 62.0852C132.286 62.1193 132.042 62.1747 131.815 62.2514C131.59 62.3253 131.408 62.4375 131.269 62.5881C131.133 62.7358 131.065 62.9375 131.065 63.1932C131.065 63.5426 131.194 63.8068 131.452 63.9858C131.714 64.1619 132.045 64.25 132.445 64.25ZM137.127 65V58.4545H138.099V59.4432H138.167C138.287 59.1193 138.502 58.8565 138.815 58.6548C139.127 58.4531 139.48 58.3523 139.872 58.3523C139.946 58.3523 140.038 58.3537 140.149 58.3565C140.26 58.3594 140.343 58.3636 140.4 58.3693V59.392C140.366 59.3835 140.288 59.3707 140.166 59.3537C140.047 59.3338 139.92 59.3239 139.787 59.3239C139.468 59.3239 139.184 59.3906 138.934 59.5241C138.687 59.6548 138.491 59.8366 138.346 60.0696C138.204 60.2997 138.133 60.5625 138.133 60.858V65H137.127ZM144.137 65.1364C143.507 65.1364 142.963 64.9972 142.505 64.7188C142.051 64.4375 141.7 64.0455 141.453 63.5426C141.208 63.0369 141.086 62.4489 141.086 61.7784C141.086 61.108 141.208 60.517 141.453 60.0057C141.7 59.4915 142.044 59.0909 142.484 58.804C142.927 58.5142 143.444 58.3693 144.035 58.3693C144.376 58.3693 144.713 58.4261 145.045 58.5398C145.377 58.6534 145.68 58.8381 145.953 59.0938C146.225 59.3466 146.443 59.6818 146.605 60.0994C146.767 60.517 146.848 61.0312 146.848 61.642V62.0682H141.802V61.1989H145.825C145.825 60.8295 145.751 60.5 145.603 60.2102C145.458 59.9205 145.251 59.6918 144.981 59.5241C144.714 59.3565 144.399 59.2727 144.035 59.2727C143.635 59.2727 143.288 59.3722 142.995 59.571C142.706 59.767 142.483 60.0227 142.326 60.3381C142.17 60.6534 142.092 60.9915 142.092 61.3523V61.9318C142.092 62.4261 142.177 62.8452 142.348 63.1889C142.521 63.5298 142.761 63.7898 143.068 63.9688C143.375 64.1449 143.731 64.233 144.137 64.233C144.402 64.233 144.64 64.196 144.853 64.1222C145.069 64.0455 145.255 63.9318 145.412 63.7812C145.568 63.6278 145.689 63.4375 145.774 63.2102L146.745 63.483C146.643 63.8125 146.471 64.1023 146.23 64.3523C145.988 64.5994 145.69 64.7926 145.335 64.9318C144.98 65.0682 144.581 65.1364 144.137 65.1364ZM155.877 62.3239V58.4545H156.883V65H155.877V63.892H155.809C155.656 64.2244 155.417 64.5071 155.093 64.7401C154.77 64.9702 154.36 65.0852 153.866 65.0852C153.457 65.0852 153.093 64.9957 152.775 64.8168C152.457 64.6349 152.207 64.3622 152.025 63.9986C151.843 63.6321 151.752 63.1705 151.752 62.6136V58.4545H152.758V62.5455C152.758 63.0227 152.892 63.4034 153.159 63.6875C153.429 63.9716 153.772 64.1136 154.19 64.1136C154.44 64.1136 154.694 64.0497 154.953 63.9219C155.214 63.794 155.433 63.598 155.609 63.3338C155.788 63.0696 155.877 62.733 155.877 62.3239ZM159.731 61.0625V65H158.725V58.4545H159.697V59.4773H159.782C159.935 59.1449 160.168 58.8778 160.481 58.6761C160.793 58.4716 161.197 58.3693 161.691 58.3693C162.134 58.3693 162.522 58.4602 162.854 58.642C163.187 58.821 163.445 59.0938 163.63 59.4602C163.815 59.8239 163.907 60.2841 163.907 60.8409V65H162.901V60.9091C162.901 60.3949 162.768 59.9943 162.501 59.7074C162.234 59.4176 161.867 59.2727 161.401 59.2727C161.08 59.2727 160.793 59.3423 160.54 59.4815C160.29 59.6207 160.093 59.8239 159.948 60.0909C159.803 60.358 159.731 60.6818 159.731 61.0625ZM166.75 56.2727V65H165.745V56.2727H166.75ZM168.592 65V58.4545H169.598V65H168.592ZM169.104 57.3636C168.908 57.3636 168.739 57.2969 168.597 57.1634C168.457 57.0298 168.388 56.8693 168.388 56.6818C168.388 56.4943 168.457 56.3338 168.597 56.2003C168.739 56.0668 168.908 56 169.104 56C169.3 56 169.467 56.0668 169.607 56.2003C169.749 56.3338 169.82 56.4943 169.82 56.6818C169.82 56.8693 169.749 57.0298 169.607 57.1634C169.467 57.2969 169.3 57.3636 169.104 57.3636ZM171.44 65V58.4545H172.412V59.4773H172.497C172.633 59.1278 172.853 58.8565 173.157 58.6634C173.461 58.4673 173.826 58.3693 174.252 58.3693C174.684 58.3693 175.044 58.4673 175.331 58.6634C175.62 58.8565 175.846 59.1278 176.008 59.4773H176.076C176.244 59.1392 176.495 58.8707 176.831 58.6719C177.166 58.4702 177.568 58.3693 178.037 58.3693C178.622 58.3693 179.1 58.5526 179.473 58.919C179.845 59.2827 180.031 59.8494 180.031 60.6193V65H179.025V60.6193C179.025 60.1364 178.893 59.7912 178.629 59.5838C178.365 59.3764 178.054 59.2727 177.696 59.2727C177.235 59.2727 176.879 59.4119 176.626 59.6903C176.373 59.9659 176.247 60.3153 176.247 60.7386V65H175.224V60.517C175.224 60.1449 175.103 59.8452 174.862 59.6179C174.62 59.3878 174.309 59.2727 173.929 59.2727C173.667 59.2727 173.423 59.3423 173.196 59.4815C172.971 59.6207 172.789 59.8139 172.65 60.0611C172.514 60.3054 172.446 60.5881 172.446 60.9091V65H171.44ZM181.87 65V58.4545H182.875V65H181.87ZM182.381 57.3636C182.185 57.3636 182.016 57.2969 181.874 57.1634C181.735 57.0298 181.665 56.8693 181.665 56.6818C181.665 56.4943 181.735 56.3338 181.874 56.2003C182.016 56.0668 182.185 56 182.381 56C182.577 56 182.745 56.0668 182.884 56.2003C183.026 56.3338 183.097 56.4943 183.097 56.6818C183.097 56.8693 183.026 57.0298 182.884 57.1634C182.745 57.2969 182.577 57.3636 182.381 57.3636ZM187.564 58.4545V59.3068H184.172V58.4545H187.564ZM185.161 56.8864H186.166V63.125C186.166 63.4091 186.207 63.6222 186.29 63.7642C186.375 63.9034 186.483 63.9972 186.614 64.0455C186.747 64.0909 186.888 64.1136 187.036 64.1136C187.146 64.1136 187.237 64.108 187.308 64.0966C187.379 64.0824 187.436 64.071 187.479 64.0625L187.683 64.9659C187.615 64.9915 187.52 65.017 187.398 65.0426C187.276 65.071 187.121 65.0852 186.933 65.0852C186.649 65.0852 186.371 65.0241 186.098 64.902C185.828 64.7798 185.604 64.5938 185.425 64.3438C185.249 64.0938 185.161 63.7784 185.161 63.3977V56.8864ZM191.751 65.1364C191.12 65.1364 190.576 64.9972 190.119 64.7188C189.664 64.4375 189.313 64.0455 189.066 63.5426C188.822 63.0369 188.7 62.4489 188.7 61.7784C188.7 61.108 188.822 60.517 189.066 60.0057C189.313 59.4915 189.657 59.0909 190.097 58.804C190.54 58.5142 191.058 58.3693 191.648 58.3693C191.989 58.3693 192.326 58.4261 192.658 58.5398C192.991 58.6534 193.293 58.8381 193.566 59.0938C193.839 59.3466 194.056 59.6818 194.218 60.0994C194.38 60.517 194.461 61.0312 194.461 61.642V62.0682H189.415V61.1989H193.438C193.438 60.8295 193.364 60.5 193.217 60.2102C193.072 59.9205 192.864 59.6918 192.594 59.5241C192.327 59.3565 192.012 59.2727 191.648 59.2727C191.248 59.2727 190.901 59.3722 190.609 59.571C190.319 59.767 190.096 60.0227 189.94 60.3381C189.783 60.6534 189.705 60.9915 189.705 61.3523V61.9318C189.705 62.4261 189.79 62.8452 189.961 63.1889C190.134 63.5298 190.374 63.7898 190.681 63.9688C190.988 64.1449 191.344 64.233 191.751 64.233C192.015 64.233 192.254 64.196 192.467 64.1222C192.683 64.0455 192.869 63.9318 193.025 63.7812C193.181 63.6278 193.302 63.4375 193.387 63.2102L194.359 63.483C194.256 63.8125 194.085 64.1023 193.843 64.3523C193.602 64.5994 193.303 64.7926 192.948 64.9318C192.593 65.0682 192.194 65.1364 191.751 65.1364ZM198.462 65.1364C197.917 65.1364 197.435 64.9986 197.018 64.723C196.6 64.4446 196.273 64.0526 196.038 63.5469C195.802 63.0384 195.684 62.4375 195.684 61.7443C195.684 61.0568 195.802 60.4602 196.038 59.9545C196.273 59.4489 196.602 59.0582 197.022 58.7827C197.442 58.5071 197.928 58.3693 198.479 58.3693C198.906 58.3693 199.242 58.4403 199.489 58.5824C199.739 58.7216 199.93 58.8807 200.06 59.0597C200.194 59.2358 200.298 59.3807 200.371 59.4943H200.457V56.2727H201.462V65H200.491V63.9943H200.371C200.298 64.1136 200.192 64.2642 200.056 64.446C199.92 64.625 199.725 64.7855 199.472 64.9276C199.219 65.0668 198.883 65.1364 198.462 65.1364ZM198.599 64.233C199.002 64.233 199.343 64.1278 199.621 63.9176C199.9 63.7045 200.112 63.4105 200.256 63.0355C200.401 62.6577 200.474 62.2216 200.474 61.7273C200.474 61.2386 200.403 60.8111 200.261 60.4446C200.119 60.0753 199.908 59.7884 199.63 59.5838C199.352 59.3764 199.008 59.2727 198.599 59.2727C198.173 59.2727 197.817 59.3821 197.533 59.6009C197.252 59.8168 197.04 60.1108 196.898 60.483C196.759 60.8523 196.69 61.267 196.69 61.7273C196.69 62.1932 196.761 62.6165 196.903 62.9972C197.048 63.375 197.261 63.6761 197.542 63.9006C197.826 64.1222 198.178 64.233 198.599 64.233Z" fill="white"/>
<g clip-path="url(#clip0_338_27555)">
<path d="M214.537 64.4918C214.537 64.4918 212.057 64.845 211.997 64.9258C211.946 64.9936 211.901 65.0512 212.162 65.2798C212.406 65.4929 213.37 66.1478 215.4 65.5333C216.574 65.1784 217.137 64.0595 216.949 63.7407C216.761 63.4218 216.461 63.5344 216.461 63.5344L214.537 64.4918Z" fill="#D17020"/>
<path d="M212.546 64.6696C212.546 64.6696 211.921 64.6679 211.987 64.9394C212.011 65.04 212.667 65.2247 213.108 65.2522C213.559 65.2806 214.312 65.2858 215.307 64.8913C216.144 64.5596 216.496 64.2751 216.742 63.8858C216.86 63.6976 216.751 63.4622 216.751 63.4622L212.546 64.6696Z" fill="#AC5811"/>
<path d="M207.752 60.9744C207.752 60.9744 207.62 61.0783 207.497 61.4762C207.405 61.7727 207.241 62.2239 207.47 62.7309C207.632 63.091 208.483 64.8605 212.244 65.0108C216.205 65.169 217.273 63.0798 217.401 62.5848C217.593 61.8398 217.311 61.4565 217.187 61.3662C217.062 61.2751 207.752 60.9744 207.752 60.9744Z" fill="#FCE9C5"/>
<path d="M208.26 60.7217C208.238 60.7552 207.628 61.1393 207.628 61.1393C207.628 61.1393 207.312 61.8277 207.877 62.5728C208.441 63.3179 209.659 64.1979 212.266 64.3671C214.873 64.5364 216.882 63.4304 217.209 62.3588C217.537 61.2871 216.879 61.0749 216.879 61.0749L208.26 60.7217Z" fill="#FFA828"/>
<path d="M213.699 63.0351C213.688 63.1589 213.803 63.4828 214.18 63.7501C214.464 63.9521 214.715 64.0251 214.748 64.05C214.752 64.1428 214.773 64.643 214.706 64.79C214.638 64.9369 214.184 64.9979 214.184 64.9979H214.884C214.884 64.9979 215.324 65.1561 215.324 64.7272C215.324 64.2984 215.416 63.8412 215.484 63.7063C215.521 63.6332 215.809 63.476 216.002 63.2199C216.165 63.0016 216.218 62.7704 216.238 62.6733C216.258 62.5762 216.32 62.3648 216.17 62.2668C216.003 62.1586 213.699 63.0351 213.699 63.0351Z" fill="#AB580F"/>
<path d="M207.741 59.1423C207.741 59.1423 207.323 59.5599 207.369 60.372C207.414 61.1841 208.328 63.1822 212.312 63.3171C216.238 63.4503 217.452 61.332 217.593 60.7106C217.722 60.1426 217.56 59.7009 217.301 59.3511C217.041 59.0013 211.149 58.7246 211.149 58.7246L207.741 59.1423Z" fill="#FCE9C5"/>
<path d="M208.057 58.9163C208.057 58.9163 207.5 59.1268 207.538 59.8195C207.584 60.6548 208.881 62.6184 212.469 62.6064C215.663 62.5961 217.412 60.8576 217.435 59.9432C217.457 59.04 216.746 58.9953 216.746 58.9953L208.057 58.9163Z" fill="#FFA828"/>
<path d="M214.941 60.677L212.571 61.0156C212.571 61.0156 212.743 61.4556 213.383 61.7606C214.093 62.0992 214.691 62.0313 214.726 62.2574C214.759 62.4834 214.793 63.1554 214.793 63.1554L215.064 63.1038L215.75 61.4083L216.097 60.9752C216.097 60.9752 216.317 60.3616 216.068 60.1364C215.821 59.9096 214.941 60.677 214.941 60.677Z" fill="#AF5713"/>
<path d="M209.265 56.5916C209.231 56.5916 208.35 56.7153 208.35 56.7153C208.35 56.7153 207.602 57.1192 207.572 58.2055C207.537 59.4241 208.666 61.1058 212.357 61.1282C216.137 61.1514 217.422 59.6638 217.502 58.6343C217.599 57.408 216.904 56.9069 216.904 56.9069L209.265 56.5916Z" fill="#FCE9C5"/>
<path d="M207.899 57.7086C207.912 59.0175 209.309 60.3151 212.491 60.4286C215.597 60.5386 217.299 59.0295 217.288 57.7654C217.277 56.5915 215.404 55.4519 212.436 55.4408C209.422 55.4296 207.888 56.5579 207.899 57.7086Z" fill="#FFA828"/>
<path d="M214.337 61.5159C214.345 61.778 214.972 61.8905 215.01 62.0959C215.048 62.3022 215.067 63.1306 215.067 63.1306C215.067 63.1306 214.896 63.202 214.706 63.2415C214.491 63.2862 214.257 63.3059 214.292 63.4288C214.379 63.727 215.015 63.88 215.015 63.88C215.015 63.88 215.046 64.3415 215.034 64.5348C215.009 64.9877 214.884 65.0651 214.884 65.0651L215.197 65.3203L215.59 64.8348C215.59 64.8348 215.571 64.3982 215.565 64.2547C215.559 64.1112 215.546 63.8121 215.546 63.8121C215.546 63.8121 215.86 63.5792 216.072 63.1702C216.231 62.8651 216.232 62.6459 216.033 62.7396C215.834 62.8333 215.519 63.0069 215.519 63.0069C215.519 63.0069 215.478 62.2403 215.546 62.0409C215.614 61.8416 216.164 61.0741 216.082 60.9427C216 60.8112 215.502 61.0982 215.202 61.1798C214.904 61.2598 214.33 61.3285 214.337 61.5159Z" fill="#D0701C"/>
<path d="M211.022 55.4468C211.022 55.4468 210.273 55.525 210.204 56.0079C210.133 56.4909 210.227 56.5614 209.915 56.741C209.603 56.9206 208.727 57.3864 208.68 57.5574C208.633 57.7284 208.535 58.2208 209.642 58.3463C210.407 58.4331 210.638 58.3369 211.091 58.6643C211.544 58.9917 211.642 59.589 212.376 59.8433C212.863 60.0118 213.204 59.8743 213.609 60.0694C214.015 60.2644 214.397 60.6426 214.845 60.5558C215.223 60.4827 215.471 59.3475 215.471 59.3234C215.471 59.2994 215.509 58.0146 215.509 58.0146C215.509 58.0146 215.341 57.7886 215.457 57.5591C215.536 57.4019 216.127 57.0005 216.213 56.7642C216.294 56.5425 216.259 56.301 216.15 56.2151C216.041 56.1291 214.865 56.3517 214.842 56.3199C214.818 56.2881 213.423 55.9925 213.22 55.9297C213.017 55.8679 211.022 55.4468 211.022 55.4468Z" fill="#AB580F"/>
<path d="M215.216 57.4501C215.16 57.946 215.801 57.9649 215.824 58.6197C215.839 59.0718 215.528 59.345 215.395 59.6561C215.263 59.9681 215.083 60.2405 214.795 60.3032C214.507 60.366 213.991 59.95 213.547 59.7859C213.102 59.6226 212.858 59.8822 212.194 59.5066C211.802 59.2857 211.373 58.3929 210.843 58.2373C210.602 58.166 210.075 58.1797 209.634 58.1204C209.107 58.0491 208.677 57.8953 208.668 57.6529C208.645 57.0136 210.173 56.7334 210.321 56.5074C210.468 56.2814 210.124 55.5664 211.054 55.4082C212.293 55.1977 212.878 55.7202 213.649 55.8603C214.42 56.0004 215.735 55.8646 216.065 56.125C216.658 56.5925 215.271 56.9672 215.216 57.4501Z" fill="#CF701E"/>
<path d="M211.626 57.5911C211.646 57.6684 211.739 58.2038 212.004 58.2949C212.27 58.3851 212.851 58.227 213.35 58.1204C213.975 57.9864 214.684 57.8652 214.662 57.6882C214.629 57.414 214.306 57.1253 214.031 56.7308C213.865 56.4902 213.705 56.1215 213.446 56.1731C213.187 56.2247 211.626 57.5911 211.626 57.5911Z" fill="#AC5813"/>
<path d="M209.344 57.2721C209.192 57.3099 209.108 57.627 209.442 57.7834C209.869 57.9837 210.38 57.9579 210.413 57.7379C210.445 57.5179 209.947 57.5695 209.778 57.4534C209.61 57.3366 209.552 57.2205 209.344 57.2721ZM210.678 57.8023C210.57 57.9029 210.687 58.0163 210.828 58.0705C210.969 58.1246 211.08 58.1289 211.144 58.0447C211.208 57.9613 211.085 57.8307 210.96 57.7938C210.836 57.7568 210.744 57.7413 210.678 57.8023Z" fill="#FDFFFC"/>
<path d="M211.198 56.3904C211.198 56.3904 211.239 56.2667 211.44 56.2349C211.641 56.2031 212.141 56.2031 212.36 56.1524C212.58 56.1017 212.95 55.9143 213.142 55.9556C213.334 55.9968 213.53 56.4154 213.579 56.4936C213.786 56.821 213.951 57.053 213.974 57.1768C213.997 57.3005 212.954 57.7354 212.904 57.7354C212.854 57.7354 212.13 58.2338 211.934 57.8316C211.737 57.4294 211.207 56.3767 211.198 56.3904Z" fill="#FADE62"/>
<path d="M212.813 57.383C212.57 57.4337 211.948 57.603 211.948 57.603L211.848 57.8634C211.848 57.8634 211.889 58.0696 212.031 58.0782C212.173 58.0877 212.632 57.9562 212.984 57.8651C213.304 57.7817 213.953 57.6296 213.981 57.5703C214.008 57.511 214.038 57.1432 213.957 57.1286C213.907 57.12 213.628 57.1948 213.473 57.2317C213.254 57.2833 213.055 57.3331 212.813 57.383Z" fill="#F5AD02"/>
<path d="M211.112 56.7248C211.131 56.7832 211.295 57.1364 211.427 57.3469C211.56 57.5575 211.876 58.0723 211.967 58.0817C212.051 58.0903 212.042 57.9476 212.049 57.8557C212.057 57.75 212.054 57.6537 212.032 57.5807C212.008 57.5076 211.812 57.1965 211.707 57.0315C211.602 56.8665 211.295 56.3226 211.226 56.3449C211.158 56.3681 211.08 56.6242 211.112 56.7248ZM212.002 58.703C211.856 58.7761 212.034 59.1972 212.432 59.3802C212.83 59.5633 213.253 59.5358 213.324 59.3158C213.389 59.119 212.85 59.1121 212.629 59.0047C212.272 58.8311 212.199 58.6042 212.002 58.703Z" fill="#FDFFFC"/>
<path d="M209.962 61.7744C209.939 61.8612 210.001 61.9411 210.236 61.9927C210.471 62.0442 210.565 62.0227 210.59 61.9411C210.616 61.8595 210.539 61.7787 210.329 61.7228C210.096 61.6609 209.979 61.7099 209.962 61.7744ZM211.54 62.0906C211.506 62.2015 211.664 62.3596 212.152 62.3768C212.662 62.3948 212.948 62.3295 212.951 62.1499C212.954 62.0296 212.562 62.0769 212.168 62.0562C211.776 62.0348 211.572 61.9884 211.54 62.0906ZM208.543 62.7747C208.488 62.8366 208.522 62.901 208.62 62.9844C208.735 63.0823 208.893 63.1167 208.958 63.0402C209.022 62.9637 208.872 62.8778 208.787 62.8134C208.701 62.7489 208.61 62.6973 208.543 62.7747Z" fill="#FCE9C5"/>
</g>
<path d="M53.3438 30.5469H47.9844V25.1875C47.9844 24.1722 47.5811 23.1985 46.8631 22.4806C46.1452 21.7627 45.1715 21.3594 44.1562 21.3594H19.6562C18.641 21.3594 17.6673 21.7627 16.9494 22.4806C16.2314 23.1985 15.8281 24.1722 15.8281 25.1875V49.6875C15.8283 50.121 15.9512 50.5456 16.1825 50.9122C16.4138 51.2788 16.7441 51.5724 17.1353 51.7592C17.5265 51.946 17.9625 52.0182 18.3931 51.9677C18.8236 51.9171 19.231 51.7457 19.5682 51.4733L25.0156 47.071V51.2187C25.0156 52.234 25.4189 53.2077 26.1369 53.9256C26.8548 54.6436 27.8285 55.0469 28.8438 55.0469H46.4857L53.4318 60.6608C53.769 60.9332 54.1764 61.1046 54.607 61.1552C55.0375 61.2057 55.4735 61.1335 55.8647 60.9467C56.2559 60.7599 56.5862 60.4663 56.8175 60.0997C57.0488 59.7331 57.1717 59.3085 57.1719 58.875V34.375C57.1719 33.3597 56.7686 32.386 56.0506 31.6681C55.3327 30.9502 54.359 30.5469 53.3438 30.5469ZM20.4219 44.8775V25.9531H43.3906V41.2656H25.7009C25.1729 41.2642 24.6605 41.4446 24.25 41.7767L20.4219 44.8775ZM52.5781 54.065L48.75 50.9642C48.3415 50.6338 47.8322 50.4534 47.3068 50.4531H29.6094V45.8594H44.1562C45.1715 45.8594 46.1452 45.4561 46.8631 44.7381C47.5811 44.0202 47.9844 43.0465 47.9844 42.0312V35.1406H52.5781V54.065Z" fill="url(#paint1_linear_338_27555)"/>
<g clip-path="url(#clip1_338_27555)">
<path d="M224.962 66.1375C222.347 66.1375 219.525 64.4969 219.525 60.8969C219.525 57.2969 222.347 55.6562 224.962 55.6562C226.416 55.6562 227.756 56.1344 228.75 57.0063C229.828 57.9625 230.4 59.3125 230.4 60.8969C230.4 62.4813 229.828 63.8219 228.75 64.7781C227.756 65.65 226.406 66.1375 224.962 66.1375Z" fill="url(#paint2_radial_338_27555)"/>
<path d="M229.452 57.7815C229.952 58.5877 230.212 59.5477 230.212 60.6156C230.212 62.1999 229.641 63.5406 228.562 64.4968C227.569 65.3687 226.219 65.8562 224.775 65.8562C223.082 65.8562 221.306 65.1671 220.258 63.7056C221.267 65.3612 223.164 66.1374 224.962 66.1374C226.406 66.1374 227.756 65.6499 228.75 64.7781C229.828 63.8218 230.4 62.4812 230.4 60.8968C230.4 59.7024 230.075 58.6412 229.452 57.7815Z" fill="#EB8F00"/>
<path d="M225.023 63.9475C223.829 63.9475 222.978 63.3278 222.722 62.9378C222.674 62.8764 222.644 62.8032 222.635 62.7261C222.626 62.649 222.638 62.5709 222.669 62.5C222.719 62.409 222.816 62.3528 222.92 62.3537C222.958 62.3537 222.997 62.3603 223.033 62.3725C223.68 62.5673 224.353 62.6643 225.028 62.6603C225.7 62.664 226.37 62.5665 227.014 62.3725C227.05 62.3603 227.089 62.3547 227.127 62.3537C227.231 62.3528 227.328 62.409 227.378 62.5C227.409 62.5709 227.421 62.649 227.412 62.7261C227.403 62.8032 227.373 62.8764 227.325 62.9378C227.069 63.3278 226.219 63.9475 225.023 63.9475ZM228.142 60.8125L228.123 60.7862C228.106 60.7618 228.088 60.7384 228.068 60.7159C228.001 60.64 227.925 60.5715 227.842 60.5134C227.729 60.4347 227.607 60.37 227.479 60.3212C227.408 60.294 227.336 60.2706 227.263 60.2518C227.227 60.2425 227.186 60.234 227.145 60.2256L227.089 60.2153L227.144 60.1862L227.308 60.1C227.414 60.0456 227.514 59.9987 227.599 59.9603C227.683 59.9218 227.753 59.8947 227.799 59.8768L227.871 59.8515L227.891 59.8431C228.023 59.7887 228.085 59.6368 228.031 59.5047C227.993 59.4147 227.909 59.3537 227.813 59.3462C227.774 59.3443 227.735 59.3443 227.696 59.3462C227.602 59.3547 227.507 59.3715 227.415 59.395C227.289 59.4268 227.167 59.4672 227.047 59.5159C226.983 59.544 226.915 59.5703 226.851 59.604C226.786 59.6378 226.716 59.6734 226.658 59.7043C226.599 59.7353 226.529 59.7812 226.47 59.8215C226.411 59.8618 226.351 59.904 226.295 59.9453C226.191 60.022 226.092 60.1067 226.001 60.1984C225.933 60.2659 225.871 60.339 225.814 60.4168C225.797 60.4393 225.781 60.4637 225.767 60.4881C225.759 60.5031 225.755 60.5106 225.755 60.5106C225.72 60.595 225.717 60.6887 225.747 60.775C225.772 60.8385 225.822 60.8894 225.885 60.9164C225.947 60.9435 226.018 60.9446 226.082 60.9193C226.083 60.9193 226.084 60.9184 226.085 60.9184L226.107 60.91L226.125 60.9062L226.148 60.9006C226.163 60.9006 226.193 60.8893 226.223 60.8828C226.253 60.8762 226.289 60.8697 226.328 60.8631C226.421 60.85 226.516 60.8425 226.61 60.8425C226.72 60.8425 226.832 60.85 226.942 60.8659C226.961 60.8659 227.011 60.8753 227.035 60.88C227.06 60.8847 227.086 60.8884 227.114 60.895C227.168 60.9081 227.222 60.9193 227.273 60.9343C227.363 60.9597 227.451 60.9906 227.537 61.0281C227.593 61.0543 227.648 61.0834 227.702 61.1162C227.739 61.1387 227.758 61.1528 227.758 61.1528L227.784 61.1725C227.897 61.2578 228.058 61.2353 228.143 61.1218C228.212 61.03 228.211 60.9034 228.142 60.8125ZM223.188 59.4006C222.795 59.4006 222.438 59.7325 222.438 60.2837C222.438 60.835 222.795 61.1659 223.188 61.1659C223.581 61.1659 223.938 60.834 223.938 60.2837C223.938 59.7334 223.581 59.4006 223.188 59.4006ZM221.798 59.2C221.716 59.2009 221.64 59.1615 221.592 59.0959C221.547 59.0284 221.539 58.9422 221.571 58.8672C221.762 58.3872 222.131 57.999 222.602 57.7853C222.776 57.7044 222.96 57.6504 223.15 57.625C223.163 57.624 223.175 57.624 223.187 57.625C223.305 57.6203 223.407 57.7056 223.424 57.8228C223.441 57.9475 223.367 58.0656 223.247 58.104L223.212 58.0384L223.236 58.1078C222.732 58.2842 222.303 58.625 222.017 59.0753C221.972 59.1522 221.889 59.199 221.8 59.199L221.798 59.2Z" fill="#422B0D"/>
<path d="M223.151 59.769C223.087 59.7385 223.013 59.7346 222.946 59.7581C222.879 59.7816 222.824 59.8307 222.793 59.8947C222.744 59.9987 222.766 60.1234 222.849 60.204C222.983 60.2678 223.143 60.2115 223.208 60.0784C223.257 59.9744 223.235 59.8497 223.151 59.769Z" fill="#896024"/>
</g>
<defs>
<linearGradient id="paint0_linear_338_27555" x1="8.50694" y1="6.34337" x2="155.728" y2="108.715" gradientUnits="userSpaceOnUse">
<stop stop-color="#1F1E21"/>
<stop offset="1" stop-color="#131216"/>
</linearGradient>
<linearGradient id="paint1_linear_338_27555" x1="36.5" y1="21.3594" x2="36.5" y2="61.1709" gradientUnits="userSpaceOnUse">
<stop stop-color="#3CC38C"/>
<stop offset="1" stop-color="#0098A5"/>
</linearGradient>
<radialGradient id="paint2_radial_338_27555" cx="0" cy="0" r="1" gradientUnits="userSpaceOnUse" gradientTransform="translate(224.962 60.8969) scale(5.34)">
<stop offset="0.5" stop-color="#FDE030"/>
<stop offset="0.92" stop-color="#F7C02B"/>
<stop offset="1" stop-color="#F4A223"/>
</radialGradient>
<clipPath id="clip0_338_27555">
<rect width="11" height="11" fill="white" transform="translate(207 55)"/>
</clipPath>
<clipPath id="clip1_338_27555">
<rect width="12" height="12" fill="white" transform="translate(219 55)"/>
</clipPath>
</defs>
</svg>
